<?xml version="1.0" encoding="UTF-8" standalone="no" ?>
<!DOCTYPE svg PUBLIC "-//W3C//DTD SVG 1.1//EN" "http://www.w3.org/Graphics/SVG/1.1/DTD/svg11.dtd">
<svg xmlns="http://www.w3.org/2000/svg" xmlns:xlink="http://www.w3.org/1999/xlink" version="1.1" width="640" height="480" viewBox="0 0 640 480" xml:space="preserve">
<desc>Created with Fabric.js 3.6.6</desc>
<defs>
</defs>
<g transform="matrix(0.85 0 0 0.81 316.15 267.03)"  >
<path style="stroke: none; stroke-width: 1; stroke-dasharray: none; stroke-linecap: butt; stroke-dashoffset: 0; stroke-linejoin: miter; stroke-miterlimit: 4; fill: rgb(22,76,146); fill-rule: evenodd; opacity: 1;"  transform=" translate(-384.5, -370)" d="M 20 370 L 20 532 L 384.5 532 L 749 532 L 749 370 L 749 208 L 384.5 208 L 20 208 L 20 370 M 539.5 263.976 C 521.264 266.578 508.289 276.463 504.416 290.702 C 500.718 304.3 507.029 316.947 521.042 324.021 C 524.149 325.59 534.4 329.093 543.821 331.805 C 553.242 334.518 562.107 337.496 563.521 338.422 C 572.574 344.353 566.355 354.007 553.5 353.98 C 544.103 353.96 538.225 349.721 536.542 341.75 L 535.962 339 L 518.352 339 L 500.742 339 L 501.418 344.25 C 503.024 356.718 511.897 368.699 523.583 374.18 C 543.415 383.48 573.743 381.084 588.984 369.013 C 596.967 362.69 602.911 348.665 601.615 339.211 C 600.153 328.543 593.02 319.077 583.083 314.618 C 579.975 313.223 570.472 310.213 561.966 307.929 C 546.808 303.86 539.849 301.182 538.42 298.87 C 537.337 297.118 537.717 292.046 539.052 290.438 C 540.856 288.263 547.85 286.75 552.721 287.481 C 558.03 288.277 563.74 292.917 564.188 296.799 L 564.5 299.5 L 581.5 299.5 L 598.5 299.5 L 598.179 295 C 597.783 289.439 594.311 281.563 590.184 276.862 C 586.534 272.705 576.91 267.331 569.632 265.384 C 563.025 263.618 547.195 262.878 539.5 263.976 M 607.677 266.656 C 607.305 267.028 607 292.019 607 322.191 L 607 377.048 L 623.75 376.774 L 640.5 376.5 L 640.774 359.75 L 641.048 343 L 663.524 343 L 686 343 L 686 329 L 686 315 L 663.5 315 L 641 315 L 641 305.517 L 641 296.034 L 666.25 295.767 L 691.5 295.5 L 691.5 281 L 691.5 266.5 L 649.927 266.239 C 627.063 266.096 608.05 266.283 607.677 266.656 M 78.82 269.25 C 78.644 270.488 78.62 295.012 78.767 323.75 L 79.035 376 L 133.517 376 L 188 376 L 188 321.5 L 188 267 L 133.57 267 L 79.139 267 L 78.82 269.25 M 298 322 L 298 377 L 329.75 376.992 C 347.212 376.988 364.422 376.511 367.994 375.931 C 380.98 373.825 389.235 368.33 394.02 358.611 C 401.594 343.226 397.558 327.928 383.861 320.106 L 379.067 317.367 L 383.658 313.53 C 390.069 308.171 392.381 302.571 391.761 293.905 C 390.89 281.734 383.148 271.903 371.774 268.526 C 367.605 267.288 360.169 267 332.318 267 L 298 267 L 298 322 M 427.167 280.728 C 424.38 288.303 415.982 311.15 408.503 331.5 C 401.024 351.85 394.255 370.188 393.461 372.25 C 392.348 375.139 392.301 376.022 393.258 376.095 C 396.579 376.348 428.219 376.103 428.423 375.822 C 428.552 375.645 429.552 372.125 430.646 368 L 432.633 360.5 L 449.567 360.5 L 466.5 360.5 L 468.871 368 C 470.175 372.125 471.359 375.634 471.503 375.799 C 472.046 376.42 507.21 376.47 507.593 375.85 C 507.814 375.492 503.96 364.242 499.028 350.85 C 494.096 337.457 485.189 313.225 479.234 297 L 468.407 267.5 L 450.321 267.228 L 432.234 266.956 L 427.167 280.728 M 331.422 293.344 C 331.138 294.083 331.04 298.02 331.203 302.094 L 331.5 309.5 L 340.5 309.803 C 345.45 309.97 350.884 309.852 352.575 309.541 C 357.071 308.714 360 305.559 360 301.543 C 360 293.625 357.024 292 342.518 292 C 334.583 292 331.808 292.336 331.422 293.344 M 111.576 302.551 C 110.819 305.569 110.92 339.628 111.692 341.64 C 112.11 342.728 116.495 343 133.627 343 L 155.04 343 L 154.77 321.75 L 154.5 300.5 L 133.363 300.23 L 112.227 299.961 L 111.576 302.551 M 222 321.5 L 222 342 L 243 342 L 264 342 L 264 321.5 L 264 301 L 243 301 L 222 301 L 222 321.5 M 444.544 316.791 C 442.416 325.431 440.47 333.288 440.22 334.25 C 439.812 335.827 440.719 336 449.383 336 C 454.673 336 458.987 335.663 458.972 335.25 C 458.922 333.894 449.415 302.082 448.909 301.576 C 448.637 301.304 446.673 308.15 444.544 316.791 M 331.425 333.334 C 331.144 334.067 331.046 338.455 331.207 343.084 L 331.5 351.5 L 342.939 351.662 C 349.419 351.754 355.899 351.321 357.888 350.662 C 365.513 348.137 367.228 337.939 360.696 333.956 C 357.969 332.294 355.623 332.007 344.719 332.004 C 334.986 332.001 331.815 332.318 331.425 333.334 M 202.408 433.52 C 191.766 438.19 187.656 455.9 194.694 466.754 C 197.93 471.746 201.582 473.926 207.973 474.683 C 217.69 475.834 226.702 469.631 227.293 461.386 C 227.469 458.938 227.13 458.5 225.064 458.5 C 223.186 458.5 222.446 459.201 221.835 461.555 C 219.948 468.841 210.455 472.298 203.738 468.147 C 199.675 465.636 197.995 462.29 197.265 455.258 C 196.544 448.303 199.07 441.538 203.365 438.919 C 209.305 435.297 218.367 437.121 220.784 442.425 C 222.249 445.64 227 446.138 227 443.077 C 227 440.361 222.196 434.98 218.329 433.364 C 214.246 431.658 206.478 431.734 202.408 433.52 M 457.347 434.057 C 451.563 436.92 447.961 442.483 447.086 449.901 C 445.783 460.954 449.146 468.685 457.059 472.823 C 460.66 474.706 462.573 475.056 467.173 474.674 C 470.294 474.415 474.189 473.411 475.829 472.442 C 479.335 470.371 483 464.325 483 460.614 C 483 458.512 482.524 458 480.567 458 C 478.898 458 477.937 458.706 477.505 460.25 C 475.64 466.906 471.921 470.003 465.8 469.996 C 461.627 469.992 456.522 466.918 454.667 463.294 C 449.013 452.249 454.001 438.412 464.032 437.315 C 469.784 436.685 473.649 438.221 475.791 441.985 C 477.038 444.176 478.243 444.989 480.25 444.994 C 483.51 445.001 483.695 443.653 481.035 439.29 C 476.856 432.436 465.631 429.957 457.347 434.057 M 78 435.5 C 78 437.91 78.233 438 84.5 438 L 91 438 L 91 456 L 91 474 L 94 474 L 97 474 L 97 456 L 97 438 L 103.5 438 C 109.767 438 110 437.91 110 435.5 L 110 433 L 94 433 L 78 433 L 78 435.5 M 114 453.5 L 114 474 L 116.5 474 C 118.992 474 119 473.97 119 464.45 C 119 453.597 120.469 449.422 124.659 448.371 C 128.42 447.427 132.297 449.096 133.107 452.009 C 133.489 453.379 133.845 458.919 133.9 464.32 C 133.998 473.906 134.053 474.132 136.25 473.82 C 138.436 473.509 138.5 473.168 138.5 461.895 C 138.5 449.678 137.409 445.582 133.855 444.454 C 130.253 443.311 123.962 443.795 121.504 445.405 L 119 447.046 L 119 440.023 C 119 433.198 118.929 433 116.5 433 L 114 433 L 114 453.5 M 234 453.5 L 234 474 L 236.5 474 L 239 474 L 239 463.455 C 239 453.591 239.159 452.75 241.455 450.455 C 242.904 449.006 245.054 448.006 246.705 448.015 C 252.036 448.045 252.459 448.965 253 461.711 C 253.479 473 253.595 473.514 255.75 473.82 C 257.98 474.136 258 474.031 258 461.625 C 258 450.052 257.829 448.913 255.727 446.469 C 253.898 444.343 252.542 443.812 248.792 443.756 C 246.002 443.713 243.099 444.36 241.565 445.366 L 239 447.046 L 239 440.023 C 239 433.198 238.929 433 236.5 433 L 234 433 L 234 453.5 M 345.184 435.75 C 345.435 437.932 346.016 438.5 348 438.5 C 349.984 438.5 350.565 437.932 350.816 435.75 C 351.102 433.268 350.828 433 348 433 C 345.172 433 344.898 433.268 345.184 435.75 M 419.909 433.43 C 419.859 433.744 419.818 435.35 419.818 437 C 419.818 471.639 419.951 474 421.893 474 C 422.934 474 423.969 473.438 424.193 472.75 C 424.417 472.063 424.519 462.95 424.421 452.5 C 424.246 433.973 424.188 433.492 422.121 433.18 C 420.954 433.005 419.959 433.117 419.909 433.43 M 305.292 445.106 C 300.818 447.387 301 447.373 301 445.43 C 301 444.375 300.263 443.966 298.75 444.18 C 296.535 444.495 296.5 444.724 296.5 459 C 296.5 473.276 296.535 473.505 298.75 473.82 C 300.921 474.128 301 473.861 301 466.195 C 301 452.347 303.196 447.595 309.319 448.193 C 313.876 448.639 314.968 451.636 314.985 463.75 L 315 474 L 317.5 474 L 320 474 L 320 463.039 C 320 453.051 320.194 451.897 322.189 450.039 C 323.392 448.918 325.53 448.007 326.939 448.015 C 332.064 448.046 332.475 449.018 332.834 461.962 C 333.166 473.933 333.181 474 335.584 474 L 338 474 L 338 461.174 C 338 449.005 337.88 448.236 335.65 446.141 C 332.653 443.325 325.466 442.994 321.649 445.495 C 319.527 446.885 318.694 446.991 317.523 446.019 C 314.481 443.495 309.223 443.102 305.292 445.106 M 396.001 444.134 C 392.108 444.93 389.367 447.515 388.455 451.25 C 387.902 453.515 388.116 454 389.669 454 C 390.706 454 392.739 452.65 394.187 451 C 396.176 448.734 397.68 448 400.338 448 C 404.139 448 407.282 450.317 406.8 452.764 C 406.388 454.853 404.484 455.745 397.603 457.068 C 390.409 458.452 387 461.414 387 466.28 C 387 471.389 390.835 474.52 396.984 474.429 C 399.742 474.388 402.924 473.625 404.42 472.644 C 406.654 471.181 407.118 471.143 407.595 472.388 C 408.882 475.74 415 475.364 415 471.933 C 415 470.87 414.325 470 413.5 470 C 412.259 470 412 468.13 412 459.174 C 412 449.227 411.817 448.181 409.75 446.279 C 407.296 444.022 401.199 443.071 396.001 444.134 M 534.073 443.803 C 532.739 444.013 530.656 444.835 529.444 445.629 C 527.508 446.897 527.17 446.886 526.652 445.536 C 526.328 444.691 525.149 444 524.031 444 C 522.08 444 522 444.589 522 459 L 522 474 L 524.5 474 C 526.992 474 527 473.97 527 464.45 C 527 451.672 528.888 448 535.459 448 C 536.722 448 538.245 448.59 538.843 449.311 C 539.445 450.036 540.058 455.73 540.215 462.061 C 540.484 472.848 540.621 473.517 542.619 473.802 C 544.648 474.092 544.759 473.623 545.201 462.898 C 545.619 452.735 545.874 451.52 547.942 449.846 C 551.097 447.291 555.513 447.466 557.443 450.223 C 558.618 451.9 559 455.086 559 463.223 L 559 474 L 561.5 474 L 564 474 L 564 461.635 C 564 450.64 563.77 448.978 561.927 446.635 C 560.153 444.379 559.091 444 554.538 444 C 550.816 444 548.522 444.566 546.889 445.888 C 544.936 447.471 544.39 447.551 543.529 446.385 C 542.246 444.649 537.29 443.296 534.073 443.803 M 582.256 444 C 580.472 444.41 578.335 445.307 577.506 445.995 C 576.27 447.021 576 446.954 576 445.622 C 576 444.559 575.139 444 573.5 444 L 571 444 L 571 464.5 L 571 485 L 573.5 485 C 575.929 485 576 484.802 576 477.977 L 576 470.954 L 578.618 472.669 C 580.141 473.667 583.173 474.384 585.868 474.382 C 594.515 474.378 599.004 469.045 598.996 458.782 C 598.989 448.372 591.605 441.852 582.256 444 M 150.343 446.056 C 146.838 448.301 143.988 454.26 144.022 459.27 C 144.053 463.789 147.327 470.513 150.514 472.601 C 153.75 474.722 161.698 475.031 165.176 473.172 C 167.643 471.853 171 467.198 171 465.096 C 171 462.944 167.4 464.052 164.813 467 C 162.794 469.301 161.333 470 158.545 470 C 154.401 470 150 466.418 150 463.045 C 150 461.114 150.589 461 160.531 461 C 168.618 461 171.187 460.676 171.598 459.605 C 172.598 456.999 169.849 449.661 166.807 446.82 C 164.298 444.476 162.92 444.003 158.644 444.017 C 155.211 444.028 152.45 444.707 150.343 446.056 M 269.836 446.255 C 262.729 452.243 261.966 464.051 268.251 470.761 C 271.278 473.992 277.478 475.473 282.137 474.077 C 285.971 472.929 291.366 467.61 290.713 465.624 C 290.239 464.183 286 463.524 286 464.891 C 286 466.994 281.555 470 278.446 470 C 274.563 470 270.408 466.914 269.766 463.554 L 269.289 461.063 L 280.395 460.781 L 291.5 460.5 L 291.156 457.026 C 290.665 452.071 287.599 446.594 284.533 445.197 C 280.102 443.178 272.87 443.698 269.836 446.255 M 345.465 445.23 C 345.176 445.984 345.065 452.653 345.22 460.05 L 345.5 473.5 L 348 473.5 L 350.5 473.5 L 350.5 459 C 350.5 444.716 350.466 444.495 348.246 444.18 C 347.006 444.004 345.754 444.476 345.465 445.23 M 361.769 446.255 C 356.77 450.365 354.623 459.235 357.067 465.685 C 360.767 475.451 373.781 477.803 380.426 469.905 C 383.693 466.024 383.836 462.986 380.75 463.039 C 379.327 463.063 377.76 464.257 376.487 466.289 C 374.002 470.252 368.671 471.173 365.074 468.261 C 362.616 466.271 361.229 459.207 362.389 454.587 C 363.308 450.925 366.894 447.998 370.439 448.015 C 374.077 448.034 375.302 448.743 376.885 451.75 C 378.1 454.055 383 455.005 383 452.934 C 383 451.093 380.851 447.569 378.633 445.772 C 375.302 443.074 365.29 443.361 361.769 446.255 M 493.206 446.48 C 489.097 449.937 487.684 453.959 488.179 460.793 C 488.797 469.348 491.996 472.971 500.309 474.53 C 505.2 475.448 512.343 472.171 514.486 468.026 C 517.076 463.019 516.787 453.772 513.91 449.573 C 510.907 445.19 508.262 444 501.53 444 C 497.266 444 495.544 444.513 493.206 446.48 M 609.5 445.155 C 606.593 446.745 605 449.059 605 451.691 C 605 454.763 608.507 454.803 610.115 451.75 C 611.676 448.785 612.924 448.034 616.316 448.015 C 620.433 447.993 623 449.714 623 452.497 C 623 455.029 621.127 455.869 611.715 457.557 C 605.887 458.602 603.545 461.022 603.545 466 C 603.545 469.189 604.104 470.666 605.844 472.075 C 609.6 475.116 614.391 475.51 619.127 473.167 L 623.273 471.116 L 624.949 473.185 C 626.154 474.674 627.237 475.059 628.812 474.56 C 631.301 473.77 631.758 470.505 629.5 469.638 C 628.298 469.177 628 466.97 628 458.531 C 628 445.223 627.125 443.985 617.75 444.03 C 614.313 444.047 610.6 444.553 609.5 445.155 M 635.971 444.25 C 635.904 444.82 635.874 465.836 635.935 469.82 C 635.994 473.712 636.223 474.107 638.25 473.82 C 640.389 473.516 640.525 472.965 641 462.658 C 641.455 452.781 641.71 451.646 643.861 449.908 C 646.829 447.509 651.196 447.454 653.309 449.789 C 654.55 451.16 654.995 454.138 655.214 462.539 C 655.488 473.045 655.593 473.513 657.75 473.82 C 659.98 474.136 660 474.028 660 461.704 C 660 450.639 659.772 448.98 657.927 446.635 C 656.155 444.381 655.089 444 650.562 444 C 646.722 444 644.547 444.569 642.635 446.073 L 640 448.145 L 640 446.073 C 640 444.667 639.357 444 638 444 C 636.9 444 635.987 444.113 635.971 444.25 M 665 445.286 C 665 445.993 667.471 452.729 670.492 460.256 C 675.441 472.588 675.863 474.216 674.762 476.721 C 673.271 480.113 672.17 480.965 669.25 480.985 C 667.521 480.996 667 481.579 667 483.5 C 667 485.601 667.47 486 669.944 486 C 675.452 486 677.593 482.735 685.022 463 C 688.853 452.825 691.99 444.358 691.994 444.184 C 691.997 444.01 690.806 444.01 689.346 444.184 C 686.932 444.471 686.364 445.467 683.045 455.218 C 681.039 461.113 679.143 466.19 678.833 466.501 C 678.522 466.811 677.235 464.238 675.973 460.783 C 674.71 457.327 672.817 452.137 671.767 449.25 C 670.177 444.883 669.448 444 667.428 444 C 666.093 444 665 444.579 665 445.286 M 152.455 450.455 C 147.971 454.938 149.032 456 158 456 C 164.549 456 166 455.72 166 454.455 C 166 451.762 161.337 448 158 448 C 156.052 448 154.002 448.907 152.455 450.455 M 272.635 450.073 C 271.186 451.212 270 453.012 270 454.073 C 270 455.815 270.767 456 278 456 C 282.4 456 286 455.796 286 455.547 C 286 453.687 283.351 450.025 281.343 449.11 C 277.796 447.494 275.605 447.736 272.635 450.073 M 497.36 449.46 C 492.162 453.101 491.665 463.595 496.494 467.748 C 500.229 470.961 504.48 470.674 508.197 466.957 C 511.024 464.129 511.207 463.514 510.774 458.287 C 510.396 453.735 509.79 452.216 507.598 450.331 C 504.509 447.674 500.409 447.325 497.36 449.46 M 580.36 449.46 C 575.162 453.101 574.665 463.595 579.494 467.748 C 584.84 472.347 592.265 469.308 593.497 462.017 C 595.187 452.014 587.375 444.547 580.36 449.46 M 401 460.36 C 394.406 461.79 393.403 462.352 392.71 465.002 C 391.386 470.064 400.144 471.946 404.545 467.545 C 406.077 466.014 407 463.946 407 462.045 C 407 460.37 406.887 459.038 406.75 459.084 C 406.613 459.13 404.025 459.704 401 460.36 M 617 460.44 C 610.162 461.824 609 462.539 609 465.359 C 609 468.483 610.845 470 614.644 470 C 619.321 470 623.256 466.345 622.831 462.395 L 622.5 459.326 L 617 460.44" stroke-linecap="round" />
</g>
<g transform="matrix(0.85 0 0 0.81 316.16 278.37)"  >
<path style="stroke: none; stroke-width: 1; stroke-dasharray: none; stroke-linecap: butt; stroke-dashoffset: 0; stroke-linejoin: miter; stroke-miterlimit: 4; fill: rgb(247,248,250); fill-rule: evenodd; opacity: 1;"  transform=" translate(-384.5, -384)" d="M 0 384.001 L 0 768.003 L 384.25 767.751 L 768.5 767.5 L 768.751 383.75 L 769.003 0 L 384.501 0 L 0 0 L 0 384.001 M 0.495 384.5 C 0.495 595.7 0.61 681.951 0.75 576.169 C 0.89 470.386 0.89 297.586 0.75 192.169 C 0.61 86.751 0.495 173.3 0.495 384.5 M 20 370 L 20 532 L 384.5 532 L 749 532 L 749 370 L 749 208 L 384.5 208 L 20 208 L 20 370 M 539.5 263.976 C 521.264 266.578 508.289 276.463 504.416 290.702 C 500.718 304.3 507.029 316.947 521.042 324.021 C 524.149 325.59 534.4 329.093 543.821 331.805 C 553.242 334.518 562.107 337.496 563.521 338.422 C 572.574 344.353 566.355 354.007 553.5 353.98 C 544.103 353.96 538.225 349.721 536.542 341.75 L 535.962 339 L 518.352 339 L 500.742 339 L 501.418 344.25 C 503.024 356.718 511.897 368.699 523.583 374.18 C 543.415 383.48 573.743 381.084 588.984 369.013 C 596.967 362.69 602.911 348.665 601.615 339.211 C 600.153 328.543 593.02 319.077 583.083 314.618 C 579.975 313.223 570.472 310.213 561.966 307.929 C 546.808 303.86 539.849 301.182 538.42 298.87 C 537.337 297.118 537.717 292.046 539.052 290.438 C 540.856 288.263 547.85 286.75 552.721 287.481 C 558.03 288.277 563.74 292.917 564.188 296.799 L 564.5 299.5 L 581.5 299.5 L 598.5 299.5 L 598.179 295 C 597.783 289.439 594.311 281.563 590.184 276.862 C 586.534 272.705 576.91 267.331 569.632 265.384 C 563.025 263.618 547.195 262.878 539.5 263.976 M 607.677 266.656 C 607.305 267.028 607 292.019 607 322.191 L 607 377.048 L 623.75 376.774 L 640.5 376.5 L 640.774 359.75 L 641.048 343 L 663.524 343 L 686 343 L 686 329 L 686 315 L 663.5 315 L 641 315 L 641 305.517 L 641 296.034 L 666.25 295.767 L 691.5 295.5 L 691.5 281 L 691.5 266.5 L 649.927 266.239 C 627.063 266.096 608.05 266.283 607.677 266.656 M 78.82 269.25 C 78.644 270.488 78.62 295.012 78.767 323.75 L 79.035 376 L 133.517 376 L 188 376 L 188 321.5 L 188 267 L 133.57 267 L 79.139 267 L 78.82 269.25 M 298 322 L 298 377 L 329.75 376.992 C 347.212 376.988 364.422 376.511 367.994 375.931 C 380.98 373.825 389.235 368.33 394.02 358.611 C 401.594 343.226 397.558 327.928 383.861 320.106 L 379.067 317.367 L 383.658 313.53 C 390.069 308.171 392.381 302.571 391.761 293.905 C 390.89 281.734 383.148 271.903 371.774 268.526 C 367.605 267.288 360.169 267 332.318 267 L 298 267 L 298 322 M 427.167 280.728 C 424.38 288.303 415.982 311.15 408.503 331.5 C 401.024 351.85 394.255 370.188 393.461 372.25 C 392.348 375.139 392.301 376.022 393.258 376.095 C 396.579 376.348 428.219 376.103 428.423 375.822 C 428.552 375.645 429.552 372.125 430.646 368 L 432.633 360.5 L 449.567 360.5 L 466.5 360.5 L 468.871 368 C 470.175 372.125 471.359 375.634 471.503 375.799 C 472.046 376.42 507.21 376.47 507.593 375.85 C 507.814 375.492 503.96 364.242 499.028 350.85 C 494.096 337.457 485.189 313.225 479.234 297 L 468.407 267.5 L 450.321 267.228 L 432.234 266.956 L 427.167 280.728 M 331.422 293.344 C 331.138 294.083 331.04 298.02 331.203 302.094 L 331.5 309.5 L 340.5 309.803 C 345.45 309.97 350.884 309.852 352.575 309.541 C 357.071 308.714 360 305.559 360 301.543 C 360 293.625 357.024 292 342.518 292 C 334.583 292 331.808 292.336 331.422 293.344 M 111.576 302.551 C 110.819 305.569 110.92 339.628 111.692 341.64 C 112.11 342.728 116.495 343 133.627 343 L 155.04 343 L 154.77 321.75 L 154.5 300.5 L 133.363 300.23 L 112.227 299.961 L 111.576 302.551 M 222 321.5 L 222 342 L 243 342 L 264 342 L 264 321.5 L 264 301 L 243 301 L 222 301 L 222 321.5 M 444.544 316.791 C 442.416 325.431 440.47 333.288 440.22 334.25 C 439.812 335.827 440.719 336 449.383 336 C 454.673 336 458.987 335.663 458.972 335.25 C 458.922 333.894 449.415 302.082 448.909 301.576 C 448.637 301.304 446.673 308.15 444.544 316.791 M 331.425 333.334 C 331.144 334.067 331.046 338.455 331.207 343.084 L 331.5 351.5 L 342.939 351.662 C 349.419 351.754 355.899 351.321 357.888 350.662 C 365.513 348.137 367.228 337.939 360.696 333.956 C 357.969 332.294 355.623 332.007 344.719 332.004 C 334.986 332.001 331.815 332.318 331.425 333.334 M 202.408 433.52 C 191.766 438.19 187.656 455.9 194.694 466.754 C 197.93 471.746 201.582 473.926 207.973 474.683 C 217.69 475.834 226.702 469.631 227.293 461.386 C 227.469 458.938 227.13 458.5 225.064 458.5 C 223.186 458.5 222.446 459.201 221.835 461.555 C 219.948 468.841 210.455 472.298 203.738 468.147 C 199.675 465.636 197.995 462.29 197.265 455.258 C 196.544 448.303 199.07 441.538 203.365 438.919 C 209.305 435.297 218.367 437.121 220.784 442.425 C 222.249 445.64 227 446.138 227 443.077 C 227 440.361 222.196 434.98 218.329 433.364 C 214.246 431.658 206.478 431.734 202.408 433.52 M 457.347 434.057 C 451.563 436.92 447.961 442.483 447.086 449.901 C 445.783 460.954 449.146 468.685 457.059 472.823 C 460.66 474.706 462.573 475.056 467.173 474.674 C 470.294 474.415 474.189 473.411 475.829 472.442 C 479.335 470.371 483 464.325 483 460.614 C 483 458.512 482.524 458 480.567 458 C 478.898 458 477.937 458.706 477.505 460.25 C 475.64 466.906 471.921 470.003 465.8 469.996 C 461.627 469.992 456.522 466.918 454.667 463.294 C 449.013 452.249 454.001 438.412 464.032 437.315 C 469.784 436.685 473.649 438.221 475.791 441.985 C 477.038 444.176 478.243 444.989 480.25 444.994 C 483.51 445.001 483.695 443.653 481.035 439.29 C 476.856 432.436 465.631 429.957 457.347 434.057 M 78 435.5 C 78 437.91 78.233 438 84.5 438 L 91 438 L 91 456 L 91 474 L 94 474 L 97 474 L 97 456 L 97 438 L 103.5 438 C 109.767 438 110 437.91 110 435.5 L 110 433 L 94 433 L 78 433 L 78 435.5 M 114 453.5 L 114 474 L 116.5 474 C 118.992 474 119 473.97 119 464.45 C 119 453.597 120.469 449.422 124.659 448.371 C 128.42 447.427 132.297 449.096 133.107 452.009 C 133.489 453.379 133.845 458.919 133.9 464.32 C 133.998 473.906 134.053 474.132 136.25 473.82 C 138.436 473.509 138.5 473.168 138.5 461.895 C 138.5 449.678 137.409 445.582 133.855 444.454 C 130.253 443.311 123.962 443.795 121.504 445.405 L 119 447.046 L 119 440.023 C 119 433.198 118.929 433 116.5 433 L 114 433 L 114 453.5 M 234 453.5 L 234 474 L 236.5 474 L 239 474 L 239 463.455 C 239 453.591 239.159 452.75 241.455 450.455 C 242.904 449.006 245.054 448.006 246.705 448.015 C 252.036 448.045 252.459 448.965 253 461.711 C 253.479 473 253.595 473.514 255.75 473.82 C 257.98 474.136 258 474.031 258 461.625 C 258 450.052 257.829 448.913 255.727 446.469 C 253.898 444.343 252.542 443.812 248.792 443.756 C 246.002 443.713 243.099 444.36 241.565 445.366 L 239 447.046 L 239 440.023 C 239 433.198 238.929 433 236.5 433 L 234 433 L 234 453.5 M 345.184 435.75 C 345.435 437.932 346.016 438.5 348 438.5 C 349.984 438.5 350.565 437.932 350.816 435.75 C 351.102 433.268 350.828 433 348 433 C 345.172 433 344.898 433.268 345.184 435.75 M 419.909 433.43 C 419.859 433.744 419.818 435.35 419.818 437 C 419.818 471.639 419.951 474 421.893 474 C 422.934 474 423.969 473.438 424.193 472.75 C 424.417 472.063 424.519 462.95 424.421 452.5 C 424.246 433.973 424.188 433.492 422.121 433.18 C 420.954 433.005 419.959 433.117 419.909 433.43 M 305.292 445.106 C 300.818 447.387 301 447.373 301 445.43 C 301 444.375 300.263 443.966 298.75 444.18 C 296.535 444.495 296.5 444.724 296.5 459 C 296.5 473.276 296.535 473.505 298.75 473.82 C 300.921 474.128 301 473.861 301 466.195 C 301 452.347 303.196 447.595 309.319 448.193 C 313.876 448.639 314.968 451.636 314.985 463.75 L 315 474 L 317.5 474 L 320 474 L 320 463.039 C 320 453.051 320.194 451.897 322.189 450.039 C 323.392 448.918 325.53 448.007 326.939 448.015 C 332.064 448.046 332.475 449.018 332.834 461.962 C 333.166 473.933 333.181 474 335.584 474 L 338 474 L 338 461.174 C 338 449.005 337.88 448.236 335.65 446.141 C 332.653 443.325 325.466 442.994 321.649 445.495 C 319.527 446.885 318.694 446.991 317.523 446.019 C 314.481 443.495 309.223 443.102 305.292 445.106 M 396.001 444.134 C 392.108 444.93 389.367 447.515 388.455 451.25 C 387.902 453.515 388.116 454 389.669 454 C 390.706 454 392.739 452.65 394.187 451 C 396.176 448.734 397.68 448 400.338 448 C 404.139 448 407.282 450.317 406.8 452.764 C 406.388 454.853 404.484 455.745 397.603 457.068 C 390.409 458.452 387 461.414 387 466.28 C 387 471.389 390.835 474.52 396.984 474.429 C 399.742 474.388 402.924 473.625 404.42 472.644 C 406.654 471.181 407.118 471.143 407.595 472.388 C 408.882 475.74 415 475.364 415 471.933 C 415 470.87 414.325 470 413.5 470 C 412.259 470 412 468.13 412 459.174 C 412 449.227 411.817 448.181 409.75 446.279 C 407.296 444.022 401.199 443.071 396.001 444.134 M 534.073 443.803 C 532.739 444.013 530.656 444.835 529.444 445.629 C 527.508 446.897 527.17 446.886 526.652 445.536 C 526.328 444.691 525.149 444 524.031 444 C 522.08 444 522 444.589 522 459 L 522 474 L 524.5 474 C 526.992 474 527 473.97 527 464.45 C 527 451.672 528.888 448 535.459 448 C 536.722 448 538.245 448.59 538.843 449.311 C 539.445 450.036 540.058 455.73 540.215 462.061 C 540.484 472.848 540.621 473.517 542.619 473.802 C 544.648 474.092 544.759 473.623 545.201 462.898 C 545.619 452.735 545.874 451.52 547.942 449.846 C 551.097 447.291 555.513 447.466 557.443 450.223 C 558.618 451.9 559 455.086 559 463.223 L 559 474 L 561.5 474 L 564 474 L 564 461.635 C 564 450.64 563.77 448.978 561.927 446.635 C 560.153 444.379 559.091 444 554.538 444 C 550.816 444 548.522 444.566 546.889 445.888 C 544.936 447.471 544.39 447.551 543.529 446.385 C 542.246 444.649 537.29 443.296 534.073 443.803 M 582.256 444 C 580.472 444.41 578.335 445.307 577.506 445.995 C 576.27 447.021 576 446.954 576 445.622 C 576 444.559 575.139 444 573.5 444 L 571 444 L 571 464.5 L 571 485 L 573.5 485 C 575.929 485 576 484.802 576 477.977 L 576 470.954 L 578.618 472.669 C 580.141 473.667 583.173 474.384 585.868 474.382 C 594.515 474.378 599.004 469.045 598.996 458.782 C 598.989 448.372 591.605 441.852 582.256 444 M 150.343 446.056 C 146.838 448.301 143.988 454.26 144.022 459.27 C 144.053 463.789 147.327 470.513 150.514 472.601 C 153.75 474.722 161.698 475.031 165.176 473.172 C 167.643 471.853 171 467.198 171 465.096 C 171 462.944 167.4 464.052 164.813 467 C 162.794 469.301 161.333 470 158.545 470 C 154.401 470 150 466.418 150 463.045 C 150 461.114 150.589 461 160.531 461 C 168.618 461 171.187 460.676 171.598 459.605 C 172.598 456.999 169.849 449.661 166.807 446.82 C 164.298 444.476 162.92 444.003 158.644 444.017 C 155.211 444.028 152.45 444.707 150.343 446.056 M 269.836 446.255 C 262.729 452.243 261.966 464.051 268.251 470.761 C 271.278 473.992 277.478 475.473 282.137 474.077 C 285.971 472.929 291.366 467.61 290.713 465.624 C 290.239 464.183 286 463.524 286 464.891 C 286 466.994 281.555 470 278.446 470 C 274.563 470 270.408 466.914 269.766 463.554 L 269.289 461.063 L 280.395 460.781 L 291.5 460.5 L 291.156 457.026 C 290.665 452.071 287.599 446.594 284.533 445.197 C 280.102 443.178 272.87 443.698 269.836 446.255 M 345.465 445.23 C 345.176 445.984 345.065 452.653 345.22 460.05 L 345.5 473.5 L 348 473.5 L 350.5 473.5 L 350.5 459 C 350.5 444.716 350.466 444.495 348.246 444.18 C 347.006 444.004 345.754 444.476 345.465 445.23 M 361.769 446.255 C 356.77 450.365 354.623 459.235 357.067 465.685 C 360.767 475.451 373.781 477.803 380.426 469.905 C 383.693 466.024 383.836 462.986 380.75 463.039 C 379.327 463.063 377.76 464.257 376.487 466.289 C 374.002 470.252 368.671 471.173 365.074 468.261 C 362.616 466.271 361.229 459.207 362.389 454.587 C 363.308 450.925 366.894 447.998 370.439 448.015 C 374.077 448.034 375.302 448.743 376.885 451.75 C 378.1 454.055 383 455.005 383 452.934 C 383 451.093 380.851 447.569 378.633 445.772 C 375.302 443.074 365.29 443.361 361.769 446.255 M 493.206 446.48 C 489.097 449.937 487.684 453.959 488.179 460.793 C 488.797 469.348 491.996 472.971 500.309 474.53 C 505.2 475.448 512.343 472.171 514.486 468.026 C 517.076 463.019 516.787 453.772 513.91 449.573 C 510.907 445.19 508.262 444 501.53 444 C 497.266 444 495.544 444.513 493.206 446.48 M 609.5 445.155 C 606.593 446.745 605 449.059 605 451.691 C 605 454.763 608.507 454.803 610.115 451.75 C 611.676 448.785 612.924 448.034 616.316 448.015 C 620.433 447.993 623 449.714 623 452.497 C 623 455.029 621.127 455.869 611.715 457.557 C 605.887 458.602 603.545 461.022 603.545 466 C 603.545 469.189 604.104 470.666 605.844 472.075 C 609.6 475.116 614.391 475.51 619.127 473.167 L 623.273 471.116 L 624.949 473.185 C 626.154 474.674 627.237 475.059 628.812 474.56 C 631.301 473.77 631.758 470.505 629.5 469.638 C 628.298 469.177 628 466.97 628 458.531 C 628 445.223 627.125 443.985 617.75 444.03 C 614.313 444.047 610.6 444.553 609.5 445.155 M 635.971 444.25 C 635.904 444.82 635.874 465.836 635.935 469.82 C 635.994 473.712 636.223 474.107 638.25 473.82 C 640.389 473.516 640.525 472.965 641 462.658 C 641.455 452.781 641.71 451.646 643.861 449.908 C 646.829 447.509 651.196 447.454 653.309 449.789 C 654.55 451.16 654.995 454.138 655.214 462.539 C 655.488 473.045 655.593 473.513 657.75 473.82 C 659.98 474.136 660 474.028 660 461.704 C 660 450.639 659.772 448.98 657.927 446.635 C 656.155 444.381 655.089 444 650.562 444 C 646.722 444 644.547 444.569 642.635 446.073 L 640 448.145 L 640 446.073 C 640 444.667 639.357 444 638 444 C 636.9 444 635.987 444.113 635.971 444.25 M 665 445.286 C 665 445.993 667.471 452.729 670.492 460.256 C 675.441 472.588 675.863 474.216 674.762 476.721 C 673.271 480.113 672.17 480.965 669.25 480.985 C 667.521 480.996 667 481.579 667 483.5 C 667 485.601 667.47 486 669.944 486 C 675.452 486 677.593 482.735 685.022 463 C 688.853 452.825 691.99 444.358 691.994 444.184 C 691.997 444.01 690.806 444.01 689.346 444.184 C 686.932 444.471 686.364 445.467 683.045 455.218 C 681.039 461.113 679.143 466.19 678.833 466.501 C 678.522 466.811 677.235 464.238 675.973 460.783 C 674.71 457.327 672.817 452.137 671.767 449.25 C 670.177 444.883 669.448 444 667.428 444 C 666.093 444 665 444.579 665 445.286 M 152.455 450.455 C 147.971 454.938 149.032 456 158 456 C 164.549 456 166 455.72 166 454.455 C 166 451.762 161.337 448 158 448 C 156.052 448 154.002 448.907 152.455 450.455 M 272.635 450.073 C 271.186 451.212 270 453.012 270 454.073 C 270 455.815 270.767 456 278 456 C 282.4 456 286 455.796 286 455.547 C 286 453.687 283.351 450.025 281.343 449.11 C 277.796 447.494 275.605 447.736 272.635 450.073 M 497.36 449.46 C 492.162 453.101 491.665 463.595 496.494 467.748 C 500.229 470.961 504.48 470.674 508.197 466.957 C 511.024 464.129 511.207 463.514 510.774 458.287 C 510.396 453.735 509.79 452.216 507.598 450.331 C 504.509 447.674 500.409 447.325 497.36 449.46 M 580.36 449.46 C 575.162 453.101 574.665 463.595 579.494 467.748 C 584.84 472.347 592.265 469.308 593.497 462.017 C 595.187 452.014 587.375 444.547 580.36 449.46 M 401 460.36 C 394.406 461.79 393.403 462.352 392.71 465.002 C 391.386 470.064 400.144 471.946 404.545 467.545 C 406.077 466.014 407 463.946 407 462.045 C 407 460.37 406.887 459.038 406.75 459.084 C 406.613 459.13 404.025 459.704 401 460.36 M 617 460.44 C 610.162 461.824 609 462.539 609 465.359 C 609 468.483 610.845 470 614.644 470 C 619.321 470 623.256 466.345 622.831 462.395 L 622.5 459.326 L 617 460.44" stroke-linecap="round" />
</g>
</svg>