<?xml version="1.0" encoding="utf-8"?>
<!-- Generator: Adobe Illustrator 21.0.2, SVG Export Plug-In . SVG Version: 6.00 Build 0)  -->
<svg version="1.1" id="Layer_1" xmlns="http://www.w3.org/2000/svg" xmlns:xlink="http://www.w3.org/1999/xlink" x="0px" y="0px"
	 viewBox="0 0 617.7 199.6" style="enable-background:new 0 0 617.7 199.6;" xml:space="preserve">
<style type="text/css">
	.st0{fill:#71777A;}
	.st1{fill:none;stroke:#71777A;stroke-width:0.6752;stroke-miterlimit:10;}
	.st2{fill:#FFFFFF;}
	.st3{fill:#E40520;}
	.st4{fill:#E40520;stroke:#E40520;stroke-width:0.6872;stroke-miterlimit:10;}
	.st5{fill:#142534;}
</style>
<polygon class="st0" points="184.8,1.7 184.8,48.8 110.2,48.8 2,48.8 2,1.8 "/>
<polygon class="st1" points="184.8,1.7 184.8,48.8 110.2,48.8 2,48.8 2,1.8 "/>
<polygon class="st2" points="30.1,10.8 30,16.7 14.7,16.7 14.7,24.6 26.6,24.6 26.6,30.4 14.7,30.4 14.7,39.5 8.4,39.5 8.4,10.8 "/>
<path class="st2" d="M86.7,16.6c0,0-11.1,0-12.1,0c-1.2,0-2.2,0.4-2.8,1.4c-0.5,0.8-0.3,2.2,0.4,2.9c1.1,1.1,1.6,1,5.8,1.1
	c0.6-0.1,1.1-0.1,1.6,0c3.4,0.2,6.8,2.4,7.9,5.8c1.3,3.7,0,7.5-2.8,10c-1.8,1.4-3.1,1.7-6.2,1.8H65.4v-5.9c3.2,0,7.9,0,10.8,0
	c1.7,0,4.9,0.4,5.7-1.9c0.3-1,0.4-2.8-1.6-3.7c-3.3-1-8,0.5-10.6-1.5c-2.6-1.5-4.4-4.3-4.3-7.4s1.7-6.1,4.6-7.5
	c1.7-0.7,3.8-0.9,5.4-0.9c3.6,0,8.8,0,11.3,0C86.7,10.8,86.7,16.6,86.7,16.6z"/>
<path class="st2" d="M107.3,23.2c-0.9,1.3-2.3,1.6-3.8,1.8v7.4c1.9,3.1,4.4,7.2,4.4,7.2h7.1c0,0-5.1-8.7-5.9-10.2
	c1.3-0.5,2.8-1.5,3.8-2.7c1.9-2.8,2.3-7.2,0.7-10.3c-1.8-3.7-5.8-5.5-9.5-5.5h-0.5v5.9c1.6,0.1,3.2,0.7,4.2,2.2
	C108.2,20.2,108.1,22.1,107.3,23.2z M103.4,25c-0.6,0-1.3,0-1.8,0c-1.1-0.1-2.7,0-2.7,0v-8.2c1.2,0.1,2.9-0.1,4.6,0.1V11l-10.9-0.1
	v28.8h6.3v-9.2c0,0,2.7,0,3.4,0l1.2,1.9L103.4,25L103.4,25z"/>
<g>
	<path class="st3" d="M35.6,57.7V58c0.1,13,8.6,25.7,20.8,30.5c4.6,2.1,9.2,2.6,14.8,2.6H72v24.5c0,0-1.3,0.1-2.1,0.1
		c-22.9,0.5-44.5-13.3-53.7-34.4c-1.6-3.6-2.8-7.3-3.8-11.1l-0.1-0.5H2v-12h27.9C29.9,57.7,35.6,57.7,35.6,57.7z"/>
	<path class="st4" d="M35.6,57.7V58c0.1,13,8.6,25.7,20.8,30.5c4.6,2.1,9.2,2.6,14.8,2.6H72v24.5c0,0-1.3,0.1-2.1,0.1
		c-22.9,0.5-44.5-13.3-53.7-34.4c-1.6-3.6-2.8-7.3-3.8-11.1l-0.1-0.5H2v-12h27.9C29.9,57.7,35.6,57.7,35.6,57.7z"/>
	<polygon class="st3" points="184.8,69.8 175.7,69.8 175.7,115.4 120.7,115.4 120.7,91.1 151.1,91.1 151.1,57.7 184.8,57.7 	"/>
	<polygon class="st4" points="184.8,69.8 175.7,69.8 175.7,115.4 120.7,115.4 120.7,91.1 151.1,91.1 151.1,57.7 184.8,57.7 	"/>
	<polygon class="st3" points="108.7,63.7 108.7,91.3 84.1,91.2 84.1,63.7 	"/>
	<polygon class="st4" points="108.7,63.7 108.7,91.3 84.1,91.2 84.1,63.7 	"/>
	<path class="st3" d="M108.7,115.9v20.9h0.3c12.4-0.5,24.5,0.9,34.5,6.6c14.3,7.7,25.1,22.5,27.9,38c0.1,0.5,0.2,1.1,0.2,1.1
		l13.1,0.1v15h-36.5c0,0-0.1,0.1-0.1-0.5c0.5-8.2-1-15.8-5.3-22.2c-6.3-9.1-16-13.8-26.8-13.6H84.1v27.2H16.9v8.7H2V164h57.7v-36.3
		h24.5V96.2L108.7,115.9z"/>
	<path class="st4" d="M108.7,115.9v20.9h0.3c12.4-0.5,24.5,0.9,34.5,6.6c14.3,7.7,25.1,22.5,27.9,38c0.1,0.5,0.2,1.1,0.2,1.1
		l13.1,0.1v15h-36.5c0,0-0.1,0.1-0.1-0.5c0.5-8.2-1-15.8-5.3-22.2c-6.3-9.1-16-13.8-26.8-13.6H84.1v27.2H16.9v8.7H2V164h57.7v-36.3
		h24.5V96.2L108.7,115.9z"/>
</g>
<path class="st2" d="M133.5,34L133.5,34v6.4l0,0c8.4,0,15.3-6.9,15.3-15.3c0-8.5-6.9-15.2-15.3-15.2l0,0v6.3l0,0c4.9,0,8.9,4,8.9,9
	C142.4,30,138.4,34,133.5,34z M133.5,34c-4.9,0-9-4-9-8.9s4-9,9-9V9.9c-8.5,0-15.4,6.7-15.4,15.2c0,8.4,6.9,15.3,15.4,15.3V34z"/>
<path class="st2" d="M174,32c-1.6,1.5-3.9,2.4-6.3,2.4c-5.1,0-9.2-4.2-9.2-9.2c0-5.1,4.2-9.2,9.2-9.2c2.3,0,4.6,0.7,6.1,2l4-4.4
	c-2.7-2.3-6.3-3.7-10.2-3.7c-8.5,0-15.4,6.7-15.4,15.2c0,8.4,6.9,15.3,15.4,15.3c3.9,0,7.5-1.5,10.2-4L174,32z"/>
<path class="st2" d="M46.9,34L46.9,34l-0.1,6.4h0.1c8.4,0,15.3-6.9,15.3-15.3c0-8.5-6.9-15.2-15.3-15.2h-0.1v6.3h0.1
	c4.9,0,8.9,4,8.9,9C55.8,30,51.7,34,46.9,34z M46.8,34c-4.9,0-8.9-4-8.9-8.9s4-9,8.9-9V9.9c-8.4,0-15.3,6.7-15.3,15.2
	c0,8.4,6.9,15.3,15.3,15.3C46.8,40.4,46.8,34,46.8,34z"/>
<g>
	<path class="st5" d="M228.6,189.5l3.7,0.4c-1,2.7-2.3,4.8-4,6.1c-1.8,1.4-3.7,2-5.9,2c-2.3,0-4.2-0.8-5.7-2.3
		c-1.5-1.5-2.2-3.7-2.2-6.4c0-2.3,0.4-4.8,1.4-7.1c1-2.3,2.3-4.1,4.1-5.3s3.8-1.8,6-1.8c2.3,0,4.2,0.7,5.6,2c1.4,1.4,2,3.1,2,5.3
		l-3.7,0.3c0-1.4-0.4-2.5-1.2-3.3c-0.8-0.8-1.8-1.2-3.1-1.2c-1.5,0-2.7,0.4-4,1.4c-1.1,1-1.9,2.3-2.6,4.4c-0.7,1.9-1,3.8-1,5.6
		c0,1.9,0.4,3.3,1.2,4.2c0.8,1,1.8,1.4,3,1.4s2.3-0.4,3.4-1.4C227,192.8,228,191.3,228.6,189.5z"/>
	<path class="st5" d="M235.2,189.1c0-4.2,1.2-7.8,3.8-10.6c2-2.3,4.8-3.4,8.2-3.4c2.6,0,4.8,0.8,6.4,2.5s2.5,3.8,2.5,6.7
		c0,2.5-0.5,4.9-1.5,7c-1,2.2-2.5,3.8-4.4,4.9c-1.9,1.1-3.8,1.8-5.9,1.8c-1.6,0-3.3-0.4-4.6-1.1c-1.4-0.7-2.5-1.8-3.1-3.1
		C235.6,192.4,235.2,190.9,235.2,189.1z M238.9,188.8c0,2,0.5,3.7,1.5,4.6c1,1.1,2.2,1.6,3.8,1.6c0.8,0,1.6-0.1,2.3-0.5
		c0.7-0.4,1.5-0.8,2.2-1.5c0.7-0.7,1.2-1.4,1.8-2.3c0.4-0.8,0.8-1.8,1.1-2.7c0.4-1.4,0.7-2.7,0.7-4c0-1.9-0.5-3.5-1.5-4.6
		c-1-1.1-2.2-1.6-3.8-1.6c-1.2,0-2.2,0.3-3.1,0.8c-1,0.5-1.8,1.4-2.6,2.5c-0.8,1.1-1.4,2.3-1.8,3.7
		C239.2,186.4,238.9,187.6,238.9,188.8z"/>
	<path class="st5" d="M258,197.4l4.5-21.8h3.4l-0.8,3.8c1.5-1.5,2.9-2.6,4.1-3.3c1.2-0.7,2.6-1.1,4-1.1c1.8,0,3.1,0.5,4.2,1.5
		c1.1,1,1.5,2.2,1.5,3.8c0,0.8-0.1,2-0.5,3.8l-2.7,13.2h-3.7l2.9-13.9c0.3-1.4,0.4-2.3,0.4-3c0-0.7-0.3-1.4-0.8-1.8
		c-0.5-0.4-1.2-0.7-2.2-0.7c-1.9,0-3.5,0.7-5,2s-2.6,3.7-3.3,7.1l-2.2,10.2L258,197.4L258,197.4z"/>
	<path class="st5" d="M281.8,189.9l3.7-0.3c0,1.1,0.1,2,0.5,2.7c0.3,0.8,1,1.4,1.8,1.9c0.8,0.5,1.9,0.7,3.1,0.7c1.6,0,2.9-0.3,3.7-1
		s1.2-1.5,1.2-2.3c0-0.7-0.3-1.2-0.7-1.8c-0.5-0.5-1.8-1.2-3.7-2.2c-1.9-0.8-3.3-1.5-3.8-1.8c-1-0.5-1.6-1.2-2-2s-0.7-1.6-0.7-2.6
		c0-1.8,0.7-3.3,2-4.5c1.4-1.2,3.3-1.9,5.7-1.9c2.7,0,4.8,0.7,6.3,1.9c1.5,1.2,2.2,3,2.2,5l-3.7,0.3c0-1.4-0.5-2.3-1.4-3.1
		s-2.2-1.1-3.7-1.1c-1.2,0-2.3,0.3-3,0.8c-0.7,0.5-1.1,1.2-1.1,1.9s0.3,1.2,1,1.8c0.4,0.4,1.5,1,3.1,1.6c2.9,1.2,4.6,2.2,5.5,2.9
		c1.2,1.1,1.8,2.6,1.8,4.1c0,1.1-0.3,2.2-1,3.1c-0.7,1.1-1.6,1.9-3,2.5s-3,1-4.8,1c-2.6,0-4.6-0.7-6.4-1.9
		C282.6,194.8,281.8,192.8,281.8,189.9z"/>
	<path class="st5" d="M311.2,194.4l-0.7,3c-1,0.3-1.8,0.4-2.6,0.4c-1.5,0-2.7-0.4-3.5-1.1c-0.7-0.5-1-1.2-1-2.2
		c0-0.5,0.1-1.6,0.5-3.3l2.6-12.7h-3l0.5-2.9h3l1.1-5.3l4.2-2.6l-1.6,7.9h3.7l-0.7,2.9h-3.7l-2.6,12.1c-0.3,1.5-0.4,2.5-0.4,2.7
		c0,0.4,0.1,0.8,0.4,1c0.3,0.3,0.7,0.4,1.2,0.4C309.9,194.7,310.5,194.6,311.2,194.4z"/>
	<path class="st5" d="M314.2,197.4l4.5-21.8h3.3l-1,4.5c1.1-1.6,2.2-3,3.3-3.7c1.1-0.8,2.2-1.2,3.3-1.2c0.7,0,1.6,0.3,2.7,0.8
		l-1.5,3.4c-0.7-0.4-1.4-0.7-2.2-0.7c-1.4,0-2.6,0.7-4,2.2s-2.5,4.1-3.3,7.8l-1.9,8.7L314.2,197.4L314.2,197.4z"/>
	<path class="st5" d="M343.1,193.5c-2.6,3-5.3,4.5-8,4.5c-1.6,0-3-0.5-4.1-1.5c-1.1-1-1.5-2.2-1.5-3.5c0-1,0.3-2.5,0.7-4.8l2.6-12.5
		h3.7l-2.9,13.9c-0.3,1.2-0.4,2-0.4,2.7c0,0.8,0.3,1.5,0.7,1.9c0.5,0.4,1.2,0.7,2.2,0.7c1.1,0,2-0.3,3-0.8c1-0.5,1.9-1.2,2.6-2
		c0.7-0.8,1.4-1.9,1.8-3c0.3-0.8,0.7-2,1.1-4l1.9-9.4h3.7l-4.5,21.8h-3.4L343.1,193.5z"/>
	<path class="st5" d="M366.7,189.5l3.7,0.4c-1,2.7-2.3,4.8-4,6.1c-1.8,1.4-3.7,2-5.9,2c-2.3,0-4.4-0.8-5.7-2.3
		c-1.5-1.5-2.2-3.7-2.2-6.4c0-2.3,0.4-4.8,1.4-7.1c1-2.3,2.3-4.1,4.1-5.3s3.8-1.8,6-1.8c2.3,0,4.2,0.7,5.6,2c1.4,1.4,2,3.1,2,5.3
		l-3.7,0.3c0-1.4-0.4-2.5-1.2-3.3c-0.8-0.8-1.8-1.2-3.1-1.2c-1.5,0-2.7,0.4-4,1.4c-1.1,1-1.9,2.3-2.6,4.4c-0.7,1.9-1,3.8-1,5.6
		c0,1.9,0.4,3.3,1.2,4.2c0.8,1,1.8,1.4,3,1.4s2.3-0.4,3.4-1.4C365,192.9,366.1,191.3,366.7,189.5z"/>
	<path class="st5" d="M381.5,194.4l-0.7,3c-1,0.3-1.8,0.4-2.6,0.4c-1.5,0-2.7-0.4-3.5-1.1c-0.7-0.5-1-1.2-1-2.2
		c0-0.5,0.1-1.6,0.5-3.3l2.6-12.7h-3l0.5-2.9h3l1.1-5.3l4.2-2.6l-1.6,7.9h3.7l-0.7,2.9h-3.7l-2.6,12.1c-0.3,1.5-0.4,2.5-0.4,2.7
		c0,0.4,0.1,0.8,0.4,1c0.3,0.3,0.7,0.4,1.2,0.4C380.1,194.7,380.8,194.6,381.5,194.4z"/>
	<path class="st5" d="M384.3,197.4l4.5-21.8h3.7l-4.5,21.8H384.3z M389.8,171.5l0.8-4.2h3.7l-0.8,4.2H389.8z"/>
	<path class="st5" d="M399.3,197.4l-3.5-21.8h3.7l1.9,12c0.3,1.4,0.4,3.4,0.8,6.4c0.7-1.5,1.6-3.3,2.7-5.3l7.4-13.1h4l-12.5,21.8
		H399.3z"/>
	<path class="st5" d="M431,190.1l3.7,0.4c-0.5,1.8-1.8,3.5-3.5,5.2c-1.9,1.6-4.1,2.5-6.7,2.5c-1.6,0-3.1-0.4-4.5-1.1
		s-2.3-1.8-3.1-3.3c-0.8-1.5-1.1-3-1.1-4.9c0-2.5,0.5-4.6,1.6-7c1.1-2.2,2.6-4,4.2-5c1.8-1.1,3.7-1.6,5.7-1.6c2.6,0,4.6,0.8,6.3,2.5
		c1.5,1.6,2.3,3.8,2.3,6.7c0,1.1-0.1,2.2-0.3,3.3h-16.1c0,0.4-0.1,0.8-0.1,1.1c0,2,0.4,3.5,1.4,4.6c1,1.1,2,1.6,3.4,1.6
		c1.2,0,2.6-0.4,3.8-1.2C429.2,192.9,430.2,191.6,431,190.1z M420.1,184.6h12.3c0-0.4,0-0.7,0-0.8c0-1.9-0.4-3.3-1.4-4.2
		c-1-1-2.2-1.5-3.5-1.5c-1.6,0-3,0.5-4.4,1.6C421.7,180.8,420.8,182.4,420.1,184.6z"/>
	<path class="st5" d="M450.4,189.9l3.7-0.3c0,1.1,0.1,2,0.5,2.7c0.3,0.8,1,1.4,1.8,1.9c0.8,0.5,1.9,0.7,3.1,0.7c1.6,0,2.9-0.3,3.7-1
		c0.8-0.7,1.2-1.5,1.2-2.3c0-0.7-0.3-1.2-0.7-1.8c-0.5-0.5-1.8-1.2-3.7-2.2c-1.9-0.8-3.3-1.5-3.8-1.8c-1-0.5-1.6-1.2-2-2
		s-0.7-1.6-0.7-2.6c0-1.8,0.7-3.3,2-4.5c1.4-1.2,3.3-1.9,5.7-1.9c2.7,0,4.8,0.7,6.3,1.9c1.5,1.2,2.2,3,2.2,5l-3.7,0.3
		c0-1.4-0.5-2.3-1.4-3.1c-0.8-0.8-2.2-1.1-3.7-1.1c-1.2,0-2.3,0.3-3,0.8c-0.7,0.5-1.1,1.2-1.1,1.9s0.3,1.2,1,1.8
		c0.4,0.4,1.5,1,3.1,1.6c2.9,1.2,4.6,2.2,5.5,2.9c1.2,1.1,1.8,2.6,1.8,4.1c0,1.1-0.3,2.2-1,3.1c-0.7,1.1-1.6,1.9-3,2.5s-3,1-4.8,1
		c-2.6,0-4.6-0.7-6.4-1.9C451,194.8,450.2,192.8,450.4,189.9z"/>
	<path class="st5" d="M471.8,189.1c0-4.2,1.2-7.8,3.8-10.6c2-2.3,4.8-3.4,8.2-3.4c2.6,0,4.8,0.8,6.4,2.5s2.5,3.8,2.5,6.7
		c0,2.5-0.5,4.9-1.5,7c-1,2.2-2.5,3.8-4.4,4.9c-1.9,1.1-3.8,1.8-5.9,1.8c-1.6,0-3.3-0.4-4.6-1.1c-1.4-0.7-2.5-1.8-3.1-3.1
		C472,192.4,471.8,190.9,471.8,189.1z M475.5,188.8c0,2,0.5,3.7,1.5,4.6c1,1,2.2,1.6,3.8,1.6c0.8,0,1.6-0.1,2.3-0.5
		c0.7-0.4,1.5-0.8,2.2-1.5c0.7-0.7,1.2-1.4,1.8-2.3c0.5-1,0.8-1.8,1.1-2.7c0.4-1.4,0.7-2.7,0.7-4c0-1.9-0.5-3.5-1.5-4.6
		c-1-1.1-2.2-1.6-3.8-1.6c-1.2,0-2.2,0.3-3.1,0.8c-1,0.5-1.8,1.4-2.6,2.5c-0.8,1.1-1.4,2.3-1.8,3.7
		C475.6,186.4,475.5,187.6,475.5,188.8z"/>
	<path class="st5" d="M494.3,197.4l6.3-30.1h3.7l-6.3,30.1H494.3z"/>
	<path class="st5" d="M518.8,193.5c-2.6,3-5.3,4.5-8,4.5c-1.6,0-3-0.5-4.1-1.5c-1.1-1-1.5-2.2-1.5-3.5c0-1,0.3-2.5,0.7-4.8l2.6-12.5
		h3.7l-2.9,13.9c-0.3,1.2-0.4,2-0.4,2.7c0,0.8,0.3,1.5,0.7,1.9c0.5,0.4,1.2,0.7,2.2,0.7c1.1,0,2-0.3,3-0.8s1.9-1.2,2.6-2
		c0.7-0.8,1.4-1.9,1.8-3c0.3-0.8,0.7-2,1.1-4l1.9-9.4h3.7l-4.5,21.8H518L518.8,193.5z"/>
	<path class="st5" d="M536,194.4l-0.7,3c-1,0.3-1.8,0.4-2.6,0.4c-1.5,0-2.7-0.4-3.5-1.1c-0.7-0.5-1-1.2-1-2.2c0-0.5,0.1-1.6,0.5-3.3
		l2.6-12.7h-3l0.5-2.9h3l1.1-5.3l4.2-2.6l-1.6,7.9h3.7l-0.7,2.9h-3.7l-2.6,12.1c-0.3,1.5-0.4,2.5-0.4,2.7c0,0.4,0.1,0.8,0.4,1
		c0.3,0.3,0.7,0.4,1.2,0.4C534.7,194.7,535.3,194.6,536,194.4z"/>
	<path class="st5" d="M538.9,197.4l4.5-21.8h3.7l-4.5,21.8H538.9z M544.3,171.5l0.8-4.2h3.7l-0.8,4.2H544.3z"/>
	<path class="st5" d="M549,189.1c0-4.2,1.2-7.8,3.8-10.6c2-2.3,4.8-3.4,8.2-3.4c2.6,0,4.8,0.8,6.4,2.5c1.6,1.6,2.5,3.8,2.5,6.7
		c0,2.5-0.5,4.9-1.5,7c-1,2.2-2.5,3.8-4.4,4.9c-1.9,1.1-3.8,1.8-5.9,1.8c-1.6,0-3.3-0.4-4.6-1.1c-1.4-0.7-2.5-1.8-3.1-3.1
		C549.4,192.4,549,190.9,549,189.1z M552.8,188.8c0,2,0.5,3.7,1.5,4.6c1,1.1,2.2,1.6,3.8,1.6c0.8,0,1.6-0.1,2.3-0.5
		c0.7-0.4,1.5-0.8,2.2-1.5c0.7-0.7,1.2-1.4,1.8-2.3c0.4-0.8,0.8-1.8,1.1-2.7c0.4-1.4,0.7-2.7,0.7-4c0-1.9-0.5-3.5-1.5-4.6
		c-1-1.1-2.2-1.6-3.8-1.6c-1.2,0-2.2,0.3-3.1,0.8s-1.8,1.4-2.6,2.5c-0.8,1.1-1.4,2.3-1.8,3.7C552.9,186.4,552.8,187.6,552.8,188.8z"
		/>
	<path class="st5" d="M571.8,197.4l4.5-21.8h3.4l-0.8,3.8c1.5-1.5,2.9-2.6,4.1-3.3c1.2-0.7,2.6-1.1,4-1.1c1.8,0,3.1,0.5,4.2,1.5
		c1.1,1,1.5,2.2,1.5,3.8c0,0.8-0.1,2-0.5,3.8l-2.7,13.2h-3.7l2.9-13.9c0.3-1.4,0.4-2.3,0.4-3c0-0.7-0.3-1.4-0.8-1.8
		c-0.5-0.4-1.2-0.7-2.2-0.7c-1.9,0-3.5,0.7-5,2c-1.5,1.4-2.6,3.7-3.3,7.1l-2.2,10.2L571.8,197.4L571.8,197.4z"/>
	<path class="st5" d="M595.6,189.9l3.7-0.3c0,1.1,0.1,2,0.5,2.7c0.3,0.8,1,1.4,1.8,1.9c0.8,0.5,1.9,0.7,3.1,0.7c1.6,0,2.9-0.3,3.7-1
		c0.8-0.7,1.2-1.5,1.2-2.3c0-0.7-0.3-1.2-0.7-1.8c-0.5-0.5-1.8-1.2-3.7-2.2c-1.9-0.8-3.3-1.5-3.8-1.8c-1-0.5-1.6-1.2-2-2
		s-0.7-1.6-0.7-2.6c0-1.8,0.7-3.3,2-4.5c1.4-1.2,3.3-1.9,5.7-1.9c2.7,0,4.8,0.7,6.3,1.9c1.5,1.2,2.2,3,2.2,5l-3.7,0.3
		c0-1.4-0.5-2.3-1.4-3.1s-2.2-1.1-3.7-1.1c-1.2,0-2.3,0.3-3,0.8c-0.7,0.5-1.1,1.2-1.1,1.9s0.3,1.2,1,1.8c0.4,0.4,1.5,1,3.1,1.6
		c2.9,1.2,4.6,2.2,5.5,2.9c1.2,1.1,1.8,2.6,1.8,4.1c0,1.1-0.3,2.2-1,3.1c-0.7,1.1-1.6,1.9-3,2.5c-1.4,0.5-3,1-4.8,1
		c-2.6,0-4.6-0.7-6.4-1.9C596.3,194.8,595.5,192.8,595.6,189.9z"/>
</g>
</svg>
