<svg xmlns="http://www.w3.org/2000/svg" width="1432" height="400" viewBox="0 0 1432 400" version="1.1"><path d="M 179 98.419 C 163.496 100.823, 146.964 107.569, 131.758 117.697 C 123.379 123.279, 109.761 135.804, 110.598 137.159 C 111.310 138.310, 109.068 141.160, 107.980 140.488 C 107.544 140.218, 107.403 140.824, 107.667 141.834 C 107.946 142.903, 107.070 144.951, 105.574 146.730 C 104.158 148.412, 103 150.337, 103 151.008 C 103 151.679, 102.129 153.864, 101.065 155.864 C 98.372 160.926, 96.593 170.957, 96.607 181 C 96.620 190.445, 98.625 202.693, 100.535 205 C 101.218 205.825, 102.081 207.931, 102.453 209.681 C 102.825 211.430, 103.775 213.398, 104.564 214.053 C 105.354 214.709, 106 215.830, 106 216.546 C 106 217.261, 107.125 219.184, 108.500 220.818 C 109.875 222.452, 111 224.230, 111 224.769 C 111 228.015, 136.381 248.985, 140.334 249.006 C 140.975 249.010, 142.850 249.743, 144.500 250.636 C 147.508 252.265, 159.045 254.682, 168.609 255.687 C 171.668 256.009, 176.563 255.577, 180.807 254.612 C 184.705 253.725, 189.213 253, 190.825 253 C 192.437 253, 194.291 252.354, 194.947 251.564 C 195.602 250.775, 197.570 249.816, 199.319 249.434 C 201.069 249.052, 203.573 247.898, 204.885 246.870 C 206.197 245.841, 207.725 245, 208.282 245 C 211.343 245, 234 222.819, 234 219.823 C 234 219.269, 234.900 217.671, 236 216.273 C 237.100 214.874, 238 212.946, 238 211.988 C 238 211.029, 238.619 209.731, 239.375 209.104 C 240.132 208.476, 241.046 206.114, 241.407 203.854 C 241.769 201.595, 242.725 198.803, 243.532 197.651 C 245.593 194.709, 245.635 168.129, 243.586 164.166 C 242.808 162.662, 241.843 159.646, 241.441 157.465 C 240.483 152.269, 237.766 148.644, 236.071 150.303 C 235.127 151.226, 235.133 150.864, 236.096 148.723 C 237.103 146.486, 237.096 145.708, 236.060 144.723 C 235.028 143.740, 234.898 143.909, 235.402 145.583 C 235.844 147.053, 235.583 147.667, 234.514 147.667 C 233.048 147.667, 232.609 146.758, 232.906 144.336 C 233.044 143.202, 223.165 133, 221.928 133 C 221.586 133, 220.268 132.100, 219 131 C 217.732 129.900, 216.353 129, 215.935 129 C 214.902 129, 215.344 131.495, 216.671 133.149 C 217.268 133.892, 218.065 135.510, 218.443 136.744 C 219.009 138.590, 218.824 138.870, 217.401 138.324 C 216.182 137.856, 215.898 138.025, 216.436 138.897 C 217.578 140.745, 213.906 139.867, 211.535 137.725 C 210.454 136.749, 209.086 136.137, 208.493 136.364 C 207.901 136.592, 206.562 136.153, 205.517 135.389 C 200.962 132.058, 202.688 134.567, 209.942 141.821 C 215.212 147.091, 217.995 150.700, 218.475 152.888 C 218.868 154.674, 219.800 156.370, 220.546 156.656 C 221.293 156.943, 222.209 159.275, 222.582 161.839 C 222.955 164.402, 223.876 167.715, 224.630 169.200 C 226.515 172.917, 226.424 189.634, 224.500 193 C 223.714 194.375, 223.055 196.902, 223.035 198.615 C 223.016 200.328, 222.100 202.874, 221 204.273 C 219.900 205.671, 219 207.327, 219 207.952 C 219 209.409, 209.770 220.521, 206.215 223.344 C 200.599 227.804, 197.114 229.932, 194.350 230.590 C 192.783 230.963, 190.665 231.996, 189.644 232.884 C 186.893 235.278, 155.894 235.261, 151.500 232.863 C 149.850 231.962, 147.375 230.703, 146 230.064 C 144.625 229.425, 142.150 228.196, 140.500 227.333 C 136.847 225.423, 125 214.010, 125 212.401 C 125 211.765, 124.369 210.721, 123.598 210.081 C 122.827 209.442, 121.892 207.699, 121.520 206.209 C 121.148 204.719, 120.141 202.720, 119.281 201.766 C 115.498 197.567, 115.479 163.509, 119.258 159.223 C 120.094 158.275, 121.095 156.007, 121.483 154.182 C 121.871 152.358, 122.821 150.622, 123.594 150.325 C 124.367 150.029, 125 149.130, 125 148.329 C 125 146.763, 131.259 138.811, 137.062 133.002 C 151.689 118.363, 182.864 109.376, 201.032 114.560 C 204.039 115.418, 207.398 116.113, 208.496 116.104 C 211.369 116.080, 220.858 118.962, 221.541 120.066 C 221.858 120.580, 222.879 121.007, 223.809 121.015 C 224.739 121.023, 226.625 121.679, 228 122.472 C 231.601 124.549, 235.213 126.120, 237.407 126.562 C 241.971 127.481, 257.253 141.360, 263.838 150.567 C 277.284 169.365, 284.755 195.610, 282.208 215.098 C 280.004 231.954, 272.644 251.457, 264.203 262.808 C 255.158 274.970, 237.440 290.315, 223.724 297.865 C 208.452 306.272, 195.387 310.352, 179 311.832 C 140.930 315.270, 109.554 302.152, 78.459 269.796 C 61.587 252.241, 50.536 234.154, 43.574 212.700 C 39.233 199.326, 37.634 190.496, 37.560 179.500 C 37.480 167.482, 38.554 153.719, 39.754 151.388 C 40.289 150.350, 41.022 146.865, 41.384 143.645 C 41.746 140.425, 42.566 136.825, 43.205 135.645 C 44.668 132.947, 45.944 125, 44.914 125 C 43.971 125, 39.814 133.724, 37.529 140.500 C 25.592 175.893, 30.617 215.523, 52.174 256 C 65.022 280.125, 82.061 297.239, 106.384 310.449 C 127.452 321.892, 145.003 325.605, 173.864 324.727 C 197.338 324.012, 208.876 321.058, 230.139 310.317 C 266.517 291.940, 288.586 261.171, 293.970 221.324 C 295.139 212.673, 295.531 194.203, 294.634 190 C 286.815 153.355, 272.642 130.456, 247.720 114.202 C 228.142 101.434, 200.505 95.086, 179 98.419 M 195.947 129.901 C 197.272 132.378, 200.658 134.363, 201.428 133.116 C 202.031 132.140, 200.743 130.911, 197.174 129.057 C 195.005 127.930, 194.923 127.987, 195.947 129.901 M 236.112 152.500 C 236.063 153.050, 236.751 155.975, 237.640 159 C 238.550 162.097, 239.581 170.836, 239.999 179 L 240.742 193.500 240.543 178.500 C 240.380 166.289, 239.958 162.384, 238.271 157.500 C 237.132 154.200, 236.160 151.950, 236.112 152.500" stroke="none" fill="#ff0c0b" fill-rule="evenodd"/><path d="M 140.406 0.994 C 139.860 1.540, 136.507 2.278, 132.956 2.634 C 129.405 2.989, 125.359 3.853, 123.965 4.554 C 122.571 5.255, 119.646 6.143, 117.465 6.527 C 115.284 6.910, 112.593 7.790, 111.485 8.481 C 110.377 9.172, 107.902 10.080, 105.985 10.499 C 104.068 10.918, 101.427 12.102, 100.115 13.130 C 98.803 14.159, 96.849 15, 95.773 15 C 94.696 15, 92.671 15.900, 91.273 17 C 89.874 18.100, 87.961 19, 87.020 19 C 86.080 19, 84.495 19.900, 83.500 21 C 82.505 22.100, 81.055 23, 80.278 23 C 78.978 23, 73.310 26.788, 70.179 29.750 C 69.452 30.438, 68.439 31, 67.929 31 C 67.418 31, 66.213 31.689, 65.250 32.531 C 64.288 33.373, 61.265 35.961, 58.534 38.281 C 48.905 46.462, 34.845 61.590, 29.752 69.250 C 26.918 73.513, 24.239 77, 23.800 77 C 23.360 77, 23 77.614, 23 78.365 C 23 79.116, 22.128 80.839, 21.062 82.194 C 19.996 83.549, 18.813 85.896, 18.433 87.410 C 18.053 88.923, 17.153 90.388, 16.432 90.664 C 15.712 90.941, 14.820 92.592, 14.450 94.334 C 14.080 96.075, 13.209 98.175, 12.515 99 C 11.821 99.825, 10.959 102.142, 10.600 104.150 C 10.241 106.157, 9.333 108.309, 8.582 108.932 C 7.832 109.555, 6.904 112.187, 6.520 114.782 C 6.136 117.377, 5.247 120.175, 4.545 121 C 3.842 121.825, 2.980 125.405, 2.628 128.956 C 2.276 132.507, 1.540 135.860, 0.994 136.406 C -0.350 137.750, -0.354 189.714, 0.990 190.167 C 1.535 190.350, 2.278 193.351, 2.642 196.836 C 3.005 200.320, 4.135 204.803, 5.151 206.797 C 6.168 208.791, 7 211.623, 7 213.089 C 7 214.555, 7.628 216.276, 8.395 216.913 C 9.163 217.550, 10.100 219.719, 10.478 221.732 C 10.855 223.746, 12.027 226.491, 13.082 227.832 C 14.137 229.173, 15 230.926, 15 231.727 C 15 232.529, 15.900 234.329, 17 235.727 C 18.100 237.126, 19 239.109, 19 240.135 C 19 241.161, 19.444 242, 19.987 242 C 20.529 242, 21.584 243.462, 22.332 245.250 C 23.079 247.037, 24.435 249.118, 25.345 249.872 C 26.255 250.627, 27 251.713, 27 252.285 C 27 252.857, 29.700 256.589, 33 260.579 C 36.300 264.568, 39 268.077, 39 268.375 C 39 268.674, 41.981 271.974, 45.624 275.709 C 49.267 279.444, 53.429 284.255, 54.874 286.400 C 56.318 288.544, 57.950 290.959, 58.500 291.766 C 64.472 300.523, 81.460 317.046, 91.073 323.448 C 93.508 325.069, 95.950 326.874, 96.500 327.460 C 97.050 328.045, 100.425 330.016, 104 331.841 C 107.575 333.665, 111.175 335.540, 112 336.008 C 115.451 337.965, 122.720 340.871, 125.681 341.477 C 127.430 341.835, 129.398 342.775, 130.053 343.564 C 130.709 344.354, 132.569 345, 134.187 345 C 135.805 345, 139.238 345.863, 141.815 346.917 C 144.392 347.972, 149.075 349.099, 152.222 349.423 C 155.369 349.746, 160.526 350.683, 163.682 351.505 C 172.667 353.846, 198.513 353.554, 208.500 351 C 212.801 349.900, 218.385 348.986, 220.910 348.968 C 223.434 348.951, 226.367 348.281, 227.426 347.479 C 228.485 346.678, 231.515 345.735, 234.159 345.385 C 236.802 345.034, 239.460 344.151, 240.064 343.422 C 240.669 342.694, 243.121 341.804, 245.514 341.446 C 247.907 341.087, 250.090 340.207, 250.365 339.491 C 250.640 338.775, 252.358 337.871, 254.182 337.483 C 256.007 337.095, 258.176 336.184, 259.002 335.458 C 259.828 334.733, 261.628 333.659, 263.002 333.072 C 264.376 332.485, 266.400 331.447, 267.500 330.764 C 277.393 324.628, 280.220 322.572, 280.722 321.150 C 281.042 320.243, 281.972 318.722, 282.788 317.771 C 283.604 316.820, 279.868 318.987, 274.485 322.586 C 269.102 326.185, 261.263 330.857, 257.064 332.968 C 243.510 339.783, 223.477 345.611, 209.354 346.850 C 201.927 347.501, 201 347.397, 201 345.914 C 201 344.996, 201.663 343.695, 202.474 343.022 C 204.487 341.351, 205.516 335.327, 204.084 333.601 C 203.231 332.573, 203.228 331.594, 204.073 329.738 C 204.928 327.863, 204.911 326.702, 204.003 325.006 C 203.342 323.770, 203.189 322.998, 203.663 323.292 C 204.137 323.585, 205.644 323.167, 207.013 322.364 L 209.500 320.904 206.500 321.434 C 204.850 321.726, 199 322.842, 193.500 323.915 C 179.805 326.586, 149.863 326.172, 136.787 323.130 C 113.391 317.688, 98.396 311.248, 73.691 296.033 C 64.177 290.173, 60.283 286.934, 49.907 276.248 C 34.864 260.756, 25.865 248.414, 18.008 232.500 C 8.637 213.521, 1.966 186.855, 2.027 168.620 C 2.095 148.323, 6.010 129.284, 8.309 138.074 C 8.607 139.215, 9.785 140.393, 10.926 140.691 C 12.067 140.989, 13 141.574, 13 141.990 C 13 142.407, 14.828 144.717, 17.061 147.124 C 21.085 151.459, 24.178 156.253, 24.620 158.842 C 25.387 163.321, 30 158.726, 30 153.483 C 30 151.365, 30.407 150.134, 30.989 150.493 C 31.540 150.834, 31.731 150.464, 31.421 149.656 C 31.113 148.852, 31.759 147.582, 32.874 146.801 C 34.008 146.007, 36.028 141.979, 37.516 137.548 C 40.235 129.448, 42.574 125, 44.115 125 C 45.497 125, 49 121.153, 49 119.635 C 49 118.884, 49.900 117.126, 51 115.727 C 52.100 114.329, 53 112.645, 53 111.987 C 53 110.885, 55.667 107.074, 59.463 102.750 C 60.309 101.787, 61 100.485, 61 99.857 C 61 98.199, 82.665 77, 84.359 77 C 85.144 77, 86.045 76.325, 86.362 75.500 C 86.678 74.675, 87.557 74, 88.314 74 C 89.071 74, 90.494 73.111, 91.477 72.026 C 92.460 70.940, 94.217 69.753, 95.382 69.388 C 96.547 69.023, 98.573 67.887, 99.885 66.862 C 101.197 65.838, 103.054 65, 104.012 65 C 104.971 65, 106.274 64.375, 106.908 63.611 C 107.542 62.847, 110.045 61.722, 112.471 61.112 C 114.897 60.501, 117.143 59.577, 117.464 59.058 C 117.784 58.540, 120.174 57.806, 122.773 57.428 C 125.373 57.050, 128.770 56.095, 130.322 55.307 C 131.875 54.519, 137.725 53.496, 143.322 53.035 C 148.920 52.573, 154.767 51.702, 156.315 51.098 C 159.867 49.713, 169.426 49.678, 174.007 51.034 C 175.928 51.603, 181.908 52.464, 187.295 52.949 C 192.683 53.433, 198.083 54.472, 199.295 55.258 C 200.508 56.044, 203.525 57.005, 206 57.394 C 208.475 57.783, 211.407 58.694, 212.515 59.419 C 213.623 60.144, 215.954 61.051, 217.696 61.433 C 219.437 61.816, 221.374 62.746, 222 63.500 C 222.626 64.254, 224.426 65.154, 226 65.500 C 227.574 65.846, 229.398 66.775, 230.053 67.564 C 230.709 68.354, 231.830 69, 232.546 69 C 233.261 69, 235.184 70.125, 236.818 71.500 C 238.452 72.875, 240.127 74, 240.541 74 C 243.039 74, 260.277 90.114, 268.363 100.009 C 275.237 108.420, 276.397 110.101, 278.534 114.750 C 279.355 116.538, 280.471 118, 281.013 118 C 281.556 118, 282 118.839, 282 119.865 C 282 120.891, 282.863 122.827, 283.918 124.168 C 284.973 125.509, 286.148 128.270, 286.529 130.303 C 286.910 132.336, 287.592 134, 288.044 134 C 288.496 134, 289.162 134.934, 289.524 136.075 C 289.886 137.217, 290.375 137.958, 290.611 137.722 C 290.847 137.487, 289.391 133.357, 287.377 128.544 C 284.561 121.819, 284.010 119.612, 284.992 119.005 C 285.986 118.391, 286.021 117.500, 285.152 115.007 C 284.281 112.507, 284.306 111.910, 285.267 112.304 C 289.952 114.221, 290 114.219, 290 112.166 C 290 111.040, 290.503 109.807, 291.118 109.427 C 291.829 108.987, 292.013 107.111, 291.623 104.263 C 291.113 100.549, 291.263 99.887, 292.505 100.363 C 293.512 100.750, 294 100.310, 294 99.016 C 294 97.959, 294.402 96.060, 294.894 94.797 C 295.385 93.534, 296.604 89.913, 297.601 86.750 C 298.598 83.588, 299.735 81, 300.128 81 C 300.520 81, 301.142 79.631, 301.509 77.958 C 301.877 76.285, 303.332 73.846, 304.743 72.537 L 307.310 70.158 304.076 65.118 C 300.771 59.968, 297.949 56.645, 288.734 47.052 L 283.500 41.604 288.654 45.815 C 303.429 57.886, 319.869 80.188, 330.379 102.417 C 334.037 110.153, 340.826 129.173, 343.028 137.851 C 343.635 140.244, 344.403 141.930, 344.735 141.599 C 345.066 141.267, 346.238 141.784, 347.338 142.748 C 349.263 144.433, 349.308 144.424, 348.535 142.500 C 345.931 136.029, 345.083 133.226, 345.044 130.961 C 345.020 129.565, 344.100 126.658, 343 124.500 C 341.900 122.342, 341 119.579, 341 118.360 C 341 117.141, 340.380 115.523, 339.622 114.765 C 338.864 114.007, 337.905 111.837, 337.492 109.943 C 337.078 108.050, 335.898 105.427, 334.870 104.115 C 333.841 102.803, 333 101.074, 333 100.273 C 333 99.471, 332.100 97.671, 331 96.273 C 329.900 94.874, 329 92.891, 329 91.865 C 329 90.839, 328.556 90, 328.013 90 C 327.471 90, 326.416 88.538, 325.668 86.750 C 324.921 84.963, 323.565 82.882, 322.655 82.128 C 321.745 81.373, 321 80.342, 321 79.837 C 321 78.526, 316.821 72.749, 314.750 71.198 C 313.788 70.477, 313 69.337, 313 68.666 C 313 67.994, 312.212 66.725, 311.250 65.845 C 310.288 64.965, 307.925 62.318, 306 59.962 C 303.032 56.331, 298.878 52.165, 286.845 40.750 C 285.830 39.788, 284.725 39, 284.389 39 C 284.053 39, 281.690 37.313, 279.139 35.250 C 272.862 30.176, 268.264 27, 267.195 27 C 266.708 27, 265.495 26.100, 264.500 25 C 263.505 23.900, 262.145 23, 261.480 23 C 260.814 23, 259.161 22.128, 257.806 21.062 C 256.451 19.996, 254.159 18.827, 252.712 18.464 C 251.266 18.101, 249.582 17.202, 248.972 16.466 C 248.361 15.730, 246.430 14.825, 244.681 14.453 C 242.931 14.081, 240.825 13.214, 240 12.526 C 239.175 11.838, 236.955 10.982, 235.066 10.625 C 233.177 10.268, 230.927 9.367, 230.066 8.623 C 229.205 7.878, 226.359 6.992, 223.742 6.653 C 221.126 6.314, 217.976 5.407, 216.742 4.637 C 215.509 3.868, 211.595 2.957, 208.044 2.613 C 204.493 2.269, 201.140 1.540, 200.594 0.994 C 199.249 -0.351, 141.751 -0.351, 140.406 0.994 M 146.500 73.076 C 143.750 73.521, 138.575 74.204, 135 74.595 C 131.425 74.985, 126.932 76.136, 125.015 77.152 C 123.098 78.168, 120.509 79, 119.261 79 C 118.014 79, 115.314 79.900, 113.261 81 C 111.209 82.100, 108.791 83, 107.887 83 C 106.984 83, 105.699 83.658, 105.032 84.461 C 104.365 85.265, 102.918 86.209, 101.816 86.558 C 98.611 87.576, 90.930 93.078, 91.478 93.965 C 91.753 94.410, 91.222 95.387, 90.297 96.137 C 89.141 97.074, 88.851 97.110, 89.367 96.250 C 89.797 95.535, 89.618 95, 88.951 95 C 86.945 95, 75.802 104.453, 68.744 112.141 C 60.216 121.432, 60.086 121.597, 54.878 129.750 C 53.737 131.537, 52.397 133, 51.901 133 C 51.406 133, 51 133.882, 51 134.961 C 51 136.040, 50.156 137.727, 49.124 138.711 C 46.940 140.794, 45.410 145, 46.838 145 C 47.372 145, 49.052 142.863, 50.569 140.250 C 57.555 128.225, 64.017 119.716, 73.354 110.250 C 78.915 104.612, 83.865 100, 84.355 100 C 84.844 100, 84.627 100.787, 83.872 101.750 C 82.630 103.334, 82.665 103.370, 84.239 102.137 C 85.195 101.387, 85.763 100.425, 85.500 100 C 85.237 99.575, 85.692 98.671, 86.511 97.991 C 88.400 96.423, 88.379 96.872, 86.339 101.628 C 84.018 107.036, 83.615 146.758, 85.791 155.500 C 87.107 160.782, 87.081 161.993, 85.530 167.926 C 82.434 179.776, 81.781 187.897, 82.510 205.500 C 82.897 214.850, 83.218 223.625, 83.224 225 C 83.236 228.107, 85.643 239.931, 86.978 243.442 C 88.184 246.614, 90.012 257.513, 90.593 265 C 90.828 268.025, 91.128 271.400, 91.260 272.500 C 91.399 273.658, 90.974 274.395, 90.250 274.250 C 89.563 274.112, 89 274.503, 89 275.119 C 89 275.734, 87.313 274.981, 85.250 273.446 L 81.500 270.654 84 273.487 C 95.508 286.530, 117.733 301.292, 133.500 306.366 C 140.795 308.714, 154.069 310.897, 165.500 311.628 C 194.607 313.491, 224.288 301.406, 250.135 277.168 C 263.965 264.199, 272.447 250.476, 277.489 232.910 C 280.533 222.309, 282.366 206.625, 281.505 198.560 C 279.859 183.148, 272.387 163.290, 263.933 151.866 C 256.053 141.217, 240.822 126.997, 237.300 127.001 C 236.574 127.001, 243.453 133.537, 244.891 134.214 C 246.440 134.942, 259 151.094, 259 152.358 C 259 153.143, 259.633 154.029, 260.406 154.325 C 261.179 154.622, 262.108 156.214, 262.470 157.863 C 262.832 159.512, 263.763 161.388, 264.538 162.031 C 265.313 162.675, 266.252 164.843, 266.624 166.850 C 266.997 168.858, 267.923 171.456, 268.683 172.624 C 269.443 173.791, 270.331 177.166, 270.657 180.124 C 270.982 183.081, 271.868 187.957, 272.625 190.960 C 274.253 197.425, 274.412 207.120, 272.968 212.007 C 272.401 213.928, 271.474 219.095, 270.907 223.489 C 270.341 227.883, 269.287 232.158, 268.566 232.989 C 267.844 233.820, 266.959 236.142, 266.600 238.150 C 266.241 240.157, 265.328 242.313, 264.572 242.941 C 263.815 243.568, 262.919 245.186, 262.580 246.535 C 262.029 248.733, 255.546 259.002, 252.208 262.966 C 247.448 268.617, 237.519 278, 236.298 278 C 236.018 278, 234.452 279.125, 232.818 280.500 C 231.184 281.875, 229.261 283, 228.546 283 C 227.830 283, 226.709 283.646, 226.053 284.436 C 225.398 285.225, 223.574 286.154, 222 286.500 C 220.426 286.846, 218.612 287.763, 217.969 288.538 C 217.325 289.313, 215.157 290.234, 213.150 290.586 C 211.142 290.937, 208.444 291.888, 207.152 292.699 C 204.477 294.380, 189.884 296.319, 179.500 296.373 C 169.101 296.427, 152.900 294.220, 150.987 292.488 C 150.083 291.670, 148.461 291, 147.383 291 C 146.305 291, 143.658 290.100, 141.500 289 C 139.342 287.900, 137.110 286.999, 136.539 286.999 C 135.967 286.998, 132.908 285.198, 129.739 282.999 C 126.571 280.799, 123.591 279, 123.116 279 C 121.815 279, 102.420 258.588, 100.631 255.335 C 99.774 253.776, 98.388 251.068, 97.551 249.318 C 96.715 247.568, 95.608 245.876, 95.092 245.557 C 94.576 245.238, 93.844 243.520, 93.466 241.739 C 93.087 239.957, 92.119 237.753, 91.315 236.839 C 90.510 235.926, 89.519 232.776, 89.113 229.839 C 88.707 226.903, 87.727 223.375, 86.937 222 C 84.710 218.126, 84.901 187.850, 87.186 182.470 C 88.114 180.286, 89.148 176.399, 89.485 173.832 C 89.822 171.264, 90.751 168.622, 91.549 167.959 C 92.347 167.297, 93 165.746, 93 164.512 C 93 163.279, 93.900 161.126, 95 159.727 C 96.100 158.329, 97 156.631, 97 155.955 C 97 154.283, 104.714 142.935, 111.241 135.004 C 121.286 122.800, 141.220 109.567, 160.090 102.579 C 174.028 97.416, 194.813 95.466, 209.438 97.948 C 212.705 98.503, 215.592 98.741, 215.855 98.478 C 216.118 98.215, 215.978 98, 215.544 98 C 215.110 98, 215.315 97.325, 216 96.500 C 216.901 95.414, 216.925 95, 216.087 95 C 215.256 95, 215.219 94.459, 215.957 93.081 C 216.703 91.687, 216.644 91.006, 215.742 90.592 C 213.159 89.410, 221.741 91.290, 227.235 93.110 C 233.520 95.193, 244.804 100.496, 249.461 103.555 C 251.090 104.625, 252.124 105.015, 251.758 104.421 C 250.742 102.772, 239.558 95.308, 236.874 94.489 C 235.568 94.090, 233.825 93.203, 233 92.519 C 232.175 91.835, 229.968 90.985, 228.095 90.631 C 226.223 90.278, 224.021 89.428, 223.202 88.744 C 222.383 88.060, 218.290 86.988, 214.107 86.361 C 206.132 85.168, 198.538 82.734, 196 80.560 C 195.175 79.853, 192.925 78.986, 191 78.634 C 189.075 78.281, 186.150 77.358, 184.500 76.583 C 181.637 75.237, 157.693 71.783, 153.500 72.111 C 152.400 72.197, 149.250 72.631, 146.500 73.076 M 291.030 142.128 C 291.012 144.292, 291.658 146.301, 292.630 147.108 C 294.102 148.329, 294.188 148.123, 293.515 144.980 C 292.316 139.377, 291.066 137.941, 291.030 142.128 M 294.619 154.551 C 295.683 163.807, 298.689 177.725, 299.144 175.500 C 299.553 173.498, 295.364 150.031, 294.431 149.098 C 294.159 148.825, 294.243 151.279, 294.619 154.551 M 349.500 169.765 C 348.893 170.211, 348.630 175.509, 348.832 183.250 C 349.138 195.037, 349.308 196, 351.082 196 C 352.878 196, 353 195.142, 353 182.500 C 353 169.021, 352.582 167.501, 349.500 169.765 M 407.372 316.208 C 406.961 316.872, 406.625 320.304, 406.625 323.834 C 406.625 332.382, 407.777 333.253, 418.500 332.822 L 426.500 332.500 427.047 366 C 427.348 384.425, 427.686 399.613, 427.797 399.750 C 427.909 399.887, 432.014 400, 436.921 400 L 445.841 400 446.572 396.750 C 447.209 393.920, 447.344 340.887, 446.729 335.500 C 446.518 333.660, 447.233 333.460, 455.650 333 C 466.956 332.382, 469 331.015, 469 324.068 C 469 321.502, 468.307 318.456, 467.443 317.223 C 465.896 315.013, 465.717 315, 437.002 315 C 415.511 315, 407.927 315.309, 407.372 316.208 M 689.972 316.533 C 687.852 319.089, 687.501 327.590, 689.397 330.484 C 690.890 332.762, 691.686 333, 697.823 333 C 701.761 333, 705.103 332.497, 705.800 331.800 C 707.271 330.329, 707.390 319.597, 705.965 316.934 C 705.096 315.311, 703.829 315, 698.087 315 C 693.159 315, 690.889 315.429, 689.972 316.533 M 1127.309 316.250 C 1126.864 316.938, 1126.431 322, 1126.347 327.500 C 1126.150 340.374, 1126.272 339.907, 1123.854 337 C 1121.914 334.667, 1121.163 334.500, 1112.637 334.500 C 1104.449 334.500, 1103.153 334.760, 1100.157 337 C 1096.017 340.096, 1091.105 347.225, 1090.284 351.330 C 1089.945 353.025, 1089.070 355.557, 1088.340 356.956 C 1086.200 361.057, 1086.600 374.260, 1089 378.739 C 1090.100 380.791, 1091 383.339, 1091 384.401 C 1091 385.463, 1091.659 387.045, 1092.464 387.916 C 1093.269 388.787, 1096.049 391.863, 1098.641 394.750 L 1103.355 400 1111.928 399.993 L 1120.500 399.986 1122.879 396.493 C 1125.334 392.887, 1126.887 392.073, 1127.152 394.250 C 1127.236 394.938, 1127.409 395.950, 1127.537 396.500 C 1127.665 397.050, 1127.821 398.063, 1127.885 398.750 C 1127.965 399.625, 1130.188 400, 1135.299 400 L 1142.598 400 1143.799 396.679 C 1144.652 394.320, 1145 382.650, 1145 356.402 C 1145 312.620, 1145.575 315, 1135.002 315 C 1130.593 315, 1127.827 315.449, 1127.309 316.250 M 626.804 321.884 C 624.020 324.371, 623.570 325.438, 623.538 329.631 C 623.502 334.247, 623.331 334.548, 620.165 335.575 C 616.097 336.893, 615.026 338.448, 615.047 343 C 615.067 347.261, 616.763 349.691, 620.039 350.153 L 622.500 350.500 623 369.700 L 623.500 388.900 628 394.401 L 632.500 399.903 642.143 399.951 C 653.203 400.007, 653 400.175, 653 390.977 C 653 384.345, 652.509 383.787, 646 383.026 L 641.500 382.500 641.500 366.500 L 641.500 350.500 645.793 350.337 C 651.522 350.120, 653 348.693, 653 343.378 C 653 337.642, 650.477 335, 645 335 L 641 335 641 328.571 C 641 320.885, 639.611 319, 633.944 319 C 631.045 319, 629.196 319.747, 626.804 321.884 M 486.616 338 C 481.584 342.638, 481 342.815, 481 339.700 C 481 336.176, 479.088 335, 473.357 335 C 464.902 335, 465 334.622, 465 367.157 C 465 382.743, 465.427 395.992, 465.975 397.435 C 466.900 399.866, 467.333 400, 474.274 400 L 481.598 400 482.901 396.398 C 483.773 393.986, 484.142 388.284, 484.018 379.148 C 483.916 371.641, 484.145 363.811, 484.526 361.746 C 485.367 357.194, 489.919 353, 494.020 353 C 498.219 353, 500 349.817, 500 342.313 C 500 337.165, 499.661 335.889, 498.066 335.035 C 494.341 333.042, 491.078 333.887, 486.616 338 M 952.146 334.719 C 950.852 334.965, 948.443 336.704, 946.793 338.583 C 943.282 342.582, 942 342.880, 942 339.700 C 942 338.435, 941.460 336.860, 940.800 336.200 C 939.243 334.643, 929.757 334.643, 928.200 336.200 C 927.321 337.079, 927 345.337, 927 367.118 C 927 383.463, 927.273 397.548, 927.607 398.418 C 928.083 399.659, 929.773 400, 935.438 400 C 941.923 400, 942.779 399.770, 943.808 397.750 C 944.506 396.382, 945.062 388.625, 945.227 377.957 C 945.492 360.938, 945.575 360.320, 948 357.295 C 949.729 355.139, 951.734 353.961, 954.500 353.476 C 960.545 352.415, 961 351.681, 961 342.985 C 961 333.773, 960.346 333.162, 952.146 334.719 M 505.524 337.324 C 504.358 339.102, 503.848 344.217, 503.349 359.111 C 502.734 377.480, 502.821 378.931, 504.888 384.906 C 506.418 389.326, 508.402 392.560, 511.461 395.619 L 515.842 400 524.324 400 L 532.806 400 535.882 396.250 C 538.435 393.138, 539.130 392.755, 539.964 394 C 540.517 394.825, 540.976 396.512, 540.985 397.750 C 540.999 399.879, 541.397 400, 548.393 400 C 554.212 400, 555.915 399.663, 556.393 398.418 C 556.727 397.548, 557 383.630, 557 367.490 C 557 333.688, 557.349 335, 548.363 335 C 538.647 335, 539 334.186, 539 356.589 L 539 376.107 536.250 379.553 C 534.050 382.311, 532.795 383, 529.973 383 C 528.032 383, 525.445 382.299, 524.223 381.443 C 522.049 379.921, 522 379.437, 522 359.378 C 522 347.153, 521.582 338.087, 520.965 336.934 C 520.106 335.329, 518.833 335, 513.488 335 C 507.850 335, 506.856 335.290, 505.524 337.324 M 573.298 338.120 C 570.987 339.741, 567.724 343.100, 566.048 345.584 C 563.501 349.357, 563 351.075, 563 356.028 C 563 361.854, 563.091 362.048, 568.288 367.228 C 573.818 372.741, 578.251 374.588, 591.971 377.097 C 600.773 378.706, 601.212 381.545, 593.080 384.276 C 587.801 386.048, 587.783 386.047, 582.396 383.581 C 579.428 382.222, 577 380.636, 577 380.055 C 577 378.570, 564.701 378.699, 563.200 380.200 C 562.540 380.860, 562 382.846, 562 384.614 C 562 388.273, 566.190 393.201, 572.903 397.439 C 576.643 399.800, 577.850 400, 588.358 400 C 597.269 400, 600.027 399.673, 601 398.500 C 601.685 397.675, 602.772 397, 603.417 397 C 605.426 397, 612.865 389.384, 613.560 386.616 C 613.924 385.167, 614.622 383.734, 615.111 383.432 C 616.547 382.544, 616.132 375.560, 614.396 371.405 C 612.649 367.224, 609.156 363.045, 607.385 363.017 C 606.772 363.008, 605.197 362.168, 603.885 361.151 C 602.573 360.133, 598.978 359.012, 595.896 358.659 C 590.249 358.012, 581.618 354.808, 580.455 352.928 C 579.083 350.708, 582.259 349, 587.758 349 C 592.429 349, 593.644 349.402, 595.712 351.634 C 597.992 354.095, 598.555 354.227, 604.224 353.634 C 607.563 353.285, 610.914 352.486, 611.670 351.859 C 614.624 349.407, 609.542 341.592, 602.399 337.599 C 598.204 335.255, 596.756 335.008, 587.624 335.086 C 578.100 335.168, 577.251 335.348, 573.298 338.120 M 724.615 336.991 C 711.571 345.332, 709.436 359.313, 719.764 368.750 C 722.323 371.087, 725.009 373, 725.733 373 C 726.457 373, 729.611 373.900, 732.740 375 C 735.870 376.100, 740.118 377, 742.180 377 C 746.794 377, 748.986 379.841, 746.218 382.233 C 741.221 386.550, 734.167 386.195, 728.945 381.364 C 726.838 379.414, 725.318 379, 720.267 379 C 713.592 379, 710.996 380.491, 711.005 384.321 C 711.010 386.514, 715.435 391.788, 720.384 395.500 C 721.850 396.600, 723.682 398.063, 724.454 398.750 C 725.413 399.604, 729.701 400, 738 400 C 746.329 400, 750.566 399.607, 751.491 398.750 C 752.233 398.063, 754.029 396.600, 755.483 395.500 C 758.138 393.492, 760.709 391.006, 763.500 387.750 C 764.547 386.529, 765 383.715, 765 378.433 C 765 371.838, 764.668 370.432, 762.416 367.479 C 758.775 362.705, 752.514 359.395, 745.664 358.621 C 742.454 358.259, 738.539 357.296, 736.964 356.481 C 735.388 355.667, 733.163 355, 732.018 355 C 729.109 355, 728.217 352.054, 730.588 350.277 C 731.901 349.292, 734.290 348.965, 738.210 349.232 C 742.875 349.551, 744.387 350.126, 746.471 352.375 C 748.012 354.037, 749.711 354.939, 750.761 354.651 C 751.718 354.389, 754.299 353.869, 756.498 353.496 C 765.283 352.003, 763.544 345.426, 752.202 337.250 C 749.407 335.235, 747.955 335.008, 738.290 335.073 C 729.599 335.132, 726.939 335.505, 724.615 336.991 M 813.761 337.410 C 805.531 342.299, 800 349.666, 800 355.740 C 800 358.436, 799.427 359.877, 798 360.768 C 796.434 361.746, 796 363.100, 796 367.008 C 796 370.667, 796.534 372.534, 798 374 C 799.340 375.340, 800 377.333, 800 380.042 C 800 384.302, 800.389 384.998, 806.032 390.842 C 814.896 400.022, 814.845 400, 826.748 400 L 837.514 400 842.940 395.550 C 845.924 393.102, 848.800 390.289, 849.331 389.300 C 849.862 388.310, 851.129 386.695, 852.148 385.711 C 854.364 383.571, 854.558 379.700, 852.550 377.692 C 851.752 376.895, 849.020 375.930, 846.480 375.549 C 842.003 374.878, 841.710 374.998, 836.973 379.428 C 832.981 383.163, 831.404 384, 828.364 384 C 821.705 384, 818.360 382.145, 817.033 377.716 C 816.271 375.173, 816.191 373.409, 816.810 372.790 C 817.341 372.259, 825.363 371.722, 834.637 371.595 C 845.272 371.449, 852.306 370.928, 853.682 370.183 C 856.413 368.705, 857.433 365.677, 856.061 363.115 C 855.484 362.036, 854.511 358.818, 853.899 355.963 C 852.344 348.716, 848.165 343.009, 840.195 337.250 C 837.444 335.262, 835.941 335.011, 827.290 335.094 C 819.070 335.173, 816.900 335.545, 813.761 337.410 M 873.148 337.438 C 870.755 338.695, 867.267 341.443, 865.398 343.544 C 862.677 346.603, 862 348.202, 862 351.575 C 862 356.427, 862.837 357, 869.927 357 C 874.669 357, 878 354.998, 878 352.147 C 878 349.359, 890.818 347.762, 895.043 350.023 C 897.945 351.576, 899.393 354.822, 897.956 356.553 C 897.306 357.337, 896.359 357.722, 895.852 357.409 C 894.108 356.331, 876.494 359.229, 872.500 361.250 C 863.055 366.031, 859 371.538, 859 379.585 C 859 385.612, 860.342 388.184, 867.433 395.750 L 871.416 400 880.864 400 L 890.312 400 894.233 396 C 896.390 393.800, 898.273 392, 898.419 392 C 898.564 392, 899.223 393.800, 899.882 396 L 901.080 400 908.457 400 C 913.452 400, 915.978 399.597, 916.282 398.750 C 916.528 398.063, 916.525 387.375, 916.276 375 C 915.705 346.736, 915 344.334, 905.195 337.250 C 902.351 335.195, 901.013 335.007, 889.790 335.076 C 879.011 335.142, 876.965 335.433, 873.148 337.438 M 967.060 336.888 C 965.925 339.008, 965.539 393.680, 966.630 397.750 C 967.185 399.821, 967.810 400, 974.495 400 C 981.535 400, 981.793 399.913, 982.937 397.152 C 983.661 395.404, 984.211 387.200, 984.360 375.902 C 984.495 365.781, 984.962 356.724, 985.400 355.775 C 986.368 353.675, 991.487 351, 994.539 351 C 995.845 351, 997.485 352.091, 998.495 353.633 C 999.993 355.918, 1000.200 358.801, 1000.065 375.487 C 999.959 388.661, 1000.289 395.541, 1001.116 397.354 C 1002.259 399.864, 1002.696 400, 1009.641 400 C 1016.521 400, 1016.998 399.856, 1017.560 397.616 C 1017.889 396.305, 1018.010 384.180, 1017.829 370.672 C 1017.508 346.696, 1017.446 346.062, 1015.250 344.017 C 1014.013 342.865, 1013 341.570, 1013 341.139 C 1013 340.708, 1011.160 339.150, 1008.910 337.678 C 1005.420 335.393, 1003.751 335, 997.527 335 C 990.255 335, 990.222 335.012, 986.523 339.106 C 982.583 343.468, 981.354 343.337, 980.827 338.500 C 980.507 335.562, 980.371 335.494, 974.310 335.204 C 968.989 334.949, 967.971 335.186, 967.060 336.888 M 1044.032 336.461 C 1043.365 337.265, 1041.870 338.224, 1040.709 338.592 C 1038.279 339.364, 1031 346.844, 1031 348.571 C 1031 349.209, 1029.987 351.019, 1028.750 352.593 C 1026.681 355.225, 1026.504 356.463, 1026.553 367.978 C 1026.604 379.981, 1026.720 380.666, 1029.370 384.500 C 1032.713 389.338, 1035.899 392.825, 1039.418 395.500 C 1040.866 396.600, 1042.682 398.063, 1043.454 398.750 C 1044.389 399.583, 1048.388 400, 1055.437 400 C 1067.333 400, 1067.182 400.072, 1077.250 389.553 C 1080.876 385.765, 1082 383.839, 1082 381.417 C 1082 377.441, 1080.735 376.431, 1074.651 375.550 C 1069.881 374.859, 1069.734 374.919, 1065.559 379.277 C 1060.979 384.057, 1057.566 385.271, 1052.580 383.894 C 1047.219 382.414, 1045.705 380.720, 1045.598 376.083 L 1045.500 371.863 1063.403 371.602 C 1080.681 371.351, 1081.369 371.262, 1083.153 369.060 C 1085.459 366.211, 1085.452 365.675, 1083 358 C 1081.900 354.557, 1081 351.311, 1081 350.788 C 1081 348.950, 1073.674 340.922, 1069.310 337.977 C 1065.160 335.176, 1064.320 335, 1055.072 335 C 1047.673 335, 1044.945 335.361, 1044.032 336.461 M 690.027 337.467 C 688.654 339.122, 688.128 390.988, 689.426 396.750 L 690.159 400 697.604 400 C 704.676 400, 705.098 399.871, 706.025 397.435 C 706.574 395.991, 707 382.690, 707 367.006 C 707 343.009, 706.782 338.925, 705.429 337.571 C 703.305 335.448, 691.768 335.370, 690.027 337.467 M 819.018 351.980 C 815.662 355.574, 815.182 357.689, 817.613 358.177 C 818.499 358.355, 823.224 358.356, 828.113 358.179 C 837.865 357.827, 838.431 357.338, 834.567 352.613 C 832.679 350.304, 831.190 349.629, 827.122 349.238 C 822.395 348.784, 821.824 348.977, 819.018 351.980 M 1047.658 351.810 C 1046.094 353.456, 1044.969 355.587, 1045.158 356.546 C 1045.457 358.072, 1046.747 358.280, 1055.478 358.210 C 1066.094 358.124, 1067.781 357.308, 1064.210 353.981 C 1063.107 352.953, 1062.023 351.569, 1061.802 350.905 C 1061.579 350.238, 1058.960 349.501, 1055.950 349.258 C 1050.928 348.853, 1050.277 349.053, 1047.658 351.810 M 1112.790 349.788 C 1111.850 350.180, 1109.939 352.750, 1108.545 355.500 C 1105.578 361.349, 1105 372.325, 1107.422 376.846 C 1108.203 378.306, 1109.089 380.288, 1109.390 381.250 C 1110.268 384.059, 1120.675 384.007, 1122.716 381.183 C 1123.385 380.257, 1124.510 378.835, 1125.216 378.022 C 1126.086 377.020, 1126.491 373.242, 1126.472 366.302 C 1126.447 357.177, 1126.213 355.847, 1124.324 354.087 C 1123.158 353.001, 1122.046 351.675, 1121.852 351.140 C 1121.384 349.848, 1114.951 348.888, 1112.790 349.788 M 888.500 369.620 C 878.568 371.772, 873.427 380.101, 879.950 383.474 C 883.299 385.206, 888.575 385.496, 889.500 384 C 889.840 383.450, 890.976 383, 892.024 383 C 893.072 383, 894.463 381.988, 895.115 380.750 C 895.766 379.512, 896.686 378.246, 897.158 377.936 C 897.630 377.625, 898.125 375.600, 898.258 373.436 L 898.500 369.500 894.500 369.343 C 892.300 369.257, 889.600 369.381, 888.500 369.620" stroke="none" fill="#15a2e4" fill-rule="evenodd"/><path d="M 288.734 47.052 C 297.949 56.645, 300.771 59.968, 304.076 65.118 L 307.310 70.158 304.743 72.537 C 303.332 73.846, 301.877 76.285, 301.509 77.958 C 301.142 79.631, 300.520 81, 300.128 81 C 299.735 81, 298.598 83.588, 297.601 86.750 C 296.604 89.912, 295.385 93.534, 294.894 94.797 C 294.402 96.060, 294 97.959, 294 99.016 C 294 100.310, 293.512 100.750, 292.505 100.363 C 291.263 99.887, 291.113 100.549, 291.623 104.263 C 292.013 107.111, 291.829 108.987, 291.118 109.427 C 290.503 109.807, 290 111.040, 290 112.166 C 290 113.590, 289.543 114.029, 288.500 113.607 C 287.675 113.273, 286.333 112.730, 285.517 112.400 C 284.259 111.890, 284.204 112.285, 285.152 115.007 C 286.016 117.485, 285.984 118.392, 285.013 118.992 C 284.062 119.579, 284.796 122.296, 288.021 130.134 C 292.937 142.081, 294.245 146.522, 297.118 161 C 299.843 174.734, 299.669 198.506, 296.895 191.427 C 296.480 190.367, 296.109 187.887, 296.070 185.917 C 296.032 183.946, 295.691 182.024, 295.313 181.646 C 294.935 181.268, 294.525 180.181, 294.402 179.230 C 292.716 166.214, 291.084 160.025, 286.811 150.434 C 285.815 148.198, 285 145.891, 285 145.307 C 285 144.723, 284.354 143.709, 283.564 143.053 C 282.775 142.398, 281.839 140.543, 281.485 138.931 C 281.131 137.319, 280.417 136, 279.899 136 C 279.381 136, 278.431 134.762, 277.789 133.250 C 276.436 130.066, 266.121 117.108, 261 112.158 C 256.135 107.456, 245.981 101.097, 236.478 96.800 C 228.188 93.052, 216.200 89.467, 215.223 90.444 C 214.917 90.750, 215.207 91, 215.869 91 C 216.760 91, 216.794 91.516, 216 93 C 215.216 94.465, 215.240 95, 216.087 95 C 216.942 95, 216.954 95.351, 216.131 96.342 C 215.519 97.080, 215.351 98.043, 215.759 98.483 C 216.166 98.922, 215.337 99.003, 213.915 98.663 C 212.493 98.323, 208.218 97.863, 204.415 97.642 C 200.612 97.420, 198.850 97.420, 200.500 97.641 C 238.117 102.692, 267.093 122.378, 282.744 153.519 C 287.703 163.385, 291.329 174.513, 294.634 190 C 295.531 194.203, 295.139 212.673, 293.970 221.324 C 289.793 252.243, 276.491 276.422, 253.312 295.228 C 249.876 298.016, 247.345 300.749, 247.687 301.303 C 248.029 301.856, 247.831 302.014, 247.247 301.653 C 246.149 300.974, 237.648 305.982, 238.482 306.816 C 238.741 307.074, 239.750 306.658, 240.726 305.893 C 242.349 304.619, 242.380 304.653, 241.090 306.296 C 240.314 307.283, 239.066 307.856, 238.316 307.568 C 236.230 306.767, 225.751 312.198, 227.266 313.295 C 228.110 313.906, 227.947 314.011, 226.750 313.626 C 224.584 312.929, 221.818 313.897, 222.558 315.093 C 222.858 315.579, 222.332 315.681, 221.388 315.319 C 220.292 314.898, 219.912 315.049, 220.337 315.737 C 220.753 316.410, 220.304 316.631, 219.139 316.326 C 218.021 316.034, 217.033 316.471, 216.669 317.419 C 216.336 318.289, 215.486 318.993, 214.781 318.985 C 213.885 318.974, 213.951 318.678, 215 318 C 217.126 316.626, 216.250 316.801, 210 319 C 206.187 320.341, 205.267 320.956, 207 321.003 L 209.500 321.071 207.013 322.448 C 205.644 323.205, 204.179 323.610, 203.755 323.349 C 203.331 323.087, 203.485 323.969, 204.095 325.310 C 204.920 327.119, 204.904 328.311, 204.033 329.937 C 203.135 331.615, 203.138 332.461, 204.044 333.553 C 205.514 335.325, 204.519 341.324, 202.474 343.022 C 201.663 343.695, 201 344.996, 201 345.914 C 201 349.303, 222.507 345.844, 241.892 339.337 C 252.082 335.916, 262.741 330.438, 274.485 322.586 C 279.868 318.987, 283.535 316.856, 282.636 317.850 C 281.736 318.844, 281 320.188, 281 320.837 C 281 323.512, 304.465 302.555, 311.500 293.597 C 312.600 292.196, 314.774 289.576, 316.332 287.775 C 320.219 283.280, 324.669 276.618, 325.470 274.094 C 325.836 272.942, 326.548 272, 327.054 272 C 327.560 272, 328.608 270.480, 329.385 268.622 C 330.161 266.764, 331.257 264.959, 331.821 264.611 C 332.385 264.262, 333.135 262.663, 333.487 261.058 C 333.840 259.452, 334.763 257.612, 335.538 256.969 C 336.313 256.325, 337.231 254.285, 337.578 252.435 C 337.925 250.585, 338.837 248.550, 339.605 247.913 C 340.372 247.276, 341 245.791, 341 244.613 C 341 243.434, 341.832 240.902, 342.848 238.985 C 343.864 237.068, 345.002 233.540, 345.377 231.145 C 345.751 228.750, 346.658 225.600, 347.393 224.145 C 348.128 222.690, 349.040 218.125, 349.419 214 C 349.798 209.875, 350.701 204.250, 351.425 201.500 C 352.653 196.836, 352.616 196.479, 350.871 196.180 C 349.181 195.892, 348.999 194.829, 348.986 185.180 C 348.979 179.306, 348.707 173.508, 348.382 172.295 C 347.907 170.525, 348.302 169.962, 350.388 169.439 C 353.141 168.748, 353.176 168.190, 350.953 160.500 C 350.476 158.850, 349.785 154.575, 349.416 151 C 348.780 144.826, 346.695 140.452, 344.913 141.554 C 344.462 141.832, 343.605 140.134, 343.009 137.780 C 340.828 129.177, 334.026 110.130, 330.379 102.417 C 319.869 80.188, 303.429 57.886, 288.654 45.815 L 283.500 41.604 288.734 47.052 M 408.792 87.045 L 406.500 87.590 406 173.045 C 405.725 220.045, 405.743 259.850, 406.040 261.500 L 406.581 264.500 429.941 264.769 C 450.864 265.010, 453.499 264.858, 455.201 263.318 C 457.005 261.685, 457.087 259.982, 456.801 229.754 C 456.507 198.613, 456.544 197.900, 458.500 197.425 C 459.600 197.158, 473.486 197.066, 489.357 197.220 L 518.215 197.500 518.058 229.223 C 517.953 250.403, 518.262 261.620, 518.986 262.973 C 520.029 264.922, 520.988 265, 544.060 265 L 568.050 265 569.025 262.435 C 570.086 259.644, 570.417 93.159, 569.370 89.250 L 568.767 87 543.990 87 C 521.692 87, 519.149 87.168, 518.568 88.683 C 518.213 89.609, 517.958 103.671, 518.002 119.933 C 518.046 136.195, 518.064 150.519, 518.041 151.764 L 518 154.029 487.378 153.764 L 456.755 153.500 456.933 122.288 C 457.051 101.679, 456.748 90.397, 456.040 89.075 C 455.027 87.181, 453.795 87.059, 433.027 86.787 C 420.958 86.629, 410.052 86.745, 408.792 87.045 M 757.415 86.834 C 752.912 87.621, 753 85.854, 753 175.126 C 753 227.768, 753.369 260.841, 753.975 262.435 L 754.950 265 777.475 265 L 800 265 800 211.500 C 800 181.595, 800.386 158, 800.875 158 C 801.897 158, 803 162.882, 803 167.402 C 803 169.136, 803.677 171.521, 804.504 172.702 C 805.331 173.882, 806.415 177.470, 806.914 180.674 C 807.413 183.878, 808.517 188.300, 809.367 190.500 C 810.217 192.700, 810.932 196.040, 810.956 197.921 C 810.980 199.803, 811.660 202.072, 812.467 202.963 C 813.274 203.855, 814.233 207.265, 814.600 210.542 C 814.966 213.819, 815.895 217.226, 816.664 218.113 C 817.433 219, 818.326 222.150, 818.650 225.113 C 818.973 228.076, 819.865 231.505, 820.631 232.732 C 821.396 233.960, 822.428 237.560, 822.922 240.732 C 823.417 243.905, 824.517 248.300, 825.367 250.500 C 826.217 252.700, 826.932 255.884, 826.956 257.576 C 826.983 259.464, 827.902 261.499, 829.337 262.847 C 831.606 264.978, 832.263 265.035, 851.889 264.771 L 872.104 264.500 874.548 258.500 C 875.891 255.200, 876.993 251.233, 876.995 249.685 C 876.998 248.137, 877.863 244.762, 878.917 242.185 C 879.972 239.608, 881.120 235.475, 881.468 233 C 881.816 230.525, 882.684 227.600, 883.397 226.500 C 884.110 225.400, 885.015 222.025, 885.407 219 C 885.799 215.975, 886.697 212.600, 887.403 211.500 C 888.108 210.400, 888.967 207.081, 889.311 204.124 C 889.654 201.166, 890.554 197.791, 891.311 196.624 C 892.067 195.456, 892.948 192.250, 893.269 189.500 C 893.590 186.750, 894.558 183.150, 895.420 181.500 C 896.282 179.850, 896.990 176.860, 896.994 174.855 C 897.001 170.846, 900.810 157.476, 901.693 158.360 C 901.998 158.664, 902.304 182.670, 902.373 211.707 L 902.500 264.500 926.613 264.767 C 946.112 264.984, 950.945 264.772, 951.869 263.658 C 952.710 262.644, 952.944 239.279, 952.756 174.891 L 952.500 87.500 919.556 87.236 L 886.613 86.972 882.896 90.602 C 880.608 92.836, 878.925 95.588, 878.517 97.762 C 878.153 99.704, 877.266 102.239, 876.547 103.396 C 875.828 104.553, 874.958 107.721, 874.613 110.435 C 874.269 113.149, 873.386 116.299, 872.652 117.435 C 871.917 118.571, 871.027 121.645, 870.675 124.267 C 870.322 126.889, 869.351 130.354, 868.517 131.968 C 867.683 133.581, 867 136.392, 867 138.215 C 867 140.038, 866.169 143.098, 865.153 145.015 C 864.138 146.932, 863.010 150.721, 862.647 153.435 C 862.284 156.149, 861.386 159.299, 860.651 160.435 C 859.916 161.571, 859.043 164.838, 858.711 167.696 C 858.379 170.554, 857.408 174.244, 856.553 175.897 C 855.699 177.549, 855 180.723, 855 182.950 C 855 185.178, 854.625 187, 854.167 187 C 853.334 187, 851.798 180.780, 849.846 169.500 C 849.275 166.200, 848.133 161.931, 847.307 160.013 C 846.482 158.096, 845.572 154.046, 845.286 151.013 C 845 147.981, 844.124 144.474, 843.340 143.221 C 842.557 141.967, 841.527 138.142, 841.052 134.721 C 840.577 131.299, 839.491 126.700, 838.638 124.500 C 837.785 122.300, 837.068 118.688, 837.044 116.473 C 837.020 114.257, 836.350 111.517, 835.556 110.383 C 834.761 109.249, 833.790 105.886, 833.397 102.911 C 832.757 98.069, 829.860 92.094, 827.694 91.148 C 827.251 90.954, 826.104 89.954, 825.145 88.926 C 823.524 87.186, 821.171 87.036, 791.366 86.778 C 773.746 86.625, 758.468 86.650, 757.415 86.834 M 1322.712 87 C 1304.816 87.411, 1300.755 87.768, 1299.977 89 C 1299.401 89.913, 1299.025 123.796, 1299.015 175.527 C 1299.002 250.882, 1299.177 260.808, 1300.557 262.777 L 1302.113 265 1367.057 265 L 1432 265 1432 243.500 L 1432 222 1428.750 221.977 C 1426.963 221.964, 1408.995 221.974, 1388.823 221.999 C 1363.963 222.030, 1351.934 221.703, 1351.489 220.983 C 1351.128 220.398, 1350.888 190.917, 1350.956 155.469 C 1351.037 113.756, 1350.724 90.353, 1350.070 89.132 C 1348.679 86.531, 1347.417 86.433, 1322.712 87 M 592.200 88.200 C 590.461 89.939, 590.461 262.061, 592.200 263.800 C 593.110 264.710, 609.884 265, 661.578 265 C 720.618 265, 729.920 264.801, 730.986 263.517 C 731.849 262.477, 732.259 256.586, 732.359 243.818 C 732.474 228.960, 732.224 225.263, 731 223.759 C 729.582 222.016, 727.098 221.918, 685.750 221.975 C 644.570 222.032, 641.998 221.932, 641.969 220.268 C 641.952 219.296, 641.890 213.775, 641.830 208 L 641.722 197.500 674.025 197.236 C 695.829 197.058, 706.763 196.612, 707.664 195.863 C 709.485 194.353, 709.609 157.009, 707.800 155.200 C 706.916 154.316, 698.089 154, 674.300 154 C 644.217 154, 641.998 153.880, 641.968 152.250 C 641.717 138.657, 641.812 130.855, 642.234 130.433 C 642.519 130.148, 661.480 129.943, 684.370 129.978 C 707.259 130.013, 727.099 129.762, 728.458 129.421 C 729.817 129.080, 731.241 127.833, 731.624 126.651 C 732.007 125.468, 732.360 116.902, 732.410 107.615 C 732.476 95.212, 732.153 90.236, 731.193 88.865 C 729.940 87.076, 727.111 87, 661.643 87 C 609.899 87, 593.110 87.290, 592.200 88.200 M 975.557 87.907 C 974.637 89.397, 974.863 263.263, 975.787 264.187 C 976.254 264.654, 987.406 264.916, 1000.569 264.769 L 1024.500 264.500 1025 237 L 1025.500 209.500 1053.598 209 C 1072.769 208.659, 1082.142 208.131, 1083.098 207.339 C 1083.869 206.701, 1086.171 205.867, 1088.214 205.485 C 1090.257 205.103, 1092.450 204.163, 1093.087 203.395 C 1093.724 202.628, 1094.752 201.992, 1095.372 201.982 C 1097.481 201.948, 1105.554 196.031, 1111.039 190.500 C 1116.144 185.352, 1117 184.356, 1117 183.560 C 1117 183.136, 1118.125 181.452, 1119.500 179.818 C 1120.875 178.184, 1122 176.261, 1122 175.546 C 1122 174.830, 1122.619 173.731, 1123.375 173.104 C 1124.132 172.476, 1125.046 170.114, 1125.407 167.854 C 1125.769 165.595, 1126.725 162.803, 1127.532 161.651 C 1129.618 158.673, 1129.618 137.327, 1127.532 134.349 C 1126.725 133.197, 1125.769 130.405, 1125.407 128.146 C 1125.046 125.886, 1124.132 123.524, 1123.375 122.896 C 1122.619 122.269, 1122 121.170, 1122 120.454 C 1122 119.739, 1120.875 117.816, 1119.500 116.182 C 1118.125 114.548, 1117 112.864, 1117 112.440 C 1117 109.646, 1098.716 94.072, 1095.372 94.018 C 1094.752 94.008, 1093.724 93.372, 1093.087 92.605 C 1092.450 91.837, 1090.280 90.900, 1088.265 90.522 C 1086.251 90.144, 1083.692 89.197, 1082.579 88.417 C 1080.895 87.238, 1071.781 87, 1028.337 87 C 998.159 87, 975.881 87.383, 975.557 87.907 M 1139.667 87.667 C 1139.300 88.033, 1139 127.543, 1139 175.467 C 1139 241.904, 1139.285 262.885, 1140.200 263.800 C 1141.110 264.710, 1157.787 265, 1209.143 265 L 1276.887 265 1278.443 262.777 C 1279.707 260.973, 1280 257.290, 1280 243.212 C 1280 233.169, 1279.564 225.054, 1278.965 223.934 C 1277.965 222.067, 1276.408 222, 1233.965 222 C 1192.780 222, 1189.997 221.889, 1189.948 220.250 C 1189.919 219.287, 1189.840 213.775, 1189.772 208 L 1189.648 197.500 1221.989 197.236 C 1243.819 197.058, 1254.763 196.612, 1255.664 195.863 C 1257.533 194.313, 1257.612 156.514, 1255.750 155.309 C 1255.063 154.864, 1239.875 154.275, 1222 154 L 1189.500 153.500 1189.500 141.668 L 1189.500 129.836 1232.711 129.957 C 1274.945 130.075, 1275.969 130.031, 1277.961 128.039 C 1279.858 126.142, 1280 124.778, 1280 108.434 C 1280 98.238, 1279.566 90.057, 1278.965 88.934 C 1277.957 87.051, 1276.127 87, 1209.131 87 C 1171.293 87, 1140.033 87.300, 1139.667 87.667 M 75.918 107.670 C 67.037 116.216, 63.031 121.031, 56.924 130.500 C 52.667 137.100, 47.985 143.672, 46.519 145.104 C 45.038 146.551, 43.415 149.655, 42.869 152.089 C 42.327 154.499, 41.243 157.179, 40.458 158.046 C 39.674 158.913, 38.528 163.194, 37.911 167.561 C 34.598 191.004, 43.977 223.294, 61.837 249.935 C 68.744 260.238, 85.596 278.014, 96.607 286.612 C 104.964 293.138, 117.885 301.448, 118.586 300.748 C 118.801 300.532, 117.070 299.300, 114.739 298.010 C 106.351 293.369, 90.108 280.411, 84 273.487 L 81.500 270.654 85.250 273.446 C 87.313 274.981, 89 275.734, 89 275.119 C 89 274.503, 89.562 274.112, 90.250 274.250 C 90.974 274.395, 91.399 273.658, 91.260 272.500 C 91.128 271.400, 90.828 268.025, 90.593 265 C 90.012 257.513, 88.184 246.614, 86.978 243.442 C 85.643 239.931, 83.236 228.107, 83.224 225 C 83.218 223.625, 82.897 214.850, 82.510 205.500 C 81.781 187.897, 82.434 179.776, 85.530 167.926 C 87.081 161.993, 87.107 160.782, 85.791 155.500 C 83.606 146.723, 84.018 107.036, 86.352 101.596 C 87.273 99.450, 87.834 97.501, 87.600 97.266 C 87.365 97.032, 82.108 101.713, 75.918 107.670 M 172.500 114.958 C 154.925 119.598, 140.090 127.885, 133.357 136.822 C 131.833 138.845, 131.402 139.843, 132.400 139.039 C 133.397 138.236, 135.032 137.111, 136.033 136.539 C 137.034 135.968, 140 134.244, 142.624 132.710 C 145.248 131.175, 149.425 129.465, 151.907 128.909 C 154.388 128.353, 157.068 127.358, 157.862 126.699 C 160.175 124.779, 179.692 125.118, 184 127.153 C 185.925 128.062, 189.045 129.080, 190.934 129.415 C 192.823 129.750, 195.111 130.695, 196.018 131.516 C 197.449 132.811, 197.667 132.815, 197.667 131.548 C 197.667 130.745, 197.339 130.291, 196.938 130.538 C 196.537 130.786, 195.950 130.311, 195.632 129.482 C 195.117 128.141, 195.372 128.141, 197.963 129.481 C 199.564 130.309, 201.213 131.551, 201.629 132.243 C 202.230 133.245, 202.074 133.249, 200.859 132.266 C 199.627 131.270, 199.333 131.307, 199.333 132.460 C 199.333 133.246, 199.596 133.861, 199.917 133.826 C 202.301 133.569, 204.296 134.370, 207.173 136.739 C 209.003 138.246, 209.882 138.696, 209.128 137.739 C 207.346 135.481, 209.057 135.489, 211.561 137.750 C 213.913 139.873, 217.571 140.734, 216.436 138.897 C 215.898 138.025, 216.182 137.856, 217.401 138.324 C 218.824 138.870, 219.009 138.590, 218.443 136.744 C 218.065 135.510, 217.268 133.892, 216.671 133.149 C 215.344 131.495, 214.902 129, 215.935 129 C 216.353 129, 217.732 129.900, 219 131 C 220.268 132.100, 221.586 133, 221.928 133 C 223.165 133, 233.044 143.202, 232.906 144.336 C 232.599 146.837, 233.053 147.989, 234.250 147.750 C 234.938 147.613, 235.429 148.336, 235.343 149.357 C 235.247 150.503, 235.543 150.857, 236.118 150.282 C 237.174 149.226, 232.428 138, 230.927 138 C 230.417 138, 230 137.364, 230 136.587 C 230 134.093, 218.458 123.356, 211.254 119.149 C 207.415 116.906, 202.299 114.616, 199.887 114.060 C 193.077 112.490, 180.255 112.911, 172.500 114.958 M 41.710 127.319 C 40.852 128.629, 38.965 133.232, 37.516 137.548 C 36.028 141.979, 34.008 146.007, 32.874 146.801 C 31.759 147.582, 31.113 148.852, 31.421 149.656 C 31.731 150.464, 31.540 150.834, 30.989 150.493 C 30.407 150.134, 30 151.365, 30 153.483 C 30 158.726, 25.387 163.321, 24.620 158.842 C 24.178 156.253, 21.085 151.459, 17.061 147.124 C 14.828 144.717, 13 142.407, 13 141.990 C 13 141.574, 12.067 140.989, 10.926 140.691 C 9.785 140.393, 8.607 139.215, 8.309 138.074 C 6.010 129.284, 2.095 148.323, 2.027 168.620 C 1.966 186.855, 8.637 213.521, 18.008 232.500 C 25.865 248.414, 34.864 260.756, 49.907 276.248 C 62.691 289.414, 71.990 296.129, 92.284 306.852 C 106.289 314.252, 132.882 323.677, 136.980 322.693 C 137.816 322.493, 136.700 321.967, 134.500 321.525 C 117.058 318.024, 91.717 303.637, 75.654 288.115 C 54.650 267.819, 37.545 232.066, 32.460 197.831 C 29.138 175.471, 32.681 149.270, 41.559 130.539 C 44.117 125.141, 44.193 123.530, 41.710 127.319 M 1025.985 129.833 C 1024.418 130.364, 1024.679 165.990, 1026.250 166.040 C 1026.938 166.062, 1036.039 166.044, 1046.476 166 C 1060.985 165.939, 1066.142 165.577, 1068.380 164.460 C 1069.990 163.657, 1071.749 163, 1072.289 163 C 1072.829 163, 1074.421 161.762, 1075.827 160.250 C 1080.737 154.969, 1080.892 140.846, 1076.095 135.750 C 1074.671 134.238, 1072.808 133, 1071.953 133 C 1071.099 133, 1069.839 132.438, 1069.153 131.750 C 1068.272 130.867, 1061.902 130.353, 1047.438 130 C 1036.180 129.725, 1026.526 129.650, 1025.985 129.833 M 236.112 152.500 C 236.063 153.050, 236.751 155.975, 237.640 159 C 238.550 162.097, 239.581 170.836, 239.999 179 L 240.742 193.500 240.543 178.500 C 240.380 166.289, 239.958 162.384, 238.271 157.500 C 237.132 154.200, 236.160 151.950, 236.112 152.500 M 281.587 208.750 C 281.209 213.563, 280.697 219.300, 280.451 221.500 C 280.029 225.268, 280.060 225.326, 280.998 222.500 C 282.086 219.217, 283.615 200, 282.788 200 C 282.506 200, 281.965 203.938, 281.587 208.750 M 255.680 271.520 C 251.378 276.171, 243.278 283.412, 237.680 287.612 C 226.675 295.867, 224.826 297.432, 229.500 294.536 C 238.844 288.745, 254.882 274.681, 261.187 266.750 C 262.827 264.688, 264.018 263.015, 263.834 263.032 C 263.650 263.050, 259.981 266.870, 255.680 271.520 M 160.296 325.744 C 164.583 325.932, 171.333 325.931, 175.296 325.742 C 179.258 325.552, 175.750 325.399, 167.500 325.400 C 159.250 325.401, 156.008 325.556, 160.296 325.744" stroke="none" fill="#073fa3" fill-rule="evenodd"/></svg>