<svg xmlns="http://www.w3.org/2000/svg" width="134" height="36" viewBox="0 0 134 36">
    <defs>
        <linearGradient id="a" x1="49.886%" x2="49.894%" y1="79.27%" y2="21.757%">
            <stop offset="0%" stop-color="#E30613"/>
            <stop offset="100%" stop-color="#FBBB21"/>
        </linearGradient>
        <linearGradient id="b" x1="134.835%" x2="34.495%" y1="51.866%" y2="51.916%">
            <stop offset="0%" stop-color="#E63323"/>
            <stop offset="100%" stop-color="#7F1810"/>
        </linearGradient>
        <linearGradient id="c" x1="78.807%" x2="19.713%" y1="50.782%" y2="50.782%">
            <stop offset="0%" stop-color="#E63323"/>
            <stop offset="100%" stop-color="#7F1810"/>
        </linearGradient>
        <linearGradient id="d" x1="50.484%" x2="50.489%" y1="-.405%" y2="99.648%">
            <stop offset="0%" stop-color="#183E75"/>
            <stop offset="100%" stop-color="#008ECF"/>
        </linearGradient>
        <linearGradient id="e" x1="48.951%" x2="48.935%" y1="21.216%" y2="78.718%">
            <stop offset="0%" stop-color="#183E75"/>
            <stop offset="100%" stop-color="#008ECF"/>
        </linearGradient>
        <linearGradient id="f" x1="-.015%" x2="100.341%" y1="60.304%" y2="60.254%">
            <stop offset="0%" stop-color="#3AAA35"/>
            <stop offset="100%" stop-color="#133A22"/>
        </linearGradient>
        <linearGradient id="g" x1="20.278%" x2="79.373%" y1="49.831%" y2="49.847%">
            <stop offset="0%" stop-color="#3AAA35"/>
            <stop offset="100%" stop-color="#133A22"/>
        </linearGradient>
        <linearGradient id="h" x1="50.013%" x2="50.013%" y1="100.017%" y2="-.027%">
            <stop offset="0%" stop-color="#E30613"/>
            <stop offset="100%" stop-color="#FBBB21"/>
        </linearGradient>
    </defs>
    <g fill="none" fill-rule="nonzero">
        <path fill="#646363" d="M67.466 9.136h-1.71a.136.136 0 0 0-.138.135v4.447h-3.862a.692.692 0 0 1-.511-.162.793.793 0 0 1-.164-.59V6.42a.136.136 0 0 0-.133-.136h-1.712a.14.14 0 0 0-.136.136v7.061c-.04.476.095.95.38 1.334.253.283.675.425 1.266.425h6.726a.134.134 0 0 0 .137-.136V9.271a.132.132 0 0 0-.143-.135zM84.91 9.283a.139.139 0 0 0-.1.133v1.13c0 .04.017.078.048.104.031.025.072.036.112.029.698-.136 3.45-.57 3.45 1.033v2.006h-4.125a.136.136 0 0 0-.136.136v1.251c0 .075.06.136.136.136h5.972c.076 0 .137-.06.137-.136v-3.314c0-3.765-4.742-2.7-5.494-2.508z"/>
        <path fill="#646363" d="M63.865 9.274a.978.978 0 0 0 .828-1.016.98.98 0 0 0-.93-.923.982.982 0 0 0-1.024.821c-.05.31.053.623.276.845.223.22.54.323.85.273zM82.673 15.105V11.31c0-4.7-5.824-3.706-6.834-3.5a.129.129 0 0 0-.098.174l.38 1.164a.13.13 0 0 0 .15.091l.427-.068c1.203-.147 3.981-.25 3.981 1.98v2.567h-1.557v-1.124a3.627 3.627 0 0 0-.208-1.319 2.033 2.033 0 0 0-.561-.785 2.085 2.085 0 0 0-.817-.419 3.805 3.805 0 0 0-1.95 0 2.01 2.01 0 0 0-1.379 1.204c-.148.424-.219.87-.207 1.32-.004.379.045.757.146 1.123h-2.119a.692.692 0 0 1-.51-.162.793.793 0 0 1-.164-.59V6.42a.136.136 0 0 0-.137-.136h-1.708a.14.14 0 0 0-.137.136v7.061c-.04.476.096.95.38 1.334.252.283.674.425 1.266.425h11.52a.137.137 0 0 0 .136-.136zm-5.152-1.387h-.95c-.634 0-.949-.366-.952-1.124 0-.764.318-1.124.951-1.124s.95.366.95 1.124v1.124zM2.118 8.53a.975.975 0 0 0 .825-1.012.977.977 0 0 0-.928-.921.979.979 0 0 0-1.02.818.973.973 0 0 0 .277.841c.222.22.536.323.846.275zM4.463 8.53a.975.975 0 0 0 .82-1.014.977.977 0 0 0-.927-.919.979.979 0 0 0-1.02.818.973.973 0 0 0 .278.843c.223.22.538.322.849.273zM16.199 16.038a.978.978 0 0 0-.827 1.016.98.98 0 0 0 .93.924.982.982 0 0 0 1.023-.822.975.975 0 0 0-.277-.843.99.99 0 0 0-.85-.275zM6.04 19.998H4.258a.122.122 0 0 0-.106.034.12.12 0 0 0-.034.104v6.035c.032.44-.098.876-.365 1.227a1.309 1.309 0 0 1-1.04.42 1.347 1.347 0 0 1-.68-.175 1.988 1.988 0 0 1-.485-.383.14.14 0 0 0-.196-.03l-1.304.992a.14.14 0 0 0 0 .194c.262.385.63.687 1.06.87.503.233 1.053.35 1.608.343 1.093 0 1.947-.3 2.56-.9.615-.6.92-1.485.919-2.656v-5.937a.123.123 0 0 0-.04-.11.125.125 0 0 0-.115-.028zM12.568 23.17a2.348 2.348 0 0 0-.933-.449 5.805 5.805 0 0 0-1.405-.144 5.27 5.27 0 0 0-1.465.18 3.517 3.517 0 0 0-1.06.49.127.127 0 0 0-.042.194l.633 1.101c.044.074.106.083.18.027.19-.13.398-.23.619-.296a2.9 2.9 0 0 1 .891-.123 1.93 1.93 0 0 1 1.102.22.838.838 0 0 1 .298.7v.251a.076.076 0 0 1-.024.062.078.078 0 0 1-.063.02h-1.206a3.584 3.584 0 0 0-2.041.529 1.851 1.851 0 0 0-.767 1.635c-.009.32.053.638.182.932.112.249.28.468.493.64.212.172.458.299.722.372.28.078.57.118.861.118.395.014.788-.055 1.153-.203a1.84 1.84 0 0 0 .713-.537v.448a.123.123 0 0 0 .036.103c.027.028.066.04.104.036h1.56a.125.125 0 0 0 .104-.036.123.123 0 0 0 .035-.103v-4.323a3.307 3.307 0 0 0-.16-1.086c-.1-.295-.28-.557-.52-.758zm-1.188 4.06c0 .624-.421.936-1.263.936-.657 0-.984-.236-.984-.712 0-.475.402-.767 1.207-.767h.953a.078.078 0 0 1 .065.022c.016.017.025.04.022.064v.457zM20.18 22.73h-5.122a.125.125 0 0 0-.104.035.123.123 0 0 0-.036.104v1.325a.123.123 0 0 0 .036.103c.027.027.066.04.104.035h2.947v.027l-3.226 3.582a.264.264 0 0 0-.045.142v1.254a.123.123 0 0 0 .036.105c.029.027.068.04.107.034h5.303a.122.122 0 0 0 .106-.034.12.12 0 0 0 .034-.105v-1.33a.12.12 0 0 0-.034-.106.122.122 0 0 0-.106-.033h-3.09v-.03l3.2-3.511c.03-.04.044-.09.042-.14v-1.324a.12.12 0 0 0-.04-.106.122.122 0 0 0-.112-.027zM27.76 25.253a4.512 4.512 0 0 0-.072-.425c-.026-.12-.059-.24-.098-.357a2.613 2.613 0 0 0-1.046-1.393 3.769 3.769 0 0 0-3.746 0c-.513.33-.889.832-1.06 1.414a3.69 3.69 0 0 0-.167.702c-.041.303-.06.609-.057.915a5.65 5.65 0 0 0 .063.906c.038.236.097.47.175.696a2.584 2.584 0 0 0 1.067 1.422 3.489 3.489 0 0 0 1.937.502 4.296 4.296 0 0 0 1.67-.295 3.528 3.528 0 0 0 1.22-.823c.066-.065.06-.13-.014-.195l-.927-.865c-.046-.065-.111-.065-.196 0a2.197 2.197 0 0 1-.675.44 2.251 2.251 0 0 1-.891.16c-.312.009-.62-.068-.891-.222a1.158 1.158 0 0 1-.505-.67 1.138 1.138 0 0 1-.087-.375.076.076 0 0 1 .022-.063.078.078 0 0 1 .065-.022h4.112c.1 0 .151-.047.151-.139v-.746c0-.21-.024-.41-.05-.567zm-1.967.139H23.55a.078.078 0 0 1-.063-.021.076.076 0 0 1-.024-.062c0-.09.007-.181.021-.271 0-.08.033-.157.05-.233a.998.998 0 0 1 .414-.543c.447-.26 1-.26 1.447 0 .197.127.343.32.413.543.017.076.035.153.05.233.014.09.021.18.02.271a.076.076 0 0 1-.022.062.078.078 0 0 1-.063.02zM35.155 25.253a4.21 4.21 0 0 0-.17-.782 2.613 2.613 0 0 0-1.045-1.393 3.769 3.769 0 0 0-3.747 0c-.512.331-.888.832-1.06 1.414a3.69 3.69 0 0 0-.167.702c-.041.303-.06.609-.056.915a5.65 5.65 0 0 0 .062.906c.038.236.097.47.175.696a2.584 2.584 0 0 0 1.067 1.422 3.498 3.498 0 0 0 1.937.502 4.296 4.296 0 0 0 1.67-.295 3.528 3.528 0 0 0 1.221-.823c.065-.065.06-.13 0-.195l-.927-.865c-.046-.065-.11-.065-.196 0a2.218 2.218 0 0 1-.672.44 2.278 2.278 0 0 1-.89.16c-.313.009-.621-.068-.892-.222a1.158 1.158 0 0 1-.505-.67 1.138 1.138 0 0 1-.087-.375.076.076 0 0 1 .023-.063.078.078 0 0 1 .064-.022h4.112c.1 0 .154-.047.154-.139 0-.295 0-.537-.015-.746-.014-.21-.038-.41-.056-.567zm-1.967.139h-2.243a.078.078 0 0 1-.063-.021.076.076 0 0 1-.023-.062 1.773 1.773 0 0 1 .07-.504.998.998 0 0 1 .414-.543c.447-.26 1-.26 1.447 0 .197.127.344.32.413.543a1.773 1.773 0 0 1 .071.505.076.076 0 0 1-.023.06.078.078 0 0 1-.063.022zM41.04 22.695a2.117 2.117 0 0 0-.653-.104 2.343 2.343 0 0 0-1.078.23c-.287.141-.527.362-.69.635v-.572a.123.123 0 0 0-.036-.105.125.125 0 0 0-.106-.034h-1.682a.125.125 0 0 0-.106.034.123.123 0 0 0-.037.105v6.468a.123.123 0 0 0 .037.105c.028.027.067.04.106.033h1.682a.125.125 0 0 0 .106-.033.123.123 0 0 0 .036-.105v-3.57c-.022-.37.066-.74.253-1.06a.959.959 0 0 1 .8-.404c.348-.002.69.1.98.295.064.04.148.03.199-.027l.784-1.422a.144.144 0 0 0-.042-.195 1.603 1.603 0 0 0-.552-.274zM47.286 23.17a2.348 2.348 0 0 0-.933-.449 5.796 5.796 0 0 0-1.402-.144 5.293 5.293 0 0 0-1.468.18 3.517 3.517 0 0 0-1.06.49.127.127 0 0 0-.042.194l.633 1.101c.044.074.107.083.18.027.19-.13.399-.23.619-.296a2.9 2.9 0 0 1 .891-.123 1.93 1.93 0 0 1 1.103.22.838.838 0 0 1 .297.7v.251a.076.076 0 0 1-.024.062.078.078 0 0 1-.062.02H44.81a3.584 3.584 0 0 0-2.04.529c-.532.376-.827 1-.78 1.646-.008.32.053.639.182.933.112.248.28.468.493.64.212.172.458.299.722.372.28.078.57.118.862.118.394.014.787-.056 1.153-.204a1.84 1.84 0 0 0 .713-.537v.449a.123.123 0 0 0 .035.103c.027.027.066.04.104.036h1.56a.125.125 0 0 0 .104-.036.123.123 0 0 0 .036-.103v-4.335a3.307 3.307 0 0 0-.16-1.086 1.717 1.717 0 0 0-.509-.758zm-1.188 4.06c0 .624-.421.936-1.263.936-.657 0-.983-.236-.983-.712 0-.475.4-.767 1.206-.767h.954a.078.078 0 0 1 .064.022c.017.017.025.04.022.064v.457zM59.32 20.848a3.059 3.059 0 0 0-1.052-.626 4.04 4.04 0 0 0-1.39-.224h-3.706a.125.125 0 0 0-.104.035.123.123 0 0 0-.035.103v9.201a.123.123 0 0 0 .035.103c.027.028.066.04.104.036h1.783a.125.125 0 0 0 .104-.036.123.123 0 0 0 .036-.103v-3.166a.076.076 0 0 1 .023-.062.078.078 0 0 1 .063-.02h1.696c.473.006.944-.069 1.39-.222a3.055 3.055 0 0 0 1.047-.629c.286-.27.51-.598.66-.962.155-.39.232-.807.228-1.227a3.314 3.314 0 0 0-.223-1.24 2.67 2.67 0 0 0-.66-.961zm-1.545 3.13c-.284.241-.65.363-1.023.34h-1.571c-.057 0-.086-.027-.086-.083v-2.384c0-.056.03-.083.086-.083h1.571c.374-.023.742.102 1.023.348.248.246.381.585.365.933.017.347-.116.686-.365.93zM66.162 23.17a2.384 2.384 0 0 0-.936-.449 5.781 5.781 0 0 0-1.402-.144 5.308 5.308 0 0 0-1.468.18 3.463 3.463 0 0 0-1.058.49.127.127 0 0 0-.041.194l.63 1.101c.047.074.107.083.184.027a2.11 2.11 0 0 1 .618-.296c.288-.087.59-.13.891-.123.382-.037.765.04 1.102.22a.838.838 0 0 1 .298.7v.251a.073.073 0 0 1-.022.062.075.075 0 0 1-.062.02H63.69a3.584 3.584 0 0 0-2.041.529c-.532.376-.828 1-.782 1.646-.008.32.055.64.185.933.111.248.28.467.49.64.21.166.452.288.71.36.281.079.572.118.865.118.393.014.785-.056 1.15-.203a1.85 1.85 0 0 0 .716-.537h.014v.448a.123.123 0 0 0 .036.103c.027.028.066.04.104.036h1.572a.125.125 0 0 0 .106-.034.123.123 0 0 0 .036-.105v-4.323a3.305 3.305 0 0 0-.163-1.086 1.688 1.688 0 0 0-.526-.758zm-1.188 4.06c0 .623-.42.936-1.263.936-.654 0-.98-.236-.98-.712 0-.475.4-.767 1.206-.767h.953c.057 0 .084.03.084.086v.457zM68.651 19.998h1.793c.047 0 .086.038.086.085v1.488a.085.085 0 0 1-.086.085h-1.793a.085.085 0 0 1-.085-.085v-1.488c0-.047.038-.085.085-.085zM68.651 22.73h1.793c.047 0 .086.038.086.086v6.574a.085.085 0 0 1-.086.086h-1.793a.085.085 0 0 1-.085-.086v-6.574c0-.048.038-.086.085-.086zM77.759 23.285a1.955 1.955 0 0 0-.728-.516 2.583 2.583 0 0 0-.999-.18 2.358 2.358 0 0 0-1.087.22 1.902 1.902 0 0 0-.666.547h-.014v-.475a.123.123 0 0 0-.036-.104.125.125 0 0 0-.104-.035H72.44a.125.125 0 0 0-.104.035.123.123 0 0 0-.035.104v6.468a.123.123 0 0 0 .035.103c.027.027.066.04.104.036h1.697a.125.125 0 0 0 .104-.036.123.123 0 0 0 .035-.103v-3.89a1.348 1.348 0 0 1 .283-.885.969.969 0 0 1 .784-.333.945.945 0 0 1 .793.333c.182.26.273.57.259.886v3.877a.123.123 0 0 0 .036.105c.028.027.068.04.106.034h1.682a.125.125 0 0 0 .106-.034.123.123 0 0 0 .037-.105v-4.252a3.33 3.33 0 0 0-.149-1.018 2.21 2.21 0 0 0-.454-.782zM83.107 22.73h-.87a.078.078 0 0 1-.065-.022.076.076 0 0 1-.022-.063v-1.81a.123.123 0 0 0-.034-.105.125.125 0 0 0-.106-.036h-1.67a.125.125 0 0 0-.105.036.123.123 0 0 0-.034.106v1.809c0 .056-.027.085-.083.085h-.422a.122.122 0 0 0-.106.034.12.12 0 0 0-.034.105v1.157a.12.12 0 0 0 .034.104c.028.028.067.04.106.034h.422c.056 0 .083.03.083.086v3.066c0 .769.163 1.335.49 1.7.327.362.892.542 1.67.542h.746a.125.125 0 0 0 .104-.035.123.123 0 0 0 .035-.103v-1.381a.123.123 0 0 0-.035-.104.125.125 0 0 0-.104-.035h-.339a.627.627 0 0 1-.475-.148.743.743 0 0 1-.143-.522v-2.98a.076.076 0 0 1 .022-.064.078.078 0 0 1 .064-.022h.87a.122.122 0 0 0 .106-.034.12.12 0 0 0 .034-.104v-1.157a.123.123 0 0 0-.035-.104.125.125 0 0 0-.104-.035zM88.143 25.265l-.743-.083a1.7 1.7 0 0 1-.758-.189.43.43 0 0 1-.184-.368.483.483 0 0 1 .211-.405c.195-.115.421-.169.648-.153.343-.002.685.052 1.01.162.29.093.567.221.826.38a.134.134 0 0 0 .196-.026l.788-.962a.144.144 0 0 0-.015-.21 4.135 4.135 0 0 0-1.189-.59 4.949 4.949 0 0 0-1.572-.235c-.89 0-1.577.191-2.065.59-.484.38-.755.969-.727 1.581a1.829 1.829 0 0 0 .567 1.434 2.804 2.804 0 0 0 1.65.629l.757.083c.272.003.54.073.778.203.122.09.193.233.19.384a.54.54 0 0 1-.261.46c-.24.136-.515.199-.79.18a3.21 3.21 0 0 1-1.082-.195 3.573 3.573 0 0 1-.995-.543.137.137 0 0 0-.2 0l-.912 1.016a.124.124 0 0 0 0 .197c.379.307.803.554 1.257.732.585.22 1.208.327 1.833.313.971 0 1.717-.212 2.238-.635a2.092 2.092 0 0 0 .793-1.679 1.928 1.928 0 0 0-.526-1.395c-.343-.374-.917-.6-1.723-.676zM57.326 15.105V9.271a.132.132 0 0 0-.137-.135h-1.711a.136.136 0 0 0-.137.135v4.447h-5.817a.695.695 0 0 1-.514-.162.807.807 0 0 1-.164-.59V10.15a.133.133 0 0 0-.134-.133h-1.711a.134.134 0 0 0-.137.133v3.32c-.04.475.095.95.38 1.333.253.295.675.425 1.263.425h8.694a.133.133 0 0 0 .125-.124zM51.077 9.274a.978.978 0 0 0 .83-1.014.98.98 0 0 0-.929-.926.982.982 0 0 0-1.024.822.973.973 0 0 0 .275.843.988.988 0 0 0 .848.275zM53.422 9.274a.978.978 0 0 0 .827-1.016.98.98 0 0 0-.93-.923.982.982 0 0 0-1.023.821c-.05.31.053.623.275.845.223.22.54.323.85.273zM39.897 6.285h1.815c.046 0 .084.038.084.084v8.788a.084.084 0 0 1-.084.084h-1.815a.084.084 0 0 1-.083-.084V6.37c0-.046.037-.084.083-.084z"/>
        <path fill="#646363" d="M10.04 14.99v-.224c.157.195.368.475 1.161.475h10.346c.075 0 .137-.06.137-.136V9.271a.136.136 0 0 0-.137-.135h-1.711a.137.137 0 0 0-.137.135v4.447h-8.51c-.3.015-.6-.056-.861-.203a.71.71 0 0 1-.297-.552V9.271a.132.132 0 0 0-.134-.135h-1.72a.134.134 0 0 0-.137.135v5.341c0 .296 0 .546-.03.768-.01.195-.056.387-.133.566a.737.737 0 0 1-.315.348c-.185.091-.39.133-.595.121H6.67v1.092s3.37.98 3.37-2.517zM24.925 8.36a.975.975 0 0 0 .824-1.013.977.977 0 0 0-.927-.921.979.979 0 0 0-1.02.818.976.976 0 0 0 .278.84.99.99 0 0 0 .845.276zM18.549 16.038a.978.978 0 0 0-.83 1.014.98.98 0 0 0 .93.926.982.982 0 0 0 1.023-.822.975.975 0 0 0-.276-.842.99.99 0 0 0-.847-.276zM30.553 16.038a.978.978 0 0 0-.83 1.014.98.98 0 0 0 .929.926.982.982 0 0 0 1.024-.822.978.978 0 0 0-.278-.84.994.994 0 0 0-.845-.278z"/>
        <path fill="#646363" d="M25.79 14.99v-.206c.145.187.347.321.576.383.15.039.303.064.458.074h11.088c.076 0 .137-.06.137-.136V6.421a.14.14 0 0 0-.137-.136h-1.711a.14.14 0 0 0-.137.136v7.297h-1.783a3.249 3.249 0 0 1-.371-1.053 4.523 4.523 0 0 1-.074-.809c0-2.033-1.406-2.676-2.817-2.812a9.189 9.189 0 0 0-2.719.216.128.128 0 0 0-.095.165l.378 1.18c.02.062.083.1.148.092a6.934 6.934 0 0 1 1.783-.127c.719.136 1.34.442 1.34 1.387-.01.6.08 1.198.264 1.77h-5.262a1.27 1.27 0 0 1-.766-.203 1.103 1.103 0 0 1-.297-.717V9.27a.136.136 0 0 0-.137-.135h-1.711a.134.134 0 0 0-.137.135v5.341c0 .296 0 .546-.027.768a1.807 1.807 0 0 1-.133.566.757.757 0 0 1-.318.348c-.185.091-.39.133-.595.121h-.32v1.092s3.375.98 3.375-2.517zM5.336 10.006a2.576 2.576 0 0 0-.99-.504c-.794-.201-1.626-.201-2.42 0a2.612 2.612 0 0 0-.993.504c-.3.257-.533.582-.68.947a4.19 4.19 0 0 0 0 2.866c.147.365.38.69.68.947.295.233.638.4 1.004.49.795.2 1.627.2 2.422 0 .363-.095.7-.267.99-.505.3-.257.534-.582.682-.947a4.236 4.236 0 0 0 0-2.865 2.462 2.462 0 0 0-.695-.933zm-1.052 2.39c0 1.014-.383 1.522-1.15 1.526-.766.004-1.15-.505-1.15-1.526v-.03c0-1.01.384-1.518 1.15-1.522.767-.004 1.15.504 1.15 1.523v.03z"/>
        <path fill="url(#a)" d="M133.147 18.115a1.518 1.518 0 0 0 .116-2.396c-.915-.8-1.9-1.52-2.941-2.148a2.767 2.767 0 0 0-3.536.67c-1.587 1.977-4.51 6.285-9.772 9.08-1.269.672.344 2.097 1.23 2.767a.98.98 0 0 0 1.049.083c2.166-1.16 10.3-5.583 13.854-8.056z"/>
        <path fill="url(#b)" d="M127.915 30.31c.465.08.94-.059 1.288-.374.348-.316.53-.773.495-1.24a20.029 20.029 0 0 0-.55-3.582 2.757 2.757 0 0 0-2.971-2.01c-2.529.296-7.663 1.279-13.37-.442-1.376-.416-1.251 1.724-1.103 2.821a.973.973 0 0 0 .687.794c2.362.702 11.266 3.287 15.524 4.034z"/>
        <path fill="url(#c)" d="M115.555 35.268a1.535 1.535 0 0 0 2.413.115 20.558 20.558 0 0 0 2.166-2.918 2.732 2.732 0 0 0-.678-3.515c-1.99-1.575-6.329-4.476-9.14-9.702-.68-1.263-2.112.34-2.79 1.222a.957.957 0 0 0-.08 1.041c1.156 2.149 5.613 10.231 8.109 13.757z"/>
        <path fill="url(#d)" d="M103.278 30.087c-.079.46.06.932.377 1.277.317.346.776.528 1.245.493a21.021 21.021 0 0 0 3.61-.546 2.74 2.74 0 0 0 2.024-2.95c-.297-2.515-1.287-7.614.445-13.28.416-1.369-1.738-1.242-2.843-1.094a.96.96 0 0 0-.796.679c-.707 2.337-3.313 11.177-4.062 15.42z"/>
        <path fill="url(#e)" d="M98.284 17.8a1.518 1.518 0 0 0-.116 2.396c.915.8 1.899 1.519 2.941 2.148a2.767 2.767 0 0 0 3.536-.67c1.586-1.977 4.51-6.285 9.772-9.08 1.269-.673-.345-2.098-1.23-2.768a.98.98 0 0 0-1.049-.082c-2.166 1.147-10.301 5.574-13.854 8.055z"/>
        <path fill="url(#f)" d="M103.5 5.604c-.464-.079-.939.06-1.287.375s-.53.772-.495 1.239a20.29 20.29 0 0 0 .547 3.582 2.76 2.76 0 0 0 2.971 2.01c2.529-.296 7.663-1.278 13.37.442 1.376.416 1.251-1.723 1.103-2.82a.973.973 0 0 0-.687-.795c-2.344-.702-11.249-3.287-15.521-4.033z"/>
        <path fill="url(#g)" d="M115.876.646a1.535 1.535 0 0 0-2.413-.115 20.558 20.558 0 0 0-2.166 2.919 2.732 2.732 0 0 0 .678 3.514c1.99 1.573 6.328 4.476 9.139 9.702.68 1.263 2.113-.34 2.79-1.221a.962.962 0 0 0 .08-1.042c-1.165-2.148-5.618-10.23-8.108-13.757z"/>
        <path fill="url(#h)" d="M125.737 15.586c.942-3.37 1.985-7.32 2.416-9.758.079-.461-.06-.932-.377-1.278a1.536 1.536 0 0 0-1.246-.493c-1.217.077-2.425.26-3.61.546a2.74 2.74 0 0 0-2.023 2.951c.297 2.514 1.287 7.613-.446 13.279a1.19 1.19 0 0 0-.047.268 31.306 31.306 0 0 0 5.333-5.515z"/>
    </g>
</svg>
