<svg width="153px" height="43px" viewBox="0 0 153 43" version="1.1" xmlns="http://www.w3.org/2000/svg" xmlns:xlink="http://www.w3.org/1999/xlink">
  <g stroke="none" stroke-width="1" fill="none" fill-rule="evenodd">
    <g transform="translate(-644.000000, -14.000000)">
      <g transform="translate(644.000000, 14.112821)">
        <polygon id="Fill-1" fill="#F8AF00" points="0 44.0025641 153 44.0025641 153 0.848717949 0 0.848717949"></polygon>
        <polygon id="Fill-2" fill="#E31F13" points="0 6.73333333 153 6.73333333 153 0.848717949 0 0.848717949"></polygon>
        <path d="M52.3519435,28.3434825 C52.3519435,34.6496406 48.7531174,35.9210116 46.4820652,36.6933151 C45.140987,37.146953 42.1441826,37.304969 41.0126478,37.1574874 L39.4613609,32.6263765 C39.4613609,32.6263765 41.5627826,33.1827247 43.2790435,32.7073597 C46.1654217,31.9014777 46.2286174,29.5687654 46.2978,27.732487 C46.5312913,21.5402321 46.215313,11.5463739 46.215313,11.5463739 L52.6326652,11.5463739 C52.6326652,11.5463739 52.3519435,18.206093 52.3519435,28.3434825" id="Fill-3" fill="#192B68"></path>
        <path d="M55.3087683,23.6845102 C55.1338161,34.1570255 64.4255726,36.6108834 67.884703,36.5009306 C71.0697639,36.4008537 80.5444552,34.6705777 80.4626335,23.6845102 C80.3854683,12.5101402 71.3478248,10.8733571 67.884703,10.8733571 C64.4222465,10.8733571 55.4877117,12.7919356 55.3087683,23.6845102 M61.6589335,23.636447 C61.6589335,16.8674334 65.295677,15.031155 67.808203,14.9870422 C70.5495639,14.9416126 74.0053683,16.7739406 74.0951726,23.5416374 C74.1896335,30.5088294 70.6899248,32.2397638 67.9019987,32.2858518 C65.066177,32.333915 61.6589335,30.4054605 61.6589335,23.636447" id="Fill-5" fill="#192B68"></path>
        <path d="M92.4634878,35.8423986 L86.0574443,35.8423986 C86.4199878,23.3637376 86.160553,15.9218389 86.160553,15.9218389 C82.4207009,15.8987949 79.8922096,16.2358959 79.8922096,16.2358959 L79.8922096,11.5375513 L98.6094313,11.5375513 L98.6094313,16.2358959 C98.6094313,16.2358959 96.1088791,15.8309797 92.3144791,15.9257893 C92.3144791,15.9257893 92.2166922,22.9765982 92.4634878,35.8423986" id="Fill-7" fill="#192B68"></path>
        <path d="M120.972643,27.4921709 C120.972643,33.3433744 117.095756,36.5254231 110.744926,36.3897926 C108.416665,36.3390958 105.059313,35.9354964 102.798239,33.5092913 C101.420573,32.0048466 100.756687,29.5457214 100.84383,26.7652969 C100.84383,26.7652969 101.000821,19.9587546 100.670208,11.5384731 L107.043656,11.5384731 C106.754287,18.360817 106.876021,27.25383 106.876021,27.25383 C106.848747,30.8381612 109.053278,32.1714218 110.640487,32.1714218 C112.910873,32.1714218 114.942447,30.9810341 114.942447,26.9377978 C114.942447,26.9377978 115.116734,16.7246923 114.770821,11.5384731 L121.093713,11.5384731 C120.860887,16.3237265 120.972643,27.4921709 120.972643,27.4921709" id="Fill-9" fill="#192B68"></path>
        <path d="M139.571456,11.5375513 L145.437343,11.5375513 C145.437343,11.5375513 145.199195,16.7481313 145.199195,23.3327928 C145.199195,29.6540941 145.437343,35.8417402 145.437343,35.8417402 L140.205408,35.8417402 C136.52343,30.1347263 130.404095,22.4492196 130.404095,22.4492196 C130.404095,22.4492196 130.241782,23.714665 130.579713,35.8417402 L124.755069,35.8417402 C124.755069,35.8417402 124.862169,28.9028594 124.952639,23.777213 C125.073708,16.7922441 124.671252,11.5375513 124.671252,11.5375513 L129.994987,11.5375513 C129.994987,11.5375513 133.170069,16.2793503 139.725121,24.6989734 C139.725121,24.6989734 139.90473,17.5632309 139.571456,11.5375513" id="Fill-11" fill="#192B68"></path>
        <path d="M35.8206261,27.8811538 C35.8206261,33.4742644 29.1717783,38.0080089 20.970313,38.0080089 C12.7681826,38.0080089 6.11866957,33.4742644 6.11866957,27.8811538 C6.11866957,22.2900184 12.7681826,17.7549571 20.970313,17.7549571 C29.1717783,17.7549571 35.8206261,22.2900184 35.8206261,27.8811538" id="Fill-13" fill="#192B68"></path>
        <path d="M6.88233913,27.8811538 C6.88233913,33.0502546 13.1999087,37.2547989 20.970313,37.2547989 C28.7373913,37.2547989 35.0569565,33.0502546 35.0569565,27.8811538 C35.0569565,22.712053 28.7373913,18.508167 20.970313,18.508167 C13.1999087,18.508167 6.88233913,22.712053 6.88233913,27.8811538" id="Fill-15" fill="#FFFFFF"></path>
        <path d="M7.80739043,23.4382685 L33.8333557,23.4382685 C33.8333557,23.4382685 30.6602687,18.07889 20.8183774,17.8326483 C20.8183774,17.8326483 11.8006904,17.8688603 7.80739043,23.4382685" id="Fill-17" fill="#192B68"></path>
        <path d="M26.3984204,18.498291 L26.0751248,18.3527845 L26.0744596,9.14571466 L24.9662074,9.14571466 C24.9662074,9.14571466 17.0867074,8.5893664 15.6385291,18.452203 L15.3884074,18.5496462 L15.3884074,38.1179617 L26.4037422,38.1179617 L26.3984204,18.498291" id="Fill-19" fill="#192B68"></path>
        <path d="M18.31869,19.7880972 C18.8036335,18.8841136 19.7588857,18.2737765 20.8624813,18.2737765 C21.9640813,18.2737765 22.9206639,18.8834552 23.4036117,19.786122 L23.4089335,19.7867804 C24.4606422,21.6368853 25.1345074,24.5588658 25.1345074,27.846917 C25.1345074,31.1863233 24.4393552,34.1471495 23.3597074,35.9919871 L23.3563813,35.9933039 C22.8607943,36.8518579 21.9308204,37.4246662 20.8624813,37.4246662 C19.793477,37.4246662 18.8621726,36.8485659 18.3672509,35.9933039 L18.3632596,35.9919871 C17.2849422,34.1471495 16.5864639,31.1863233 16.5864639,27.846917 C16.5864639,24.5588658 17.2663161,21.6368853 18.3153639,19.7867804 L18.31869,19.7880972" id="Fill-21" fill="#FFFFFF"></path>
        <path d="M20.4332165,12.5023053 C20.4332165,13.0283671 20.8656078,13.4556689 21.3971165,13.4556689 C21.9299557,13.4556689 22.3643426,13.0283671 22.3643426,12.5023053 C22.3643426,11.975585 21.9299557,11.5509168 21.3971165,11.5509168 C20.8656078,11.5509168 20.4332165,11.975585 20.4332165,12.5023053" id="Fill-23" fill="#FFFFFF"></path>
        <path d="M21.39858,12.8636353 C21.6008061,12.8636353 21.76578,12.7036441 21.76578,12.5021736 C21.76578,12.3033367 21.6008061,12.1413702 21.39858,12.1413702 C21.1970191,12.1413702 21.03138,12.3033367 21.03138,12.5021736 C21.03138,12.7036441 21.1970191,12.8636353 21.39858,12.8636353" id="Fill-25" fill="#192B68"></path>
        <path d="M25.2940265,36.3985493 C28.56357,34.9184654 30.8213178,31.8220088 30.8213178,28.2475535 C30.8213178,25.4552778 29.441657,22.9507231 27.2757091,21.2856287 L27.5923526,20.5732396 C30.0250526,22.3726476 31.5843222,25.1425377 31.5843222,28.2475535 C31.5843222,32.203881 29.0578265,35.6130778 25.4164265,37.1715113 L25.2940265,36.3985493" id="Fill-27" fill="#192B68"></path>
        <path d="M16.2119465,37.0402921 C12.7268726,35.429845 10.3340857,32.0970226 10.3340857,28.2480144 C10.3340857,24.9895913 12.0496813,22.1018476 14.6905943,20.3142907 L15.1868465,20.8976334 C12.709577,22.5475846 11.0977552,25.2285906 11.0977552,28.2480144 C11.0977552,31.64536 13.1359813,34.6094782 16.1434291,36.1652781 L16.2119465,37.0402921" id="Fill-29" fill="#192B68"></path>
        <polygon id="Fill-31" fill="#192B68" points="6.69341739 27.7672505 15.8508 27.7672505 15.8508 27.0127238 6.69341739 27.0127238"></polygon>
        <polygon id="Fill-33" fill="#192B68" points="15.8507335 32.1511431 8.13820304 32.1511431 7.57809 31.3966164 15.8507335 31.3966164"></polygon>
        <polygon id="Fill-34" fill="#192B68" points="26.1503609 27.7672505 35.3070783 27.7672505 35.3070783 27.0127238 26.1503609 27.0127238"></polygon>
        <polygon id="Fill-35" fill="#192B68" points="26.1502943 32.1511431 33.8621596 32.1511431 34.4242683 31.3966164 26.1502943 31.3966164"></polygon>
      </g>
    </g>
  </g>
</svg>