<svg xmlns="http://www.w3.org/2000/svg" width="619" height="293" viewBox="0 0 619 293" version="1.1"><path d="M 68 89 C 66.900 90.100, 66 91.543, 66 92.206 C 66 92.869, 77.475 104.918, 91.500 118.981 C 111.291 138.826, 116.992 145.104, 116.965 147.025 C 116.937 148.933, 111.326 154.859, 92.465 172.901 C 78.462 186.294, 68 197.062, 68 198.079 C 68 199.057, 68.707 200.564, 69.571 201.429 C 70.961 202.818, 77.385 203, 125.137 203 C 160.444 203, 179.801 202.642, 181.066 201.965 C 182.899 200.984, 183 199.623, 183 175.965 L 183 151 161.960 151 C 139.164 151, 136.465 150.457, 131.367 144.847 C 123.364 136.040, 123.295 123.490, 131.202 114.508 C 136.988 107.935, 141.093 107, 164.182 107 L 183 107 183 98.571 C 183 92.242, 182.609 89.751, 181.429 88.571 C 180.038 87.181, 173.530 87, 124.929 87 C 71.333 87, 69.951 87.049, 68 89" stroke="none" fill="#f9f9fa" fill-rule="evenodd"/><path d="M 63.207 84.758 C 16.330 131.191, 4.922 142.993, 4.957 145.018 C 4.990 146.973, 13.233 155.758, 41.781 184.268 L 78.563 221 41.208 221 C 6.171 221, 3.874 221.109, 4.190 222.750 C 4.503 224.376, 7.323 224.518, 44.035 224.761 L 83.542 225.023 102.511 244.011 C 115.427 256.941, 122.169 263, 123.639 263 C 125.091 263, 132.181 256.779, 145.292 244 L 164.787 225 386.893 225 C 608.333 225, 609 224.994, 609 223 C 609 221.006, 608.333 221, 388.755 221 L 168.510 221 205.255 184.245 C 235.147 154.345, 242 146.994, 242 144.832 C 242 142.644, 231.742 132.041, 183.955 84.837 C 147.130 48.462, 125.104 27.412, 123.705 27.258 C 121.992 27.070, 108.501 39.892, 63.207 84.758 M 279.721 87.359 C 271.780 89.597, 267 95.474, 267 103 C 267 110.825, 270.545 114.733, 281.500 118.990 C 291.034 122.694, 293.119 125.403, 288.777 128.443 C 285.959 130.418, 279.492 130.438, 273.970 128.489 C 271.615 127.658, 269.474 127.193, 269.212 127.454 C 268.951 127.716, 268.683 130.521, 268.618 133.688 C 268.503 139.308, 268.572 139.461, 271.500 140.104 C 273.150 140.467, 278.349 140.817, 283.054 140.882 C 290.441 140.984, 292.332 140.639, 296.918 138.354 C 301.075 136.282, 302.634 134.816, 304.093 131.604 C 308.744 121.361, 303.997 112.997, 291 108.532 C 283.816 106.064, 282 104.837, 282 102.453 C 282 97.877, 287.687 96.168, 295.767 98.316 C 301.647 99.879, 301.341 100.168, 302.285 92.164 C 302.614 89.379, 302.283 88.678, 300.278 87.915 C 295.904 86.253, 284.721 85.950, 279.721 87.359 M 355.384 87.345 C 341.065 91.007, 333.988 100.124, 334.010 114.876 C 334.028 127.335, 340.464 135.981, 352.345 139.510 C 358.307 141.280, 371.418 141.451, 379.333 139.862 L 385 138.724 385 123.862 L 385 109 372.500 109 L 360 109 360 114.500 L 360 120 365.500 120 L 371 120 371 125.116 L 371 130.233 364.511 129.820 C 360.010 129.533, 357.175 128.776, 355.261 127.349 C 346.189 120.587, 346.456 106.653, 355.778 100.371 C 360.367 97.278, 366.513 96.663, 375.049 98.443 C 379.073 99.282, 382.469 99.863, 382.596 99.734 C 382.724 99.605, 382.957 97.052, 383.115 94.059 C 383.394 88.790, 383.309 88.592, 380.451 87.804 C 374.831 86.253, 360.664 85.994, 355.384 87.345 M 68 89 C 66.900 90.100, 66 91.543, 66 92.206 C 66 92.869, 77.475 104.918, 91.500 118.981 C 111.291 138.826, 116.992 145.104, 116.965 147.025 C 116.937 148.933, 111.326 154.859, 92.465 172.901 C 78.462 186.294, 68 197.062, 68 198.079 C 68 199.057, 68.707 200.564, 69.571 201.429 C 70.961 202.818, 77.385 203, 125.137 203 C 160.444 203, 179.801 202.642, 181.066 201.965 C 182.899 200.984, 183 199.623, 183 175.965 L 183 151 161.960 151 C 139.164 151, 136.465 150.457, 131.367 144.847 C 123.364 136.040, 123.295 123.490, 131.202 114.508 C 136.988 107.935, 141.093 107, 164.182 107 L 183 107 183 98.571 C 183 92.242, 182.609 89.751, 181.429 88.571 C 180.038 87.181, 173.530 87, 124.929 87 C 71.333 87, 69.951 87.049, 68 89 M 312.234 113.750 L 312.500 140.500 319.500 140.500 L 326.500 140.500 326.766 113.750 L 327.033 87 319.500 87 L 311.967 87 312.234 113.750 M 392.234 113.750 L 392.500 140.500 399.250 140.796 L 406 141.091 406.049 123.796 L 406.099 106.500 412.314 123.500 L 418.529 140.500 424.944 140.500 L 431.359 140.500 437.430 123.778 L 443.500 107.057 443.774 124.028 L 444.047 141 450.524 141 L 457 141 457 114 L 457 87 447.072 87 L 437.144 87 435.209 92.250 C 434.145 95.138, 431.602 102.558, 429.558 108.740 C 427.514 114.922, 425.532 120.171, 425.155 120.404 C 424.778 120.637, 421.835 113.217, 418.617 103.914 L 412.764 87 402.366 87 L 391.967 87 392.234 113.750 M 473.250 113.218 C 467.063 127.677, 462 139.844, 462 140.254 C 462 140.664, 465.188 141, 469.084 141 L 476.169 141 478.820 135 L 481.472 129 491.572 129 L 501.673 129 504.261 135 L 506.850 141 514.425 141 C 518.591 141, 521.971 140.662, 521.935 140.250 C 521.899 139.838, 516.819 127.800, 510.647 113.500 L 499.425 87.500 491.962 87.213 L 484.500 86.927 473.250 113.218 M 488.971 109.792 C 487.612 113.468, 486.350 116.818, 486.167 117.237 C 485.983 117.657, 488.346 118, 491.417 118 C 494.488 118, 497 117.829, 497 117.619 C 497 117.160, 491.913 103.583, 491.637 103.305 C 491.530 103.197, 490.331 106.117, 488.971 109.792 M 499.462 156.064 C 494.729 157.440, 490.849 162.145, 490.297 167.174 C 489.631 173.254, 492.654 177.240, 501.429 181.856 C 509.167 185.925, 510.584 187.537, 509.660 191.219 C 508.697 195.055, 504.080 196.593, 497.846 195.154 C 490.937 193.559, 491 193.534, 491 197.900 C 491 201.751, 491.063 201.816, 495.971 202.993 C 506.816 205.595, 516.801 201.167, 519.067 192.750 C 521.112 185.158, 517.538 179.912, 506.317 174.032 C 499.671 170.550, 498.424 168.944, 500.032 165.939 C 501.287 163.596, 505.036 162.553, 509.304 163.361 C 516.678 164.757, 516.500 164.827, 516.500 160.510 C 516.500 156.886, 516.225 156.461, 513.500 155.878 C 509.195 154.957, 502.984 155.040, 499.462 156.064 M 268 179.500 L 268 203 272.500 203 L 277 203 277 194.134 L 277 185.269 283.968 184.770 C 291.731 184.215, 295.051 182.553, 298.103 177.696 C 301.089 172.944, 300.313 164.980, 296.473 160.972 C 292.760 157.096, 288.565 156.012, 277.250 156.006 L 268 156 268 179.500 M 312 178.154 C 306.775 190.356, 302.355 200.938, 302.177 201.670 C 301.944 202.626, 303.103 203, 306.293 203 C 310.728 203, 310.734 202.995, 312.727 197.750 L 314.722 192.500 325.576 192.500 L 336.430 192.500 338.458 197.750 L 340.486 203 345.212 203 C 349.297 203, 349.848 202.763, 349.277 201.250 C 348.913 200.287, 344.502 189.825, 339.474 178 L 330.331 156.500 325.916 156.235 L 321.500 155.970 312 178.154 M 359 179.500 L 359 203 364 203 L 369 203 369 179.500 L 369 156 364 156 L 359 156 359 179.500 M 390 179.500 L 390 203 394.500 203 L 399 203 399.005 186.250 L 399.011 169.500 408.573 186.250 L 418.134 203 423.067 203 L 428 203 428 179.500 L 428 156 424.024 156 L 420.048 156 419.774 172.586 L 419.500 189.172 410.047 172.586 L 400.594 156 395.297 156 L 390 156 390 179.500 M 443 160 L 443 164 450.500 164 L 458 164 458 183.500 L 458 203 462 203 L 466 203 466 183.500 L 466 164 473 164 L 480 164 480 160 L 480 156 461.500 156 L 443 156 443 160 M 277 170.500 L 277 177 281.826 177 C 287.175 177, 291 174.189, 291 170.258 C 291 166.970, 286.428 164, 281.365 164 L 277 164 277 170.500 M 321.880 175.094 L 318.260 184 325.643 184 L 333.027 184 331.430 180.250 C 330.552 178.188, 328.933 174.250, 327.833 171.500 C 326.733 168.750, 325.758 166.430, 325.666 166.344 C 325.575 166.258, 323.871 170.195, 321.880 175.094" stroke="none" fill="#212f5f" fill-rule="evenodd"/></svg>