<svg xmlns="http://www.w3.org/2000/svg" width="3072" height="1024" viewBox="0 0 3072 1024" version="1.1"><path d="M 2409.441 367.578 C 2402.821 371.565, 2404.638 371.475, 2380.945 368.984 C 2368.900 367.717, 2367.989 367.756, 2358.508 369.947 C 2337.107 374.892, 2323.580 382.130, 2310.289 395.746 C 2296.798 409.567, 2292.405 420.831, 2285.615 459 C 2283.707 469.725, 2279.426 492.900, 2276.101 510.500 C 2272.776 528.100, 2266.011 564.325, 2261.066 591 C 2256.122 617.675, 2250.728 646.700, 2249.080 655.500 C 2247.431 664.300, 2244.279 681.400, 2242.075 693.500 C 2239.871 705.600, 2235.756 728.100, 2232.931 743.500 C 2230.106 758.900, 2226.055 781.400, 2223.930 793.500 C 2221.805 805.600, 2219.122 818.863, 2217.968 822.973 C 2214.622 834.890, 2208.799 845.023, 2201.229 852.104 C 2189.918 862.686, 2180.799 865.578, 2161.500 864.706 C 2144.445 863.935, 2132.504 860.413, 2103.419 847.575 C 2094.940 843.833, 2087.837 842.322, 2083.654 843.372 C 2080.197 844.240, 2077.187 849.589, 2075.439 857.969 C 2073.642 866.587, 2069 902.564, 2069 907.872 C 2069 911.414, 2069.265 911.761, 2072.750 912.782 C 2079.848 914.860, 2098.110 918, 2103.100 918 C 2108.219 918, 2112.638 916.346, 2114.945 913.566 C 2116.821 911.305, 2121.507 911.617, 2135.339 914.923 C 2152.730 919.079, 2162.273 920.196, 2180.500 920.208 C 2199.326 920.220, 2206.588 918.691, 2221.706 911.530 C 2242.170 901.835, 2255.040 888.973, 2265.763 867.500 C 2273.932 851.139, 2277.773 835.677, 2287.994 778 C 2291.356 759.025, 2296.370 731.350, 2299.134 716.500 C 2304.057 690.059, 2306.233 678.132, 2309.987 657 C 2311.013 651.225, 2314.339 633, 2317.377 616.500 C 2320.415 600, 2324.743 576.150, 2326.994 563.500 C 2332.622 531.873, 2342.551 478.105, 2345.549 463.017 C 2348.602 447.652, 2352.152 439.789, 2359.524 432.060 C 2371.901 419.085, 2385.738 417.518, 2417.444 425.504 C 2425.079 427.427, 2432.573 429, 2434.098 429 C 2443.014 429, 2445.609 423.722, 2452.977 390.601 C 2456.697 373.880, 2456.764 371.547, 2453.582 369.462 C 2449.882 367.038, 2433.509 364.028, 2423.941 364.013 C 2415.887 364.001, 2415.032 364.211, 2409.441 367.578 M 2527.735 365.898 C 2523.051 366.323, 2519.384 367.187, 2518.493 368.078 C 2516.607 369.965, 2513.712 381.598, 2510.552 400 C 2507.683 416.703, 2501.601 450.235, 2496.586 477 C 2491.780 502.649, 2478.434 575.968, 2475.925 590.500 C 2474.786 597.100, 2471.881 612.850, 2469.470 625.500 C 2467.059 638.150, 2463.917 655.475, 2462.488 664 C 2461.058 672.525, 2458.794 685.125, 2457.457 692 C 2456.120 698.875, 2452.799 716.875, 2450.077 732 C 2447.354 747.125, 2442.641 773, 2439.602 789.500 C 2436.564 806, 2432.752 827.150, 2431.132 836.500 C 2429.511 845.850, 2426.095 865.189, 2423.541 879.475 C 2420.986 893.762, 2419.146 906.447, 2419.452 907.665 C 2420.238 910.797, 2424.368 911.206, 2451.340 910.824 C 2473.443 910.510, 2474.237 910.429, 2475.952 908.309 C 2478.259 905.458, 2480.989 894.280, 2485.552 869 C 2489.573 846.724, 2491.597 839.972, 2495.515 835.759 C 2499.914 831.029, 2503.613 829.703, 2510.935 830.232 C 2524.094 831.183, 2535.758 840.295, 2551.733 862.102 C 2556.005 867.934, 2562.944 877.384, 2567.154 883.102 C 2583.229 904.941, 2597.484 915.583, 2610.449 915.427 C 2613.777 915.387, 2620.775 914.309, 2626 913.031 C 2634.843 910.869, 2639.581 909.029, 2660.500 899.632 C 2665.451 897.408, 2669.262 896.273, 2670.500 896.653 C 2671.600 896.992, 2676.948 899.892, 2682.384 903.097 C 2697.690 912.124, 2708.529 914.946, 2728 914.974 C 2743.376 914.997, 2758.776 912.256, 2779.382 905.829 C 2791.795 901.958, 2795.372 902.240, 2811.780 908.377 C 2835.860 917.385, 2847.570 915.178, 2854.142 900.392 C 2856.847 894.307, 2859 882.849, 2859 874.543 L 2859 867.217 2855.250 865.721 C 2853.188 864.899, 2847.675 863.470, 2843 862.547 C 2829.517 859.884, 2830.644 860.838, 2831.297 852.639 C 2831.610 848.713, 2833.928 834.625, 2836.448 821.334 C 2845.271 774.796, 2846.690 757.928, 2842.999 743.496 C 2838.777 726.987, 2826.743 715.184, 2809.267 710.407 C 2804.665 709.150, 2793.702 708.633, 2755 707.848 C 2707.002 706.874, 2691.484 707.135, 2688.051 708.973 C 2685.596 710.286, 2682.239 718.525, 2679.962 728.824 C 2676.904 742.653, 2677.264 744.745, 2683 746.458 C 2684.375 746.869, 2706.650 747.545, 2732.500 747.961 C 2784.256 748.793, 2787.799 749.208, 2794.189 755.177 C 2797.163 757.955, 2797.233 758.223, 2796.563 764.270 C 2795.046 777.961, 2791.510 787, 2787.673 787 C 2786.415 787, 2780.461 786.054, 2774.443 784.899 C 2765.526 783.186, 2759.427 782.780, 2741.500 782.701 C 2710.094 782.565, 2696.186 784.975, 2678.044 793.699 C 2671.226 796.976, 2667.179 799.702, 2663.544 803.464 C 2654.041 813.295, 2647.099 828.208, 2647.002 839 C 2646.921 847.980, 2645.519 852.113, 2641.179 856.168 C 2636.923 860.145, 2631.901 861.986, 2625.285 861.994 C 2620.175 862.001, 2617.076 859.530, 2607.294 847.646 C 2603.606 843.166, 2596.508 835, 2591.520 829.500 C 2575.895 812.269, 2573 808.823, 2573 807.447 C 2573 806.712, 2577.810 802.149, 2583.688 797.305 C 2602.700 781.643, 2610.008 774.923, 2618.142 765.624 C 2630.541 751.450, 2638.905 736.312, 2642.022 722.402 C 2643.120 717.504, 2642.004 711.057, 2639.743 709.227 C 2637.745 707.610, 2604.220 706.605, 2597.666 707.965 C 2591.095 709.330, 2589.214 711.212, 2582.908 722.731 C 2575.777 735.758, 2571.080 742.126, 2562.060 751 C 2551.767 761.125, 2540.852 767.677, 2527.040 772.023 C 2513.265 776.358, 2505.721 775.721, 2504.311 770.104 C 2503.959 768.700, 2504.661 762.589, 2505.871 756.525 C 2508.446 743.623, 2517.457 695.309, 2519.585 683 C 2520.393 678.325, 2522.828 665.050, 2524.995 653.500 C 2527.163 641.950, 2529.864 627.100, 2530.998 620.500 C 2532.131 613.900, 2534.361 601.525, 2535.953 593 C 2537.545 584.475, 2539.819 571.875, 2541.005 565 C 2542.192 558.125, 2545.813 538.100, 2549.052 520.500 C 2552.292 502.900, 2556.070 482.200, 2557.448 474.500 C 2558.826 466.800, 2563.174 442.950, 2567.110 421.500 C 2571.046 400.050, 2574.479 379.279, 2574.738 375.341 C 2575.180 368.622, 2575.065 368.103, 2572.855 366.881 C 2570.148 365.384, 2540.534 364.740, 2527.735 365.898 M 2385 586.856 C 2379.775 587.210, 2374.542 588.049, 2373.370 588.721 C 2372.199 589.392, 2370.510 591.766, 2369.618 593.996 C 2367.558 599.145, 2362.578 626.899, 2362.534 633.479 C 2362.482 641.084, 2363.675 641.439, 2390.500 641.780 C 2414.676 642.087, 2416.026 641.831, 2419.239 636.331 C 2421.489 632.478, 2425.342 617.100, 2427.516 603.299 C 2429.231 592.410, 2428.842 590.056, 2424.989 587.994 C 2422.556 586.692, 2397.810 585.988, 2385 586.856 M 2360 707.487 C 2359.175 707.696, 2356.811 708.142, 2354.747 708.479 C 2347.700 709.629, 2346.951 712.601, 2331.068 802.500 C 2327.764 821.200, 2324.151 840.915, 2323.040 846.312 C 2319.355 864.207, 2312.866 903.994, 2313.185 906.729 C 2313.405 908.611, 2314.252 909.629, 2316 910.111 C 2317.375 910.490, 2329.380 910.845, 2342.679 910.900 C 2362.926 910.984, 2367.101 910.756, 2368.356 909.501 C 2370.699 907.158, 2373.589 898.466, 2375.838 887 C 2379.852 866.529, 2383.021 849.275, 2386.031 831.500 C 2389.251 812.483, 2401.548 745.101, 2405.193 726.500 C 2406.378 720.450, 2407.056 714.340, 2406.698 712.921 C 2405.571 708.452, 2402.209 707.730, 2381 707.406 C 2370.275 707.242, 2360.825 707.279, 2360 707.487 M 2724.060 823.527 C 2708.400 826.361, 2697.206 832.999, 2694.064 841.315 C 2692.423 845.658, 2692.801 852.161, 2694.893 855.593 C 2698.812 862.019, 2710.495 869.591, 2720.291 872.054 C 2723.429 872.842, 2729.641 873.081, 2738.291 872.745 C 2752.161 872.206, 2760.516 870.293, 2770.040 865.476 C 2774.936 862.999, 2781.860 856.106, 2784.415 851.164 C 2789.251 841.812, 2782.388 830.212, 2769.291 825.600 C 2759.092 822.008, 2737.835 821.034, 2724.060 823.527" stroke="none" fill="#fbad21" fill-rule="evenodd"/><path d="M 2479.618 5.250 C 2478.128 8.138, 2475.817 12.300, 2474.482 14.500 C 2473.147 16.700, 2471.365 19.850, 2470.520 21.500 C 2469.676 23.150, 2467.880 26.300, 2466.528 28.500 C 2465.176 30.700, 2463.349 33.850, 2462.467 35.500 C 2461.584 37.150, 2459.772 40.300, 2458.438 42.500 C 2457.105 44.700, 2455.376 47.850, 2454.595 49.500 C 2453.815 51.150, 2452.799 52.871, 2452.338 53.325 C 2451.522 54.128, 2445.721 64.219, 2442.321 70.750 C 2441.391 72.537, 2440.263 74, 2439.815 74 C 2439.367 74, 2439 74.583, 2439 75.296 C 2439 76.009, 2437.088 79.723, 2434.750 83.550 C 2432.412 87.377, 2429.185 92.982, 2427.579 96.004 C 2425.972 99.027, 2424.397 101.725, 2424.079 102.001 C 2423.760 102.276, 2422.655 104.076, 2421.623 106.001 C 2419.229 110.461, 2416.229 115.674, 2413.854 119.500 C 2412.829 121.150, 2411.300 123.850, 2410.455 125.500 C 2409.610 127.150, 2407.821 130.300, 2406.478 132.500 C 2405.136 134.700, 2403.481 137.737, 2402.800 139.250 C 2402.119 140.762, 2401.210 142, 2400.781 142 C 2400.351 142, 2400 142.940, 2400 144.090 C 2400 145.239, 2399.119 146.927, 2398.042 147.840 C 2396.965 148.753, 2394.543 152.425, 2392.661 156 C 2386.336 168.011, 2385.503 169.496, 2384.789 170.034 C 2384.398 170.329, 2383.372 172.129, 2382.509 174.035 C 2381.647 175.941, 2378.869 180.875, 2376.336 185 C 2373.803 189.125, 2370.378 194.975, 2368.725 198 C 2367.072 201.025, 2365.195 204.175, 2364.553 205 C 2363.912 205.825, 2362.860 207.625, 2362.216 209 C 2361.572 210.375, 2359.907 213.300, 2358.516 215.500 C 2357.125 217.700, 2355.284 220.850, 2354.425 222.500 C 2353.566 224.150, 2351.881 227.147, 2350.681 229.161 C 2347.008 235.324, 2342.379 243.418, 2341.622 245 C 2341.228 245.825, 2339.914 248.160, 2338.702 250.188 C 2335.032 256.334, 2312.743 294.881, 2308.975 301.599 C 2307.036 305.056, 2305.083 308.248, 2304.636 308.692 C 2304.189 309.136, 2303.204 310.850, 2302.447 312.500 C 2301.689 314.150, 2299.926 317.300, 2298.528 319.500 C 2297.131 321.700, 2295.284 324.850, 2294.425 326.500 C 2293.566 328.150, 2291.881 331.147, 2290.681 333.161 C 2287.008 339.324, 2282.379 347.418, 2281.622 349 C 2281.228 349.825, 2279.914 352.154, 2278.702 354.177 C 2275.753 359.099, 2253.246 398, 2249.636 404.413 C 2248.061 407.211, 2246.053 410.625, 2245.174 412 C 2244.294 413.375, 2242.721 416.075, 2241.677 418 C 2239.814 421.435, 2239.233 422.435, 2234.430 430.500 C 2233.120 432.700, 2231.629 435.430, 2231.118 436.566 C 2230.607 437.702, 2229.056 440.303, 2227.670 442.344 C 2226.285 444.386, 2224.171 447.956, 2222.973 450.278 C 2221.775 452.600, 2219.828 456.155, 2218.647 458.177 C 2213.276 467.374, 2206.280 479.637, 2205.625 481 C 2205.229 481.825, 2203.914 484.152, 2202.702 486.170 C 2194.641 499.606, 2188.235 510.617, 2186.632 513.796 C 2185.605 515.833, 2184.480 517.725, 2184.132 518.001 C 2183.784 518.276, 2182.655 520.076, 2181.623 522.001 C 2179.392 526.159, 2176.411 531.361, 2173.888 535.500 C 2172.882 537.150, 2171.355 539.850, 2170.494 541.500 C 2169.634 543.150, 2167.824 546.300, 2166.472 548.500 C 2165.120 550.700, 2163.305 553.850, 2162.438 555.500 C 2161.572 557.150, 2159.772 560.300, 2158.438 562.500 C 2157.105 564.700, 2155.376 567.850, 2154.595 569.500 C 2153.815 571.150, 2152.799 572.871, 2152.338 573.325 C 2151.522 574.128, 2145.721 584.219, 2142.321 590.750 C 2141.391 592.538, 2140.263 594, 2139.815 594 C 2139.367 594, 2139 594.489, 2139 595.088 C 2139 596.114, 2133.536 606.049, 2129.782 611.846 C 2128.837 613.306, 2127.357 616.059, 2126.493 617.965 C 2125.629 619.871, 2124.602 621.671, 2124.211 621.966 C 2123.820 622.260, 2122.655 624.076, 2121.623 626.001 C 2119.229 630.461, 2116.229 635.674, 2113.854 639.500 C 2112.829 641.150, 2111.287 643.850, 2110.427 645.500 C 2109.566 647.150, 2107.772 650.300, 2106.438 652.500 C 2105.105 654.700, 2103.305 657.850, 2102.438 659.500 C 2101.572 661.150, 2099.881 664.155, 2098.681 666.177 C 2097.482 668.199, 2094.123 674.049, 2091.217 679.177 C 2088.311 684.305, 2085.496 689.175, 2084.961 690 C 2084.426 690.825, 2083.232 692.962, 2082.309 694.750 C 2081.385 696.538, 2080.263 698, 2079.815 698 C 2079.367 698, 2079 698.583, 2079 699.296 C 2079 700.009, 2077.088 703.723, 2074.750 707.550 C 2072.412 711.377, 2069.185 716.982, 2067.579 720.004 C 2065.972 723.027, 2064.397 725.725, 2064.079 726 C 2063.397 726.589, 2060.660 731.265, 2058.518 735.500 C 2057.684 737.150, 2055.873 740.300, 2054.494 742.500 C 2053.115 744.700, 2051.297 747.850, 2050.453 749.500 C 2049.609 751.150, 2047.828 754.300, 2046.495 756.500 C 2045.161 758.700, 2043.349 761.850, 2042.467 763.500 C 2041.584 765.150, 2039.881 768.155, 2038.681 770.177 C 2030.948 783.213, 2026 792.127, 2026 793.024 C 2026 793.595, 2025.325 794.322, 2024.500 794.638 C 2023.675 794.955, 2022.995 795.728, 2022.989 796.357 C 2022.983 796.986, 2020.451 801.775, 2017.363 807 C 2014.274 812.225, 2010.389 818.975, 2008.730 822 C 2007.070 825.025, 2005.289 828.042, 2004.772 828.704 C 2004.254 829.367, 2003.050 831.392, 2002.096 833.204 C 2000.087 837.021, 1996.528 843.193, 1993.854 847.500 C 1992.829 849.150, 1991.300 851.850, 1990.455 853.500 C 1989.610 855.150, 1987.828 858.300, 1986.495 860.500 C 1985.161 862.700, 1983.349 865.850, 1982.467 867.500 C 1981.584 869.150, 1979.881 872.154, 1978.681 874.177 C 1975.282 879.906, 1952.834 918.732, 1949.636 924.413 C 1948.061 927.211, 1946.053 930.625, 1945.174 932 C 1944.294 933.375, 1942.721 936.075, 1941.677 938 C 1939.762 941.530, 1938.787 943.209, 1934.413 950.500 C 1933.094 952.700, 1931.305 955.850, 1930.438 957.500 C 1929.572 959.150, 1927.772 962.300, 1926.438 964.500 C 1925.105 966.700, 1923.305 969.850, 1922.438 971.500 C 1921.572 973.150, 1919.881 976.160, 1918.681 978.188 C 1917.482 980.216, 1912.919 988.091, 1908.542 995.688 C 1904.165 1003.285, 1900.278 1009.725, 1899.904 1010 C 1898.517 1011.021, 1896.101 1018.100, 1896.651 1019.533 C 1896.964 1020.349, 1898.183 1021.249, 1899.360 1021.531 C 1900.537 1021.814, 2164.975 1021.922, 2487 1021.773 L 3072.500 1021.500 3072.510 945.500 L 3072.520 869.500 3072.253 938.750 C 3072.106 976.838, 3071.633 1008, 3071.202 1008 C 3070.771 1008, 3069.167 1005.638, 3067.638 1002.750 C 3066.108 999.862, 3062.660 993.900, 3059.974 989.500 C 3057.289 985.100, 3054.393 980.150, 3053.539 978.500 C 3052.684 976.850, 3050.910 973.700, 3049.596 971.500 C 3048.281 969.300, 3046.225 965.600, 3045.027 963.278 C 3043.829 960.956, 3041.866 957.581, 3040.665 955.778 C 3039.464 953.975, 3037.914 951.375, 3037.221 950 C 3036.528 948.625, 3034.875 945.700, 3033.549 943.500 C 3032.223 941.300, 3030.416 938.150, 3029.533 936.500 C 3028.651 934.850, 3026.839 931.700, 3025.505 929.500 C 3024.172 927.300, 3022.389 924.150, 3021.543 922.500 C 3020.697 920.850, 3019.109 918.150, 3018.014 916.500 C 3016.919 914.850, 3015.231 911.925, 3014.262 910 C 3013.293 908.075, 3012.256 906.275, 3011.958 906 C 3011.660 905.725, 3007.835 899.285, 3003.458 891.688 C 2999.081 884.091, 2994.518 876.216, 2993.319 874.188 C 2992.119 872.160, 2990.435 869.150, 2989.576 867.500 C 2986.366 861.335, 2980.471 851.121, 2979.662 850.325 C 2979.201 849.871, 2978.185 848.150, 2977.405 846.500 C 2976.624 844.850, 2974.880 841.700, 2973.528 839.500 C 2972.176 837.300, 2970.349 834.150, 2969.467 832.500 C 2968.584 830.850, 2966.779 827.700, 2965.455 825.500 C 2964.131 823.300, 2962.638 820.600, 2962.138 819.500 C 2961.638 818.400, 2959.604 815.039, 2957.619 812.031 C 2955.634 809.022, 2953.523 805.085, 2952.928 803.281 C 2952.332 801.476, 2951.430 800, 2950.922 800 C 2950.415 800, 2950 799.325, 2950 798.500 C 2950 797.675, 2949.100 796.100, 2948 795 C 2946.900 793.900, 2946 792.617, 2946 792.148 C 2946 791.680, 2943.531 787.292, 2940.512 782.398 C 2937.494 777.504, 2934.353 772.150, 2933.532 770.500 C 2932.712 768.850, 2931.596 766.825, 2931.053 766 C 2930.510 765.175, 2927.689 760.305, 2924.783 755.177 C 2921.877 750.049, 2918.518 744.199, 2917.319 742.177 C 2916.119 740.155, 2914.416 737.150, 2913.533 735.500 C 2912.651 733.850, 2910.824 730.700, 2909.472 728.500 C 2908.120 726.300, 2906.323 723.150, 2905.478 721.500 C 2904.633 719.850, 2903.117 717.150, 2902.110 715.500 C 2901.103 713.850, 2899.321 710.925, 2898.149 709 C 2896.977 707.075, 2895.227 703.925, 2894.259 702 C 2893.292 700.075, 2892.229 698.275, 2891.897 698 C 2891.565 697.725, 2889.974 695.025, 2888.361 692 C 2886.749 688.975, 2883.195 682.764, 2880.465 678.198 C 2871.824 663.747, 2871.111 662.533, 2870.375 661 C 2869.640 659.469, 2861.258 644.816, 2857.319 638.177 C 2856.119 636.155, 2854.416 633.150, 2853.533 631.500 C 2852.651 629.850, 2850.839 626.700, 2849.505 624.500 C 2848.172 622.300, 2846.390 619.150, 2845.545 617.500 C 2844.700 615.850, 2843.171 613.150, 2842.146 611.500 C 2839.771 607.674, 2836.771 602.461, 2834.377 598.001 C 2833.345 596.076, 2832.229 594.276, 2831.897 594.001 C 2831.565 593.725, 2829.974 591.025, 2828.361 588 C 2826.749 584.975, 2823.195 578.764, 2820.465 574.198 C 2811.824 559.747, 2811.111 558.533, 2810.375 557 C 2809.640 555.469, 2801.258 540.816, 2797.319 534.177 C 2796.119 532.155, 2794.416 529.150, 2793.533 527.500 C 2792.651 525.850, 2790.839 522.700, 2789.505 520.500 C 2788.172 518.300, 2786.391 515.150, 2785.547 513.500 C 2784.703 511.850, 2782.877 508.700, 2781.489 506.500 C 2780.101 504.300, 2778.568 501.577, 2778.083 500.449 C 2777.598 499.321, 2775.797 496.318, 2774.082 493.776 C 2772.366 491.234, 2770.282 487.657, 2769.449 485.827 C 2768.617 483.997, 2767.163 481.304, 2766.218 479.842 C 2764.051 476.488, 2752.627 456.814, 2748 448.465 C 2746.075 444.991, 2744.123 441.778, 2743.662 441.325 C 2743.201 440.871, 2742.185 439.150, 2741.405 437.500 C 2740.624 435.850, 2738.895 432.700, 2737.562 430.500 C 2736.228 428.300, 2734.428 425.150, 2733.562 423.500 C 2732.695 421.850, 2730.880 418.700, 2729.528 416.500 C 2728.176 414.300, 2726.366 411.150, 2725.506 409.500 C 2724.645 407.850, 2723.118 405.150, 2722.112 403.500 C 2719.589 399.361, 2716.608 394.159, 2714.377 390.001 C 2713.345 388.076, 2712.216 386.276, 2711.868 386.001 C 2711.520 385.725, 2710.395 383.854, 2709.368 381.842 C 2707.873 378.914, 2694.988 356.601, 2690.980 350 C 2690.479 349.175, 2688.591 345.872, 2686.785 342.661 C 2684.978 339.449, 2682.518 335.174, 2681.319 333.161 C 2680.119 331.147, 2678.436 328.150, 2677.579 326.500 C 2675.138 321.804, 2670.053 312.847, 2667.643 309 C 2664.026 303.227, 2663.101 301.641, 2661.517 298.500 C 2660.685 296.850, 2659.109 294.150, 2658.014 292.500 C 2656.919 290.850, 2655.231 287.925, 2654.262 286 C 2653.293 284.075, 2652.216 282.275, 2651.868 282 C 2651.520 281.725, 2650.395 279.833, 2649.368 277.796 C 2647.762 274.612, 2644.184 268.454, 2633.319 250.170 C 2632.119 248.152, 2630.435 245.150, 2629.576 243.500 C 2626.366 237.335, 2620.471 227.121, 2619.662 226.325 C 2619.201 225.871, 2618.193 224.150, 2617.422 222.500 C 2615.742 218.906, 2610.685 209.855, 2607.643 205 C 2604.018 199.213, 2603.099 197.637, 2601.521 194.500 C 2600.692 192.850, 2598.875 189.700, 2597.484 187.500 C 2596.093 185.300, 2594.428 182.375, 2593.784 181 C 2593.140 179.625, 2592.080 177.825, 2591.428 177 C 2590.777 176.175, 2589.159 173.475, 2587.833 171 C 2586.507 168.525, 2583.190 162.764, 2580.461 158.198 C 2573.417 146.410, 2571.497 143.065, 2569.027 138.278 C 2567.829 135.956, 2565.866 132.581, 2564.665 130.778 C 2563.464 128.975, 2561.914 126.375, 2561.221 125 C 2560.528 123.625, 2558.875 120.700, 2557.549 118.500 C 2556.223 116.300, 2554.416 113.150, 2553.533 111.500 C 2552.651 109.850, 2550.824 106.700, 2549.472 104.500 C 2548.120 102.300, 2546.323 99.150, 2545.478 97.500 C 2544.633 95.850, 2543.118 93.150, 2542.112 91.500 C 2539.438 87.113, 2535.870 80.931, 2534.032 77.500 C 2533.148 75.850, 2531.697 73.375, 2530.807 72 C 2529.917 70.625, 2528.341 67.925, 2527.305 66 C 2525.774 63.156, 2520.480 54.145, 2514.969 45 C 2514.471 44.175, 2510.787 37.733, 2506.782 30.684 C 2502.777 23.636, 2498.540 16.211, 2497.366 14.184 C 2496.193 12.158, 2493.982 8.138, 2492.453 5.250 C 2489.871 0.374, 2489.411 0, 2486 0 C 2482.580 0, 2482.141 0.361, 2479.618 5.250 M 2409.441 367.578 C 2402.821 371.565, 2404.638 371.475, 2380.945 368.984 C 2368.900 367.717, 2367.989 367.756, 2358.508 369.947 C 2337.107 374.892, 2323.580 382.130, 2310.289 395.746 C 2296.798 409.567, 2292.405 420.831, 2285.615 459 C 2283.707 469.725, 2279.426 492.900, 2276.101 510.500 C 2272.776 528.100, 2266.011 564.325, 2261.066 591 C 2256.122 617.675, 2250.728 646.700, 2249.080 655.500 C 2247.431 664.300, 2244.279 681.400, 2242.075 693.500 C 2239.871 705.600, 2235.756 728.100, 2232.931 743.500 C 2230.106 758.900, 2226.055 781.400, 2223.930 793.500 C 2221.805 805.600, 2219.122 818.863, 2217.968 822.973 C 2214.622 834.890, 2208.799 845.023, 2201.229 852.104 C 2189.918 862.686, 2180.799 865.578, 2161.500 864.706 C 2144.445 863.935, 2132.504 860.413, 2103.419 847.575 C 2094.940 843.833, 2087.837 842.322, 2083.654 843.372 C 2080.197 844.240, 2077.187 849.589, 2075.439 857.969 C 2073.642 866.587, 2069 902.564, 2069 907.872 C 2069 911.414, 2069.265 911.761, 2072.750 912.782 C 2079.848 914.860, 2098.110 918, 2103.100 918 C 2108.219 918, 2112.638 916.346, 2114.945 913.566 C 2116.821 911.305, 2121.507 911.617, 2135.339 914.923 C 2152.730 919.079, 2162.273 920.196, 2180.500 920.208 C 2199.326 920.220, 2206.588 918.691, 2221.706 911.530 C 2242.170 901.835, 2255.040 888.973, 2265.763 867.500 C 2273.932 851.139, 2277.773 835.677, 2287.994 778 C 2291.356 759.025, 2296.370 731.350, 2299.134 716.500 C 2304.057 690.059, 2306.233 678.132, 2309.987 657 C 2311.013 651.225, 2314.339 633, 2317.377 616.500 C 2320.415 600, 2324.743 576.150, 2326.994 563.500 C 2332.622 531.873, 2342.551 478.105, 2345.549 463.017 C 2348.602 447.652, 2352.152 439.789, 2359.524 432.060 C 2371.901 419.085, 2385.738 417.518, 2417.444 425.504 C 2425.079 427.427, 2432.573 429, 2434.098 429 C 2443.014 429, 2445.609 423.722, 2452.977 390.601 C 2456.697 373.880, 2456.764 371.547, 2453.582 369.462 C 2449.882 367.038, 2433.509 364.028, 2423.941 364.013 C 2415.887 364.001, 2415.032 364.211, 2409.441 367.578 M 2527.735 365.898 C 2523.051 366.323, 2519.384 367.187, 2518.493 368.078 C 2516.607 369.965, 2513.712 381.598, 2510.552 400 C 2507.683 416.703, 2501.601 450.235, 2496.586 477 C 2491.780 502.649, 2478.434 575.968, 2475.925 590.500 C 2474.786 597.100, 2471.881 612.850, 2469.470 625.500 C 2467.059 638.150, 2463.917 655.475, 2462.488 664 C 2461.058 672.525, 2458.794 685.125, 2457.457 692 C 2456.120 698.875, 2452.799 716.875, 2450.077 732 C 2447.354 747.125, 2442.641 773, 2439.602 789.500 C 2436.564 806, 2432.752 827.150, 2431.132 836.500 C 2429.511 845.850, 2426.095 865.189, 2423.541 879.475 C 2420.986 893.762, 2419.146 906.447, 2419.452 907.665 C 2420.238 910.797, 2424.368 911.206, 2451.340 910.824 C 2473.443 910.510, 2474.237 910.429, 2475.952 908.309 C 2478.259 905.458, 2480.989 894.280, 2485.552 869 C 2489.573 846.724, 2491.597 839.972, 2495.515 835.759 C 2499.914 831.029, 2503.613 829.703, 2510.935 830.232 C 2524.094 831.183, 2535.758 840.295, 2551.733 862.102 C 2556.005 867.934, 2562.944 877.384, 2567.154 883.102 C 2583.229 904.941, 2597.484 915.583, 2610.449 915.427 C 2613.777 915.387, 2620.775 914.309, 2626 913.031 C 2634.843 910.869, 2639.581 909.029, 2660.500 899.632 C 2665.451 897.408, 2669.262 896.273, 2670.500 896.653 C 2671.600 896.992, 2676.948 899.892, 2682.384 903.097 C 2697.690 912.124, 2708.529 914.946, 2728 914.974 C 2743.376 914.997, 2758.776 912.256, 2779.382 905.829 C 2791.795 901.958, 2795.372 902.240, 2811.780 908.377 C 2835.860 917.385, 2847.570 915.178, 2854.142 900.392 C 2856.847 894.307, 2859 882.849, 2859 874.543 L 2859 867.217 2855.250 865.721 C 2853.188 864.899, 2847.675 863.470, 2843 862.547 C 2829.517 859.884, 2830.644 860.838, 2831.297 852.639 C 2831.610 848.713, 2833.928 834.625, 2836.448 821.334 C 2845.271 774.796, 2846.690 757.928, 2842.999 743.496 C 2838.777 726.987, 2826.743 715.184, 2809.267 710.407 C 2804.665 709.150, 2793.702 708.633, 2755 707.848 C 2707.002 706.874, 2691.484 707.135, 2688.051 708.973 C 2685.596 710.286, 2682.239 718.525, 2679.962 728.824 C 2676.904 742.653, 2677.264 744.745, 2683 746.458 C 2684.375 746.869, 2706.650 747.545, 2732.500 747.961 C 2784.256 748.793, 2787.799 749.208, 2794.189 755.177 C 2797.163 757.955, 2797.233 758.223, 2796.563 764.270 C 2795.046 777.961, 2791.510 787, 2787.673 787 C 2786.415 787, 2780.461 786.054, 2774.443 784.899 C 2765.526 783.186, 2759.427 782.780, 2741.500 782.701 C 2710.094 782.565, 2696.186 784.975, 2678.044 793.699 C 2671.226 796.976, 2667.179 799.702, 2663.544 803.464 C 2654.041 813.295, 2647.099 828.208, 2647.002 839 C 2646.921 847.980, 2645.519 852.113, 2641.179 856.168 C 2636.923 860.145, 2631.901 861.986, 2625.285 861.994 C 2620.175 862.001, 2617.076 859.530, 2607.294 847.646 C 2603.606 843.166, 2596.508 835, 2591.520 829.500 C 2575.895 812.269, 2573 808.823, 2573 807.447 C 2573 806.712, 2577.810 802.149, 2583.688 797.305 C 2602.700 781.643, 2610.008 774.923, 2618.142 765.624 C 2630.541 751.450, 2638.905 736.312, 2642.022 722.402 C 2643.120 717.504, 2642.004 711.057, 2639.743 709.227 C 2637.745 707.610, 2604.220 706.605, 2597.666 707.965 C 2591.095 709.330, 2589.214 711.212, 2582.908 722.731 C 2575.777 735.758, 2571.080 742.126, 2562.060 751 C 2551.767 761.125, 2540.852 767.677, 2527.040 772.023 C 2513.265 776.358, 2505.721 775.721, 2504.311 770.104 C 2503.959 768.700, 2504.661 762.589, 2505.871 756.525 C 2508.446 743.623, 2517.457 695.309, 2519.585 683 C 2520.393 678.325, 2522.828 665.050, 2524.995 653.500 C 2527.163 641.950, 2529.864 627.100, 2530.998 620.500 C 2532.131 613.900, 2534.361 601.525, 2535.953 593 C 2537.545 584.475, 2539.819 571.875, 2541.005 565 C 2542.192 558.125, 2545.813 538.100, 2549.052 520.500 C 2552.292 502.900, 2556.070 482.200, 2557.448 474.500 C 2558.826 466.800, 2563.174 442.950, 2567.110 421.500 C 2571.046 400.050, 2574.479 379.279, 2574.738 375.341 C 2575.180 368.622, 2575.065 368.103, 2572.855 366.881 C 2570.148 365.384, 2540.534 364.740, 2527.735 365.898 M 2385 586.856 C 2379.775 587.210, 2374.542 588.049, 2373.370 588.721 C 2372.199 589.392, 2370.510 591.766, 2369.618 593.996 C 2367.558 599.145, 2362.578 626.899, 2362.534 633.479 C 2362.482 641.084, 2363.675 641.439, 2390.500 641.780 C 2414.676 642.087, 2416.026 641.831, 2419.239 636.331 C 2421.489 632.478, 2425.342 617.100, 2427.516 603.299 C 2429.231 592.410, 2428.842 590.056, 2424.989 587.994 C 2422.556 586.692, 2397.810 585.988, 2385 586.856 M 2991 596.500 C 2989.075 597.241, 2986.685 597.882, 2985.688 597.924 C 2983.459 598.018, 2973.564 602.609, 2969.522 605.425 C 2963.867 609.365, 2956.784 616.516, 2953.599 621.500 C 2948.670 629.216, 2946 634.578, 2946 636.764 C 2946 637.859, 2945.296 640.440, 2944.436 642.499 C 2942.462 647.223, 2942.963 663.019, 2945.337 670.895 C 2951.305 690.702, 2962.912 702.946, 2983.972 711.651 C 2987.621 713.159, 2991.120 713.500, 3002.972 713.500 C 3016.133 713.500, 3018.065 713.268, 3023.500 711.031 C 3026.800 709.673, 3030.573 707.761, 3031.885 706.781 C 3033.197 705.801, 3034.819 705, 3035.490 705 C 3037.489 705, 3048.230 693.952, 3052.504 687.500 C 3060.482 675.455, 3061.346 672.346, 3061.427 655.404 C 3061.473 645.980, 3061.070 639.405, 3060.355 637.904 C 3059.725 636.582, 3057.952 632.800, 3056.416 629.500 C 3051.510 618.966, 3045.681 612.259, 3034.462 604.242 C 3024.313 596.989, 3000.667 592.777, 2991 596.500 M 2997.500 610.400 C 2996.950 610.600, 2993.575 611.592, 2990 612.605 C 2986.425 613.618, 2981.649 615.475, 2979.386 616.733 C 2974.911 619.220, 2965 629.125, 2965 631.111 C 2965 631.789, 2964.399 633.053, 2963.665 633.921 C 2961.288 636.734, 2958 648.881, 2958 654.853 C 2958 661.240, 2961.239 672.994, 2964.146 677.154 C 2965.166 678.614, 2966 680.262, 2966 680.816 C 2966 681.370, 2968.879 684.450, 2972.397 687.661 C 2981.900 696.334, 2988.166 698.510, 3003.500 698.463 C 3015.081 698.427, 3015.738 698.308, 3022.330 695.049 C 3035.527 688.522, 3043.209 678.357, 3046.546 663 C 3048.016 656.236, 3046.792 644.629, 3043.952 638.395 C 3042.878 636.038, 3042 633.880, 3042 633.599 C 3042 633.319, 3040.873 631.428, 3039.496 629.399 C 3034.239 621.652, 3026.978 616.374, 3016.829 612.921 C 3011.057 610.957, 2999.949 609.508, 2997.500 610.400 M 2978 623.226 L 2975.500 624.558 2975.235 654.934 C 2974.931 689.784, 2974.753 689, 2982.955 689 C 2985.510 689, 2988.140 688.460, 2988.800 687.800 C 2989.564 687.036, 2990.005 683.127, 2990.014 677.050 C 2990.031 665.147, 2990.558 663, 2993.463 663 C 2996.824 663, 3001.310 665.575, 3003.788 668.927 C 3005.005 670.573, 3006 672.147, 3006 672.426 C 3006 672.705, 3008.295 676.549, 3011.100 680.967 L 3016.200 689 3021.666 689 C 3024.672 689, 3027.956 688.559, 3028.965 688.019 C 3031.752 686.527, 3030.198 681.830, 3023.890 672.680 C 3015.663 660.744, 3015.204 659.847, 3016.990 659.207 C 3020.340 658.007, 3025.652 651.315, 3026.958 646.649 C 3028.139 642.431, 3028.102 641.163, 3026.660 636.591 C 3024.859 630.877, 3022.389 628.051, 3016.405 624.859 C 3013.046 623.067, 3010.263 622.714, 2996.500 622.335 C 2984.389 622, 2979.892 622.217, 2978 623.226 M 2990.667 637.667 C 2989.685 638.649, 2989.885 646.270, 2990.936 647.931 C 2991.596 648.974, 2993.662 649.312, 2998.542 649.178 C 3007.387 648.934, 3010.406 647.458, 3010.818 643.178 C 3011.332 637.832, 3009.882 637, 3000.044 637 C 2995.253 637, 2991.033 637.300, 2990.667 637.667 M 2360 707.487 C 2359.175 707.696, 2356.811 708.142, 2354.747 708.479 C 2347.700 709.629, 2346.951 712.601, 2331.068 802.500 C 2327.764 821.200, 2324.151 840.915, 2323.040 846.312 C 2319.355 864.207, 2312.866 903.994, 2313.185 906.729 C 2313.405 908.611, 2314.252 909.629, 2316 910.111 C 2317.375 910.490, 2329.380 910.845, 2342.679 910.900 C 2362.926 910.984, 2367.101 910.756, 2368.356 909.501 C 2370.699 907.158, 2373.589 898.466, 2375.838 887 C 2379.852 866.529, 2383.021 849.275, 2386.031 831.500 C 2389.251 812.483, 2401.548 745.101, 2405.193 726.500 C 2406.378 720.450, 2407.056 714.340, 2406.698 712.921 C 2405.571 708.452, 2402.209 707.730, 2381 707.406 C 2370.275 707.242, 2360.825 707.279, 2360 707.487 M 2724.060 823.527 C 2708.400 826.361, 2697.206 832.999, 2694.064 841.315 C 2692.423 845.658, 2692.801 852.161, 2694.893 855.593 C 2698.812 862.019, 2710.495 869.591, 2720.291 872.054 C 2723.429 872.842, 2729.641 873.081, 2738.291 872.745 C 2752.161 872.206, 2760.516 870.293, 2770.040 865.476 C 2774.936 862.999, 2781.860 856.106, 2784.415 851.164 C 2789.251 841.812, 2782.388 830.212, 2769.291 825.600 C 2759.092 822.008, 2737.835 821.034, 2724.060 823.527 M 807.500 870.041 C 801.083 870.883, 793.961 873.376, 787.497 877.044 C 782.186 880.058, 773.959 888.600, 771.615 893.533 C 770.579 895.715, 769.004 899.040, 768.115 900.922 C 766.707 903.905, 766.500 909.805, 766.500 946.966 C 766.500 984.249, 766.699 989.896, 768.092 992.044 C 768.967 993.395, 770.008 995.815, 770.404 997.421 C 771.353 1001.269, 777.401 1008.855, 782.907 1013.101 C 787.633 1016.746, 795.643 1020.976, 797.849 1020.991 C 798.591 1020.996, 800.656 1021.692, 802.439 1022.538 C 805.134 1023.817, 809.371 1024.011, 827.590 1023.691 C 850.267 1023.293, 858.435 1022.308, 868.250 1018.792 C 873.344 1016.967, 874.121 1016.319, 875.062 1013.116 C 875.742 1010.798, 876.012 998.320, 875.812 978.353 C 875.522 949.375, 875.367 947.061, 873.595 945.103 C 871.829 943.153, 870.653 943, 857.456 943 C 837.717 943, 839.128 941.174, 838.778 967.169 C 838.625 978.537, 838.181 988.156, 837.791 988.544 C 837.402 988.933, 832.452 989.307, 826.791 989.375 C 812.863 989.544, 808.386 987.265, 805.550 978.562 C 804.717 976.005, 804.708 919.074, 805.540 914.639 C 805.895 912.745, 807.507 909.930, 809.123 908.382 C 811.856 905.764, 812.736 905.542, 821.780 905.187 C 827.126 904.977, 838.854 905.293, 847.841 905.889 C 864.763 907.011, 867.373 906.676, 868.379 903.251 C 869.367 899.890, 871.128 877.980, 870.556 876.177 C 869.652 873.329, 860.946 871.200, 845.500 870.050 C 829.749 868.878, 816.391 868.874, 807.500 870.041 M 1369 870.068 C 1353.239 871.754, 1341.071 880.822, 1337.122 893.825 C 1334.082 903.832, 1334.077 925.151, 1337.112 935.143 C 1341.282 948.872, 1352.573 956.322, 1376.500 961.131 C 1379.250 961.684, 1385.211 963.257, 1389.746 964.627 C 1396.653 966.714, 1398.091 967.513, 1398.602 969.551 C 1399.624 973.622, 1398.607 987.794, 1397.191 989.205 C 1395.135 991.256, 1365.121 990.868, 1358 988.699 C 1348.937 985.938, 1342.041 984.908, 1339.988 986.007 C 1336.780 987.723, 1332.189 1008.737, 1333.988 1013.468 C 1334.944 1015.983, 1342.741 1019.179, 1353.170 1021.330 C 1356.288 1021.974, 1359.176 1022.837, 1359.586 1023.250 C 1360.743 1024.412, 1405.776 1024.172, 1406.500 1023 C 1406.840 1022.450, 1408.060 1022, 1409.212 1022 C 1412.871 1022, 1423.848 1016.152, 1428.020 1011.980 C 1430.234 1009.766, 1433.261 1005.377, 1434.746 1002.227 C 1437.401 996.597, 1437.446 996.161, 1437.435 976.500 C 1437.424 958.126, 1437.254 956.200, 1435.348 952.807 C 1429.907 943.120, 1421.648 937.426, 1408 933.950 C 1405.525 933.320, 1403.050 932.457, 1402.500 932.033 C 1401.950 931.608, 1399.700 930.968, 1397.500 930.609 C 1388.886 929.206, 1377.415 925.574, 1375.750 923.723 C 1374.403 922.226, 1374 920.004, 1374 914.074 L 1374 906.370 1377.534 904.685 C 1381.993 902.559, 1395.260 902.483, 1410 904.500 C 1415.775 905.290, 1422.627 905.951, 1425.227 905.968 C 1432.363 906.016, 1433.186 904.178, 1433.360 887.812 L 1433.500 874.607 1427.631 872.808 C 1417.164 869.599, 1386.698 868.175, 1369 870.068 M 1 946.393 C 1 1011.987, 1.192 1021.860, 2.478 1022.353 C 4.991 1023.318, 56.573 1023.029, 66.546 1021.995 C 72.466 1021.381, 77.369 1020.270, 79.722 1019.009 C 81.784 1017.904, 83.950 1017, 84.536 1017 C 86.705 1017, 96.892 1006.855, 98.911 1002.684 C 102.089 996.119, 103.250 987.723, 102.810 974.500 C 102.470 964.304, 102.047 961.776, 99.994 957.683 C 97.650 953.008, 90.091 945, 88.022 945 C 86.145 945, 86.971 942.376, 89.620 939.924 C 91.060 938.591, 93.423 935.700, 94.870 933.500 C 97.450 929.576, 97.500 929.178, 97.500 912.500 C 97.500 896.009, 97.420 895.349, 94.831 890.442 C 92.205 885.467, 85.470 878, 83.608 878 C 83.085 878, 81.947 877.372, 81.079 876.603 C 80.210 875.835, 76.096 874.260, 71.936 873.103 C 64.980 871.169, 61.827 871, 32.686 871 L 1 871 1 946.393 M 119.021 872.475 C 118.088 873.599, 117.796 887.350, 117.794 930.358 C 117.792 961.383, 118.111 988.231, 118.504 990.019 C 120.613 999.620, 129.619 1011.011, 139.446 1016.507 C 151.224 1023.093, 155.371 1023.948, 175.691 1023.975 C 186.767 1023.990, 194.124 1023.609, 194.500 1023 C 194.840 1022.450, 196.100 1022, 197.300 1022 C 200.690 1022, 213.226 1015.401, 217.734 1011.244 C 223.740 1005.704, 228.385 998.375, 230.830 990.582 C 232.946 983.835, 233 982.301, 233 928.987 C 233 877.287, 232.900 874.220, 231.171 872.655 C 229.629 871.259, 226.819 871, 213.228 871 C 197.709 871, 197.056 871.082, 195.557 873.223 C 194.196 875.166, 194 882.060, 194 928.088 C 194 979.911, 193.968 980.771, 191.918 983.378 C 186.719 989.987, 172.522 992.171, 163.439 987.758 C 155.326 983.817, 155.566 985.578, 155.359 928.500 C 155.142 868.678, 155.342 874.485, 153.429 872.571 C 151.179 870.322, 120.879 870.236, 119.021 872.475 M 256.557 873.223 C 255.183 875.184, 255 883.862, 255 947.068 C 255 1018.625, 255.002 1018.692, 257.106 1020.595 C 258.991 1022.300, 260.880 1022.500, 275.057 1022.500 C 286.722 1022.500, 291.244 1022.157, 292.201 1021.200 C 293.237 1020.163, 293.554 1005.325, 293.769 947.805 C 294.007 884.218, 293.857 875.430, 292.496 873.354 C 290.980 871.040, 290.674 871, 274.534 871 C 258.699 871, 258.058 871.079, 256.557 873.223 M 319.571 872.571 C 318.172 873.971, 318 882.043, 318 946.380 C 318 1007.188, 318.225 1018.925, 319.419 1020.559 C 320.788 1022.431, 322.449 1022.500, 366 1022.500 C 409.550 1022.500, 411.212 1022.431, 412.581 1020.559 C 413.630 1019.124, 413.996 1015.345, 413.986 1006.059 C 413.979 999.151, 413.716 992.542, 413.402 991.372 C 412.316 987.327, 409.093 986.874, 382.788 987.070 C 369.112 987.173, 357.700 987.034, 357.428 986.762 C 357.156 986.490, 356.956 961.666, 356.983 931.598 C 357.032 876.828, 356.869 873.948, 353.600 871.765 C 352.995 871.361, 345.445 871.024, 336.821 871.015 C 323.887 871.003, 320.868 871.275, 319.571 872.571 M 428.655 872.829 C 427.147 874.495, 427 881.102, 427 947.206 C 427 1013.432, 427.144 1019.875, 428.652 1021.128 C 429.938 1022.196, 436.188 1022.569, 456.902 1022.814 C 496.112 1023.277, 506.034 1021.996, 519.705 1014.705 C 524.593 1012.098, 532.637 1003.557, 535.204 998.249 C 537.498 993.505, 537.500 993.454, 537.500 947 L 537.500 900.500 534.826 895 C 532.055 889.299, 530.671 887.564, 524.854 882.500 C 520.235 878.479, 514.058 875.552, 504.936 873.064 C 497.996 871.170, 494.606 871, 463.841 871 C 432.627 871, 430.196 871.126, 428.655 872.829 M 560.655 872.829 C 559.147 874.495, 559 881.102, 559 947.206 C 559 1013.456, 559.144 1019.874, 560.653 1021.128 C 561.900 1022.163, 566.185 1022.500, 578.116 1022.500 C 591.960 1022.500, 594.149 1022.278, 595.713 1020.714 C 597.396 1019.033, 597.500 1014.720, 597.500 946.618 C 597.500 886.799, 597.263 874.022, 596.128 872.654 C 594.954 871.240, 592.403 871, 578.533 871 C 564.086 871, 562.129 871.200, 560.655 872.829 M 623.571 872.571 C 622.172 873.971, 622 882.095, 622 946.949 C 622 1013.508, 622.142 1019.873, 623.657 1021.128 C 624.895 1022.153, 629.024 1022.500, 640.004 1022.500 C 650.986 1022.500, 655.111 1022.154, 656.347 1021.128 C 657.835 1019.892, 658 1015.674, 658 978.878 C 658 952.834, 658.356 938, 658.981 938 C 659.809 938, 663.180 944.400, 667.045 953.310 C 667.568 954.515, 668.430 956.175, 668.960 957 C 669.491 957.825, 672.151 963.053, 674.872 968.617 C 677.592 974.182, 680.290 979.582, 680.868 980.617 C 681.446 981.653, 683.313 985.425, 685.017 989 C 686.721 992.575, 688.527 996.175, 689.031 997 C 689.535 997.825, 692.238 1003.306, 695.038 1009.181 C 697.838 1015.056, 700.844 1020.456, 701.717 1021.181 C 704.052 1023.121, 741.992 1023.073, 744.342 1021.128 C 745.858 1019.872, 746 1013.499, 746 946.578 C 746 890.995, 745.711 873.111, 744.800 872.200 C 743.332 870.732, 714.284 870.536, 712 871.978 C 710.716 872.789, 710.428 879.308, 710 917.213 L 709.500 961.500 705.345 953 C 703.059 948.325, 699.288 940.450, 696.964 935.500 C 687.361 915.046, 681.626 903.008, 677.432 894.500 C 674.992 889.550, 672.997 884.993, 672.998 884.372 C 672.999 883.752, 672.369 882.721, 671.598 882.081 C 670.827 881.442, 669.894 879.699, 669.524 878.209 C 669.154 876.719, 667.907 874.487, 666.752 873.250 C 664.711 871.063, 664.094 871, 644.897 871 C 628.272 871, 624.894 871.249, 623.571 872.571 M 933.573 872.570 C 931.170 874.973, 930.800 877.799, 931.164 890.993 C 931.459 901.661, 931.740 903.340, 933.441 904.583 C 934.944 905.680, 939.402 906, 953.191 906 L 971 906 971 962.878 C 971 1014.565, 971.151 1019.880, 972.654 1021.128 C 975.022 1023.093, 1004.971 1023.099, 1007.338 1021.134 C 1008.824 1019.901, 1009.009 1014.285, 1009.242 963.134 L 1009.500 906.500 1027.833 906 C 1044.501 905.545, 1046.295 905.324, 1047.583 903.559 C 1049.705 900.652, 1049.593 876.291, 1047.443 873.223 L 1045.887 871 990.515 871 C 941.532 871, 934.962 871.181, 933.573 872.570 M 1062.400 871.765 C 1059.123 873.953, 1059 876.688, 1059 947.323 C 1059 1015.215, 1059.070 1017.864, 1060.913 1020.139 C 1062.778 1022.441, 1063.220 1022.500, 1078.760 1022.500 C 1090.703 1022.500, 1095.103 1022.160, 1096.328 1021.144 C 1097.728 1019.981, 1097.999 1016.768, 1098.230 998.644 L 1098.500 977.500 1105.409 977.201 C 1111.952 976.917, 1112.454 977.055, 1114.909 979.817 C 1116.334 981.421, 1117.950 983.416, 1118.500 984.250 C 1124.182 992.873, 1127.644 997.634, 1128.714 998.300 C 1129.421 998.740, 1130 999.575, 1130 1000.155 C 1130 1000.736, 1131.013 1002.468, 1132.250 1004.005 C 1133.487 1005.541, 1136.737 1010, 1139.471 1013.913 C 1143.382 1019.509, 1145.196 1021.238, 1147.971 1022.009 C 1153.253 1023.476, 1180.953 1023.246, 1184 1021.710 C 1187.330 1020.031, 1187.620 1016.917, 1184.774 1013.388 C 1183.492 1011.800, 1181.107 1008.475, 1179.472 1006 C 1177.837 1003.525, 1176.041 1001.009, 1175.480 1000.409 C 1174.919 999.808, 1171.852 995.533, 1168.664 990.909 C 1165.476 986.284, 1161.128 980.028, 1159.001 977.007 L 1155.135 971.513 1158.817 968.507 C 1164.952 963.499, 1168.039 959.768, 1170.824 954 C 1173.474 948.510, 1173.479 948.458, 1173.490 924 L 1173.500 899.500 1170.743 893.706 C 1169.227 890.519, 1165.910 885.895, 1163.373 883.429 C 1159.019 879.197, 1149.987 874.018, 1146.904 873.985 C 1146.132 873.977, 1143.700 873.321, 1141.500 872.529 C 1138.295 871.374, 1130.144 871.082, 1100.500 871.059 C 1080.150 871.043, 1063.005 871.361, 1062.400 871.765 M 1201 873 C 1199.050 874.950, 1199 876.333, 1199 928.686 C 1199 980.115, 1199.088 982.686, 1201.092 989.827 C 1203.165 997.214, 1207.782 1005.140, 1212.838 1009.993 C 1218.205 1015.142, 1227.711 1020.480, 1233.423 1021.552 C 1235.403 1021.923, 1237.269 1022.626, 1237.570 1023.113 C 1237.871 1023.601, 1246.219 1024, 1256.121 1024 C 1275.374 1024, 1278.838 1023.403, 1290 1018.165 C 1297.237 1014.768, 1306.971 1005.051, 1310.403 997.796 C 1311.877 994.680, 1313.512 989.513, 1314.036 986.315 C 1314.560 983.117, 1314.991 956.863, 1314.994 927.973 C 1314.999 882.043, 1314.804 875.166, 1313.443 873.223 C 1311.946 871.084, 1311.283 871, 1296 871 C 1280.717 871, 1280.054 871.084, 1278.557 873.223 C 1277.198 875.162, 1277 881.819, 1277 925.544 C 1277 984.077, 1277.088 983.402, 1268.927 987.537 C 1259.398 992.365, 1243.740 989.840, 1239.714 982.825 C 1238.155 980.108, 1238 975.112, 1238 927.641 C 1238 882.018, 1237.804 875.165, 1236.443 873.223 C 1234.945 871.084, 1234.285 871, 1218.943 871 C 1204.333 871, 1202.833 871.167, 1201 873 M 1445.557 873.223 C 1443.407 876.291, 1443.295 900.652, 1445.417 903.559 C 1446.702 905.319, 1448.495 905.547, 1464.667 906 L 1482.500 906.500 1483.021 963.500 C 1483.307 994.850, 1483.645 1020.591, 1483.771 1020.703 C 1485.191 1021.960, 1493.610 1022.990, 1502.507 1022.994 C 1513.851 1023, 1519.762 1021.978, 1521.164 1019.768 C 1521.607 1019.071, 1521.976 993.188, 1521.985 962.250 L 1522 906 1539.929 906 C 1554.894 906, 1558.117 905.740, 1559.429 904.429 C 1560.711 903.146, 1561 900.219, 1561 888.500 C 1561 876.781, 1560.711 873.854, 1559.429 872.571 C 1558.038 871.181, 1551.490 871, 1502.485 871 L 1447.113 871 1445.557 873.223 M 32.571 904.571 C 31.319 905.824, 31 908.559, 31 918.052 C 31 932.133, 30.170 931.404, 45.548 930.848 C 58.278 930.388, 59 929.616, 59 916.457 C 59 907.310, 58.946 907.098, 56.096 905.068 C 53.648 903.325, 51.693 903, 43.667 903 C 36.342 903, 33.780 903.363, 32.571 904.571 M 466.239 946.618 L 466.500 987.235 478.823 987.065 C 500.377 986.767, 499.212 988.981, 499.249 948.258 C 499.264 930.791, 498.958 915.054, 498.567 913.288 C 498.100 911.172, 496.732 909.379, 494.561 908.038 C 491.699 906.269, 489.596 906, 478.621 906 L 465.978 906 466.239 946.618 M 1098.227 924.250 L 1098.500 942.500 1112 942.797 C 1135.303 943.310, 1135.500 943.151, 1135.500 923.712 C 1135.500 910.842, 1135.498 910.832, 1132.694 908.417 C 1129.980 906.079, 1129.366 906, 1113.922 906 L 1097.955 906 1098.227 924.250 M 31.667 962.667 C 31.300 963.033, 31 969.333, 31 976.667 C 31 988.656, 31.176 990.011, 32.750 990.112 C 39.298 990.531, 56.945 989.734, 59.028 988.924 C 62.878 987.427, 63.930 984.830, 64.139 976.305 C 64.347 967.830, 63.265 964.898, 59.257 963.071 C 56.722 961.916, 32.768 961.565, 31.667 962.667" stroke="none" fill="#f41a22" fill-rule="evenodd"/></svg>