<?xml version="1.0" encoding="UTF-8" standalone="no" ?>
<!DOCTYPE svg PUBLIC "-//W3C//DTD SVG 1.1//EN" "http://www.w3.org/Graphics/SVG/1.1/DTD/svg11.dtd">
<svg xmlns="http://www.w3.org/2000/svg" xmlns:xlink="http://www.w3.org/1999/xlink" version="1.1" width="640" height="480" viewBox="0 0 640 480" xml:space="preserve">
<desc>Created with Fabric.js 3.6.6</desc>
<defs>
</defs>
<g transform="matrix(1.28 0 0 1.28 318.84 233.83)"  >
<path style="stroke: none; stroke-width: 1; stroke-dasharray: none; stroke-linecap: butt; stroke-dashoffset: 0; stroke-linejoin: miter; stroke-miterlimit: 4; fill: rgb(255,255,255); fill-rule: evenodd; opacity: 1;"  transform=" translate(-256, -256)" d="M 85.056 84.944 C 83.986 86.014 82.877 88.376 82.59 90.194 C 82.303 92.012 81.547 96.875 80.91 101 C 77.734 121.559 69.917 146.901 60.899 165.876 C 49.802 189.225 37.94 204.359 19.954 218.114 C 16.536 220.728 16.536 220.728 20.278 226.364 C 22.337 229.464 24.421 232 24.911 232 C 26.918 232 38.308 222.438 46.285 214.055 C 59.524 200.144 70.621 182.312 79.615 160.5 C 82.913 152.5 82.913 152.5 82.957 221.25 C 83 290 83 290 51.547 290 C 29.743 290 19.31 290.357 17.538 291.165 C 13.702 292.912 12.793 297.607 13.168 313.725 C 13.646 334.21 10.154 332.427 50.526 332.801 C 83 333.103 83 333.103 83 360.051 C 83 387 83 387 75.135 387 C 68.692 387 66.793 387.375 64.635 389.073 C 62.051 391.105 62 391.378 62 403.073 C 62 415 62 415 41 415 C 20 415 20 415 20 422 C 20 429 20 429 256 429 C 492 429 492 429 492 422 C 492 415 492 415 471 415 C 450 415 450 415 450 403.073 C 450 391.378 449.949 391.105 447.365 389.073 C 445.207 387.375 443.308 387 436.865 387 C 429 387 429 387 429 360.051 C 429 333.103 429 333.103 461.474 332.801 C 501.846 332.427 498.354 334.21 498.832 313.725 C 499.207 297.607 498.298 292.912 494.462 291.165 C 492.69 290.357 482.257 290 460.453 290 C 429 290 429 290 429.043 221.25 C 429.087 152.5 429.087 152.5 432.385 160.5 C 441.379 182.312 452.476 200.144 465.715 214.055 C 473.692 222.438 485.082 232 487.089 232 C 487.579 232 489.657 229.473 491.707 226.385 C 495.435 220.771 495.435 220.771 492.968 218.82 C 483.428 211.276 477.936 206.364 474.266 202.093 C 459.059 184.397 447.603 162.426 438.97 134.397 C 435.65 123.619 431.353 104.732 430.461 97 C 429.571 89.291 428.146 85.149 425.986 83.992 C 424.911 83.417 414.295 83 400.721 83 C 378.884 83 377.193 83.129 375.568 84.925 C 374.426 86.187 373.011 91.612 371.461 100.675 C 360.401 165.331 330.433 213.118 291.541 228.117 C 278.784 233.036 271.114 234.361 255.5 234.343 C 228.003 234.31 207.689 225.787 188.004 206.025 C 164.927 182.856 147.454 143.637 140.138 98.584 C 138.898 90.945 137.633 86.252 136.468 84.964 C 134.795 83.116 133.276 83 110.845 83 C 88.561 83 86.873 83.127 85.056 84.944 M 97 193.5 C 97 290 97 290 110.5 290 C 124 290 124 290 124 193.5 C 124 97 124 97 110.5 97 C 97 97 97 97 97 193.5 M 388 193.5 C 388 290 388 290 401.5 290 C 415 290 415 290 415 193.5 C 415 97 415 97 401.5 97 C 388 97 388 97 388 193.5 M 371.16 156.859 C 369.247 163.246 358.296 184.701 351.95 194.498 C 346 203.683 346 203.683 346 246.841 C 346 290 346 290 359.5 290 C 373 290 373 290 373 221.5 C 373 183.825 372.846 153 372.658 153 C 372.47 153 371.796 154.737 371.16 156.859 M 139 222 C 139 290 139 290 152.5 290 C 166 290 166 290 166 246.669 C 166 203.339 166 203.339 160.082 194.419 C 154.121 185.435 144.807 167.549 141.509 158.75 C 140.53 156.137 139.564 154 139.364 154 C 139.164 154 139 184.6 139 222 M 180 255 C 180 290 180 290 193.5 290 C 207 290 207 290 207 264.213 C 207 238.426 207 238.426 200.449 234.658 C 196.845 232.585 191.009 228.44 187.479 225.445 C 183.949 222.45 180.822 220 180.53 220 C 180.239 220 180 235.75 180 255 M 325 225.013 C 321.975 227.722 316.238 231.863 312.25 234.213 C 305 238.488 305 238.488 305 264.244 C 305 290 305 290 318.5 290 C 332 290 332 290 332 255 C 332 235.75 331.663 220.019 331.25 220.043 C 330.837 220.067 328.025 222.303 325 225.013 M 222 267.5 C 222 290 222 290 235.5 290 C 249 290 249 290 249 269.629 C 249 249.258 249 249.258 242.181 248.587 C 238.431 248.217 232.919 247.264 229.931 246.469 C 226.944 245.674 223.938 245.018 223.25 245.012 C 222.287 245.003 222 250.16 222 267.5 M 281.5 246.552 C 278.75 247.307 273.462 248.225 269.75 248.591 C 263 249.258 263 249.258 263 269.629 C 263 290 263 290 276.5 290 C 290 290 290 290 290 267.5 C 290 242.077 290.782 244.003 281.5 246.552 M 28 311.5 C 28 318 28 318 256 318 C 484 318 484 318 484 311.5 C 484 305 484 305 256 305 C 28 305 28 305 28 311.5 M 97 360 C 97 387 97 387 110.5 387 C 124 387 124 387 124 360 C 124 333 124 333 110.5 333 C 97 333 97 333 97 360 M 139 360 C 139 387 139 387 146.566 387 C 150.727 387 154.955 387.441 155.961 387.979 C 158.83 389.515 160 394.487 160 405.149 C 160 415 160 415 256 415 C 352 415 352 415 352 405.149 C 352 394.487 353.17 389.515 356.039 387.979 C 357.045 387.441 361.273 387 365.434 387 C 373 387 373 387 373 360 C 373 333 373 333 256 333 C 139 333 139 333 139 360 M 388 360 C 388 387 388 387 401.5 387 C 415 387 415 387 415 360 C 415 333 415 333 401.5 333 C 388 333 388 333 388 360 M 77 408.5 C 77 415 77 415 111 415 C 145 415 145 415 145 408.5 C 145 402 145 402 111 402 C 77 402 77 402 77 408.5 M 367 408.5 C 367 415 367 415 401 415 C 435 415 435 415 435 408.5 C 435 402 435 402 401 402 C 367 402 367 402 367 408.5" stroke-linecap="round" />
</g>
</svg>