<svg xmlns="http://www.w3.org/2000/svg" width="400" height="281" viewBox="0 0 400 281" version="1.1"><path d="M 63.057 65.250 C 63.103 66.230, 127.005 113.534, 197.592 164.839 L 204.938 170.179 215.951 161.539 L 226.963 152.899 285.835 194.949 C 318.214 218.077, 344.997 237, 345.353 237 C 345.709 237, 346 236.596, 346 236.102 C 346 235.608, 319.665 216.397, 287.477 193.411 C 241.695 160.717, 229.231 151.365, 230.227 150.455 C 230.927 149.816, 255.702 130.533, 285.282 107.603 C 314.863 84.674, 338.790 65.469, 338.455 64.927 C 338.119 64.384, 335.067 66.116, 331.672 68.775 C 262.467 122.995, 204.799 166.998, 203.760 166.376 C 203.067 165.962, 171.316 142.757, 133.202 114.811 C 95.088 86.865, 63.701 64, 63.452 64 C 63.203 64, 63.026 64.563, 63.057 65.250 M 118 193.087 C 65.723 230.547, 55.370 238.365, 60.125 236.796 C 60.881 236.547, 87.685 217.703, 119.688 194.921 C 169.927 159.159, 181.093 150.655, 177.250 151.084 C 176.838 151.130, 150.175 170.031, 118 193.087" stroke="none" fill="#b9c0ca" fill-rule="evenodd"/><path d="M 28.284 20.557 C 26.412 22.032, 24.639 24.639, 24.040 26.796 C 23.363 29.234, 23.017 68.599, 23.028 142 C 23.043 248.358, 23.129 253.688, 24.895 257.576 C 28.564 265.655, 12.849 265, 203.151 264.996 C 371.244 264.993, 372.525 264.978, 375.810 262.974 C 382.328 259.001, 382 265.434, 382 141.500 C 382 19.270, 382.247 24.699, 376.486 20.168 L 373.730 18 202.615 18.011 L 31.500 18.022 28.284 20.557 M 63.057 65.250 C 63.103 66.230, 127.005 113.534, 197.592 164.839 L 204.938 170.179 215.951 161.539 L 226.963 152.899 285.835 194.949 C 318.214 218.077, 344.997 237, 345.353 237 C 345.709 237, 346 236.596, 346 236.102 C 346 235.608, 319.665 216.397, 287.477 193.411 C 241.695 160.717, 229.231 151.365, 230.227 150.455 C 230.927 149.816, 255.702 130.533, 285.282 107.603 C 314.863 84.674, 338.790 65.469, 338.455 64.927 C 338.119 64.384, 335.067 66.116, 331.672 68.775 C 262.467 122.995, 204.799 166.998, 203.760 166.376 C 203.067 165.962, 171.316 142.757, 133.202 114.811 C 95.088 86.865, 63.701 64, 63.452 64 C 63.203 64, 63.026 64.563, 63.057 65.250 M 118 193.087 C 65.723 230.547, 55.370 238.365, 60.125 236.796 C 60.881 236.547, 87.685 217.703, 119.688 194.921 C 169.927 159.159, 181.093 150.655, 177.250 151.084 C 176.838 151.130, 150.175 170.031, 118 193.087" stroke="none" fill="#e3e3e3" fill-rule="evenodd"/></svg>