<?xml version="1.0" encoding="utf-8"?>
<!-- Generator: Adobe Illustrator 27.0.1, SVG Export Plug-In . SVG Version: 6.00 Build 0)  -->
<svg version="1.1" id="Layer_1" xmlns="http://www.w3.org/2000/svg" xmlns:xlink="http://www.w3.org/1999/xlink" x="0px" y="0px"
	 viewBox="0 0 566.93 566.93" style="enable-background:new 0 0 566.93 566.93;" xml:space="preserve">
<style type="text/css">
	.st0{fill:#4666B0;}
	.st1{font-family:'alasturhfont-Regular';}
	.st2{font-size:51.8879px;}
	.st3{fill:#C5943B;}
	.st4{font-family:'MyriadPro-Regular';}
	.st5{font-size:32.5895px;}
</style>
<g>
	<g>
		<text transform="matrix(1 0 0 1 160.1402 143.9192)" class="st0 st1 st2">ثادحتسا</text>
	</g>
	<g>
		<text transform="matrix(1 0 0 1 167.4551 187.9517)" class="st3 st4 st5">Estehdath</text>
	</g>
	<g>
		<path class="st0" d="M418.98,144.77L418.98,144.77h-91.79v-28.45l0,0v-3.87c0-7.33,5.74-13.27,13.07-13.27h43.72
			c6.56,0,12,4.75,13.07,10.99h-59.06v23.44h69.83C413.98,133.62,418.98,138.61,418.98,144.77z"/>
		<g>
			<g>
				<rect x="345.06" y="116.33" class="st3" width="52.23" height="11.16"/>
			</g>
		</g>
		<path class="st3" d="M418.98,150.91L418.98,150.91c0,6.16-4.99,11.16-11.16,11.16h-69.83v6.14h59.3v10.19h-0.05v4.82
			c0,7.33-5.94,13.27-13.27,13.27h-43.72c-6.56,0-12-4.75-13.07-10.99h58.95v-6.14h-58.95v-28.46H418.98z"/>
	</g>
</g>
<g>
	<g>
		<text transform="matrix(1 0 0 1 216.3807 405.366)" class="st0 st1 st2">ثادحتسا</text>
	</g>
	<g>
		<text transform="matrix(1 0 0 1 219.0218 449.3985)" class="st3 st4 st5">Estehdath</text>
	</g>
</g>
<g>
	<path class="st0" d="M328.96,322.09L328.96,322.09H253.7v-23.32l0,0v-3.17c0-6.01,4.71-10.88,10.71-10.88h35.84
		c5.37,0,9.83,3.89,10.71,9.01h-48.41v19.21h57.25C324.86,312.95,328.96,317.04,328.96,322.09z"/>
	<g>
		<g>
			<rect x="268.36" y="298.77" class="st3" width="42.82" height="9.15"/>
		</g>
	</g>
	<path class="st3" d="M328.96,327.12L328.96,327.12c0,5.05-4.09,9.15-9.15,9.15h-57.25v5.04h48.62v8.36h-0.04v3.95
		c0,6.01-4.87,10.88-10.88,10.88h-35.84c-5.37,0-9.83-3.89-10.71-9.01h48.33v-5.03H253.7v-23.33H328.96z"/>
</g>
</svg>
