<?xml version="1.0" standalone="no"?><!DOCTYPE svg PUBLIC "-//W3C//DTD SVG 20010904//EN" "http://www.w3.org/TR/2001/REC-SVG-20010904/DTD/svg10.dtd"><svg xmlns="http://www.w3.org/2000/svg" version="1.0" width="512.000000pt" height="512.000000pt" viewBox="0 0 512.000000 512.000000" preserveAspectRatio="xMidYMid meet">

<g transform="translate(0.000000,512.000000) scale(0.100000,-0.100000)" fill="#ffffff" stroke="none">
<path d="M2105 5109 c-1025 -45 -1778 -206 -2005 -429 -31 -30 -65 -73 -75 -95 -20 -39 -20 -80 -23 -2010 -2 -1456 0 -1980 9 -2010 70 -247 632 -432 1574 -519 326 -30 540 -39 960 -40 1375 -2 2395 206 2551 521 18 37 19 99 19 2028 0 1953 0 1991 -20 2030 -87 180 -433 325 -1000 419 -549 92 -1341 134 -1990 105z m785 -209 c690 -21 1237 -91 1645 -210 242 -71 393 -158 365 -210 -63 -118 -596 -265 -1205 -334 -605 -68 -1384 -76 -2045 -21 -713 60 -1358 220 -1430 355 -28 52 124 139 365 210 394 115 969 190 1595 209 363 11 379 11 710 1z m-2637 -696 c50 -26 245 -99 320 -119 l67 -18 0 -1823 c0 -1493 -2 -1824 -13 -1824 -23 0 -210 66 -287 102 -43 20 -87 48 -103 67 l-27 33 0 1799 c0 989 2 1799 5 1799 4 0 20 -7 38 -16z m4657 -1783 l0 -1799 -27 -33 c-78 -92 -464 -211 -908 -279 -491 -74 -1125 -108 -1710 -90 -170 5 -318 10 -327 10 -17 0 -18 94 -18 1830 l0 1830 28 0 c15 0 160 -5 321 -10 650 -23 1485 36 2006 141 227 46 443 112 554 169 31 16 62 29 69 30 9 0 12 -366 12 -1799z m-3930 1575 c134 -24 361 -53 540 -71 91 -9 171 -18 178 -20 9 -4 12 -27 10 -87 l-3 -83 -425 0 -425 0 -3 143 -3 143 23 -5 c13 -3 61 -12 108 -20z m728 -688 l-3 -213 -425 0 -425 0 -3 213 -2 212 430 0 430 0 -2 -212z m0 -640 l-3 -213 -425 0 -425 0 -3 213 -2 212 430 0 430 0 -2 -212z m0 -640 l-3 -213 -425 0 -425 0 -3 213 -2 212 430 0 430 0 -2 -212z m0 -640 l-3 -213 -425 0 -425 0 -3 213 -2 212 430 0 430 0 -2 -212z m2 -784 l0 -357 -92 7 c-151 12 -401 44 -585 76 -94 17 -174 30 -177 30 -3 0 -6 135 -6 300 l0 300 430 0 430 0 0 -356z"/>
</g>
</svg>