<?xml version="1.0" standalone="no"?><!DOCTYPE svg PUBLIC "-//W3C//DTD SVG 20010904//EN" "http://www.w3.org/TR/2001/REC-SVG-20010904/DTD/svg10.dtd"><svg xmlns="http://www.w3.org/2000/svg" version="1.0" width="474.000000pt" height="474.000000pt" viewBox="0 0 474.000000 474.000000" preserveAspectRatio="xMidYMid meet">

<g transform="translate(0.000000,474.000000) scale(0.100000,-0.100000)" fill="#ffffff" stroke="none">
<path d="M1965 4639 c-49 -54 -512 -521 -1028 -1036 l-937 -938 0 -395 0 -395 143 -54 c78 -29 244 -94 370 -143 l227 -89 0 -248 0 -247 -112 -43 c-133 -51 -524 -204 -585 -229 l-43 -17 0 -402 0 -403 1333 1 1332 2 190 196 c231 237 1352 1378 1662 1691 l223 225 0 376 0 376 -192 75 c-106 41 -284 110 -395 154 -112 43 -203 81 -203 84 1 3 178 185 395 405 l394 400 1 378 0 377 -1342 -1 -1343 -1 -90 -99z m1295 -1084 l-885 -885 -1040 0 -1040 1 888 884 887 885 1038 0 1037 0 -885 -885z m1176 849 c-3 -9 -6 -111 -6 -227 l-1 -212 -582 -590 c-320 -324 -715 -725 -879 -890 l-298 -300 0 245 -1 245 873 871 c480 480 879 872 887 873 8 1 11 -5 7 -15z m-699 -1462 c13 -8 5 -17 -868 -902 -339 -344 -689 -699 -777 -790 l-161 -165 -1 251 0 252 38 15 c20 8 184 72 363 142 l326 127 481 487 c264 268 501 511 527 539 50 54 53 56 72 44z m525 -210 c10 -10 -1813 -1832 -1833 -1832 -14 0 -223 80 -253 97 -11 6 47 70 252 278 147 149 556 563 910 921 l642 652 137 -54 c75 -30 140 -57 145 -62z m168 -416 l-5 -224 -274 -279 c-151 -153 -410 -415 -575 -583 -166 -168 -437 -443 -603 -611 l-303 -306 0 251 -1 251 878 875 c486 484 880 870 883 863 3 -7 3 -113 0 -237z m-2060 -96 c0 -90 -4 -150 -10 -150 -5 0 -148 -54 -317 -121 -169 -66 -332 -130 -361 -141 l-52 -20 2 -450 3 -451 35 -13 c19 -7 184 -71 365 -142 l330 -130 3 -151 3 -151 -1036 0 -1035 0 0 154 c0 138 2 154 18 159 32 9 667 259 695 273 l27 15 -2 445 -3 445 -365 143 -365 143 -3 147 -3 146 1036 0 1035 0 0 -150z"/>
</g>
</svg>