<?xml version="1.0" encoding="UTF-8" standalone="no" ?>
<!DOCTYPE svg PUBLIC "-//W3C//DTD SVG 1.1//EN" "http://www.w3.org/Graphics/SVG/1.1/DTD/svg11.dtd">
<svg xmlns="http://www.w3.org/2000/svg" xmlns:xlink="http://www.w3.org/1999/xlink" version="1.1" width="640" height="480" viewBox="0 0 640 480" xml:space="preserve">
<desc>Created with Fabric.js 3.6.6</desc>
<defs>
</defs>
<g transform="matrix(0.73 0 0 0.73 328.3 363.41)"  >
<path style="stroke: none; stroke-width: 1; stroke-dasharray: none; stroke-linecap: butt; stroke-dashoffset: 0; stroke-linejoin: miter; stroke-miterlimit: 4; fill: rgb(242,242,242); fill-rule: nonzero; opacity: 1;"  transform=" translate(-599.54, -604.04)" d="M 892.0771 705.04148 h -585.082 a 68.4964 68.4964 0 0 1 -66.89649 -83.21289 l 26.13379 -118.78711 H 932.83979 l 26.13379 118.78711 a 68.49639 68.49639 0 0 1 -66.89648 83.21289 Z m -624.23731 -200 l -25.78808 117.2168 a 66.49673 66.49673 0 0 0 64.94336 80.7832 h 585.082 a 66.49674 66.49674 0 0 0 64.94336 -80.7832 l -25.78809 -117.2168 Z" stroke-linecap="round" />
</g>
<g transform="matrix(0.73 0 0 0.73 482.24 91.44)"  >
<path style="stroke: none; stroke-width: 1; stroke-dasharray: none; stroke-linecap: butt; stroke-dashoffset: 0; stroke-linejoin: miter; stroke-miterlimit: 4; fill: rgb(255,182,182); fill-rule: nonzero; opacity: 1;"  transform=" translate(-810.41, -231.47)" d="M 817.7855 249.41514 l 30.69046 -4.5739 l -4.84758 -21.34916 l -18.4 9.26659 l -37.961 -14.30669 a 7.71684 7.71684 0 1 0 -5.0485 10.199 Z" stroke-linecap="round" />
</g>
<g transform="matrix(0.73 0 0 0.73 512.58 92.8)"  >
<path style="stroke: none; stroke-width: 1; stroke-dasharray: none; stroke-linecap: butt; stroke-dashoffset: 0; stroke-linejoin: miter; stroke-miterlimit: 4; fill: rgb(83,109,254); fill-rule: nonzero; opacity: 1;"  transform=" translate(-851.97, -233.34)" d="M 880.164 233.45546 c -2.37275 8.99484 -57.04774 19.14085 -57.02046 17.19492 c 0.07752 -5.53051 3.5933 -17.135 1.58543 -20.14555 c -1.14827 -1.72168 14.31267 -6.121 14.31267 -6.121 s 8.53341 -3.28453 19.59642 -7.29317 a 19.72107 19.72107 0 0 1 18.85049 2.60441 S 882.5367 224.46062 880.164 233.45546 Z" stroke-linecap="round" />
</g>
<g transform="matrix(0.73 0 0 0.73 140.12 378)"  >
<path style="stroke: none; stroke-width: 1; stroke-dasharray: none; stroke-linecap: butt; stroke-dashoffset: 0; stroke-linejoin: miter; stroke-miterlimit: 4; fill: rgb(230,230,230); fill-rule: nonzero; opacity: 1;"  transform=" translate(-341.75, -624.04)" d="M 351.24671 608.03678 h -19 a 16 16 0 0 0 0 32 h 19 a 16 16 0 0 0 0 -32 Z" stroke-linecap="round" />
</g>
<g transform="matrix(0.73 0 0 0.73 184.65 378)"  >
<path style="stroke: none; stroke-width: 1; stroke-dasharray: none; stroke-linecap: butt; stroke-dashoffset: 0; stroke-linejoin: miter; stroke-miterlimit: 4; fill: rgb(230,230,230); fill-rule: nonzero; opacity: 1;"  transform=" translate(-402.75, -624.04)" d="M 412.24671 608.03678 h -19 a 16 16 0 0 0 0 32 h 19 a 16 16 0 0 0 0 -32 Z" stroke-linecap="round" />
</g>
<g transform="matrix(0.73 0 0 0.73 229.18 378)"  >
<path style="stroke: none; stroke-width: 1; stroke-dasharray: none; stroke-linecap: butt; stroke-dashoffset: 0; stroke-linejoin: miter; stroke-miterlimit: 4; fill: rgb(230,230,230); fill-rule: nonzero; opacity: 1;"  transform=" translate(-463.75, -624.04)" d="M 473.24671 608.03678 h -19 a 16 16 0 0 0 0 32 h 19 a 16 16 0 0 0 0 -32 Z" stroke-linecap="round" />
</g>
<g transform="matrix(0.73 0 0 0.73 273.71 378)"  >
<path style="stroke: none; stroke-width: 1; stroke-dasharray: none; stroke-linecap: butt; stroke-dashoffset: 0; stroke-linejoin: miter; stroke-miterlimit: 4; fill: rgb(230,230,230); fill-rule: nonzero; opacity: 1;"  transform=" translate(-524.75, -624.04)" d="M 534.24671 608.03678 h -19 a 16 16 0 0 0 0 32 h 19 a 16 16 0 0 0 0 -32 Z" stroke-linecap="round" />
</g>
<g transform="matrix(0.73 0 0 0.73 318.24 378)"  >
<path style="stroke: none; stroke-width: 1; stroke-dasharray: none; stroke-linecap: butt; stroke-dashoffset: 0; stroke-linejoin: miter; stroke-miterlimit: 4; fill: rgb(230,230,230); fill-rule: nonzero; opacity: 1;"  transform=" translate(-585.75, -624.04)" d="M 595.24671 608.03678 h -19 a 16 16 0 0 0 0 32 h 19 a 16 16 0 0 0 0 -32 Z" stroke-linecap="round" />
</g>
<g transform="matrix(0.73 0 0 0.73 362.77 378)"  >
<path style="stroke: none; stroke-width: 1; stroke-dasharray: none; stroke-linecap: butt; stroke-dashoffset: 0; stroke-linejoin: miter; stroke-miterlimit: 4; fill: rgb(230,230,230); fill-rule: nonzero; opacity: 1;"  transform=" translate(-646.75, -624.04)" d="M 656.24671 608.03678 h -19 a 16 16 0 0 0 0 32 h 19 a 16 16 0 0 0 0 -32 Z" stroke-linecap="round" />
</g>
<g transform="matrix(0.73 0 0 0.73 407.3 378)"  >
<path style="stroke: none; stroke-width: 1; stroke-dasharray: none; stroke-linecap: butt; stroke-dashoffset: 0; stroke-linejoin: miter; stroke-miterlimit: 4; fill: rgb(230,230,230); fill-rule: nonzero; opacity: 1;"  transform=" translate(-707.75, -624.04)" d="M 717.24671 608.03678 h -19 a 16 16 0 0 0 0 32 h 19 a 16 16 0 0 0 0 -32 Z" stroke-linecap="round" />
</g>
<g transform="matrix(0.73 0 0 0.73 451.83 378)"  >
<path style="stroke: none; stroke-width: 1; stroke-dasharray: none; stroke-linecap: butt; stroke-dashoffset: 0; stroke-linejoin: miter; stroke-miterlimit: 4; fill: rgb(230,230,230); fill-rule: nonzero; opacity: 1;"  transform=" translate(-768.75, -624.04)" d="M 778.24671 608.03678 h -19 a 16 16 0 0 0 0 32 h 19 a 16 16 0 0 0 0 -32 Z" stroke-linecap="round" />
</g>
<g transform="matrix(0.73 0 0 0.73 496.36 378)"  >
<path style="stroke: none; stroke-width: 1; stroke-dasharray: none; stroke-linecap: butt; stroke-dashoffset: 0; stroke-linejoin: miter; stroke-miterlimit: 4; fill: rgb(230,230,230); fill-rule: nonzero; opacity: 1;"  transform=" translate(-829.75, -624.04)" d="M 839.24671 608.03678 h -19 a 16 16 0 0 0 0 32 h 19 a 16 16 0 0 0 0 -32 Z" stroke-linecap="round" />
</g>
<g transform="matrix(0.73 0 0 0.73 140.12 329.1)"  >
<path style="stroke: none; stroke-width: 1; stroke-dasharray: none; stroke-linecap: butt; stroke-dashoffset: 0; stroke-linejoin: miter; stroke-miterlimit: 4; fill: rgb(230,230,230); fill-rule: nonzero; opacity: 1;"  transform=" translate(-341.75, -557.04)" d="M 351.24671 541.03678 h -19 a 16 16 0 0 0 0 32 h 19 a 16 16 0 0 0 0 -32 Z" stroke-linecap="round" />
</g>
<g transform="matrix(0.73 0 0 0.73 184.65 329.1)"  >
<path style="stroke: none; stroke-width: 1; stroke-dasharray: none; stroke-linecap: butt; stroke-dashoffset: 0; stroke-linejoin: miter; stroke-miterlimit: 4; fill: rgb(230,230,230); fill-rule: nonzero; opacity: 1;"  transform=" translate(-402.75, -557.04)" d="M 412.24671 541.03678 h -19 a 16 16 0 0 0 0 32 h 19 a 16 16 0 0 0 0 -32 Z" stroke-linecap="round" />
</g>
<g transform="matrix(0.73 0 0 0.73 229.18 329.1)"  >
<path style="stroke: none; stroke-width: 1; stroke-dasharray: none; stroke-linecap: butt; stroke-dashoffset: 0; stroke-linejoin: miter; stroke-miterlimit: 4; fill: rgb(83,109,254); fill-rule: nonzero; opacity: 1;"  transform=" translate(-463.75, -557.04)" d="M 473.24671 541.03678 h -19 a 16 16 0 0 0 0 32 h 19 a 16 16 0 0 0 0 -32 Z" stroke-linecap="round" />
</g>
<g transform="matrix(0.73 0 0 0.73 273.71 329.1)"  >
<path style="stroke: none; stroke-width: 1; stroke-dasharray: none; stroke-linecap: butt; stroke-dashoffset: 0; stroke-linejoin: miter; stroke-miterlimit: 4; fill: rgb(230,230,230); fill-rule: nonzero; opacity: 1;"  transform=" translate(-524.75, -557.04)" d="M 534.24671 541.03678 h -19 a 16 16 0 0 0 0 32 h 19 a 16 16 0 0 0 0 -32 Z" stroke-linecap="round" />
</g>
<g transform="matrix(0.73 0 0 0.73 318.24 329.1)"  >
<path style="stroke: none; stroke-width: 1; stroke-dasharray: none; stroke-linecap: butt; stroke-dashoffset: 0; stroke-linejoin: miter; stroke-miterlimit: 4; fill: rgb(230,230,230); fill-rule: nonzero; opacity: 1;"  transform=" translate(-585.75, -557.04)" d="M 595.24671 541.03678 h -19 a 16 16 0 0 0 0 32 h 19 a 16 16 0 0 0 0 -32 Z" stroke-linecap="round" />
</g>
<g transform="matrix(0.73 0 0 0.73 362.77 329.1)"  >
<path style="stroke: none; stroke-width: 1; stroke-dasharray: none; stroke-linecap: butt; stroke-dashoffset: 0; stroke-linejoin: miter; stroke-miterlimit: 4; fill: rgb(230,230,230); fill-rule: nonzero; opacity: 1;"  transform=" translate(-646.75, -557.04)" d="M 656.24671 541.03678 h -19 a 16 16 0 0 0 0 32 h 19 a 16 16 0 0 0 0 -32 Z" stroke-linecap="round" />
</g>
<g transform="matrix(0.73 0 0 0.73 407.3 329.1)"  >
<path style="stroke: none; stroke-width: 1; stroke-dasharray: none; stroke-linecap: butt; stroke-dashoffset: 0; stroke-linejoin: miter; stroke-miterlimit: 4; fill: rgb(230,230,230); fill-rule: nonzero; opacity: 1;"  transform=" translate(-707.75, -557.04)" d="M 717.24671 541.03678 h -19 a 16 16 0 0 0 0 32 h 19 a 16 16 0 0 0 0 -32 Z" stroke-linecap="round" />
</g>
<g transform="matrix(0.73 0 0 0.73 451.83 329.1)"  >
<path style="stroke: none; stroke-width: 1; stroke-dasharray: none; stroke-linecap: butt; stroke-dashoffset: 0; stroke-linejoin: miter; stroke-miterlimit: 4; fill: rgb(230,230,230); fill-rule: nonzero; opacity: 1;"  transform=" translate(-768.75, -557.04)" d="M 778.24671 541.03678 h -19 a 16 16 0 0 0 0 32 h 19 a 16 16 0 0 0 0 -32 Z" stroke-linecap="round" />
</g>
<g transform="matrix(0.73 0 0 0.73 496.36 329.1)"  >
<path style="stroke: none; stroke-width: 1; stroke-dasharray: none; stroke-linecap: butt; stroke-dashoffset: 0; stroke-linejoin: miter; stroke-miterlimit: 4; fill: rgb(230,230,230); fill-rule: nonzero; opacity: 1;"  transform=" translate(-829.75, -557.04)" d="M 839.24671 541.03678 h -19 a 16 16 0 0 0 0 32 h 19 a 16 16 0 0 0 0 -32 Z" stroke-linecap="round" />
</g>
<g transform="matrix(0.73 0 0 0.73 160.92 354.29)"  >
<path style="stroke: none; stroke-width: 1; stroke-dasharray: none; stroke-linecap: butt; stroke-dashoffset: 0; stroke-linejoin: miter; stroke-miterlimit: 4; fill: rgb(230,230,230); fill-rule: nonzero; opacity: 1;"  transform=" translate(-370.25, -591.54)" d="M 379.74671 575.53678 h -19 a 16 16 0 0 0 0 32 h 19 a 16 16 0 0 0 0 -32 Z" stroke-linecap="round" />
</g>
<g transform="matrix(0.73 0 0 0.73 205.45 354.29)"  >
<path style="stroke: none; stroke-width: 1; stroke-dasharray: none; stroke-linecap: butt; stroke-dashoffset: 0; stroke-linejoin: miter; stroke-miterlimit: 4; fill: rgb(230,230,230); fill-rule: nonzero; opacity: 1;"  transform=" translate(-431.25, -591.54)" d="M 440.74671 575.53678 h -19 a 16 16 0 0 0 0 32 h 19 a 16 16 0 0 0 0 -32 Z" stroke-linecap="round" />
</g>
<g transform="matrix(0.73 0 0 0.73 249.98 354.29)"  >
<path style="stroke: none; stroke-width: 1; stroke-dasharray: none; stroke-linecap: butt; stroke-dashoffset: 0; stroke-linejoin: miter; stroke-miterlimit: 4; fill: rgb(230,230,230); fill-rule: nonzero; opacity: 1;"  transform=" translate(-492.25, -591.54)" d="M 501.74671 575.53678 h -19 a 16 16 0 0 0 0 32 h 19 a 16 16 0 0 0 0 -32 Z" stroke-linecap="round" />
</g>
<g transform="matrix(0.73 0 0 0.73 294.51 354.29)"  >
<path style="stroke: none; stroke-width: 1; stroke-dasharray: none; stroke-linecap: butt; stroke-dashoffset: 0; stroke-linejoin: miter; stroke-miterlimit: 4; fill: rgb(230,230,230); fill-rule: nonzero; opacity: 1;"  transform=" translate(-553.25, -591.54)" d="M 562.74671 575.53678 h -19 a 16 16 0 0 0 0 32 h 19 a 16 16 0 0 0 0 -32 Z" stroke-linecap="round" />
</g>
<g transform="matrix(0.73 0 0 0.73 339.04 354.29)"  >
<path style="stroke: none; stroke-width: 1; stroke-dasharray: none; stroke-linecap: butt; stroke-dashoffset: 0; stroke-linejoin: miter; stroke-miterlimit: 4; fill: rgb(230,230,230); fill-rule: nonzero; opacity: 1;"  transform=" translate(-614.25, -591.54)" d="M 623.74671 575.53678 h -19 a 16 16 0 0 0 0 32 h 19 a 16 16 0 0 0 0 -32 Z" stroke-linecap="round" />
</g>
<g transform="matrix(0.73 0 0 0.73 383.57 354.29)"  >
<path style="stroke: none; stroke-width: 1; stroke-dasharray: none; stroke-linecap: butt; stroke-dashoffset: 0; stroke-linejoin: miter; stroke-miterlimit: 4; fill: rgb(230,230,230); fill-rule: nonzero; opacity: 1;"  transform=" translate(-675.25, -591.54)" d="M 684.74671 575.53678 h -19 a 16 16 0 0 0 0 32 h 19 a 16 16 0 0 0 0 -32 Z" stroke-linecap="round" />
</g>
<g transform="matrix(0.73 0 0 0.73 428.1 354.29)"  >
<path style="stroke: none; stroke-width: 1; stroke-dasharray: none; stroke-linecap: butt; stroke-dashoffset: 0; stroke-linejoin: miter; stroke-miterlimit: 4; fill: rgb(230,230,230); fill-rule: nonzero; opacity: 1;"  transform=" translate(-736.25, -591.54)" d="M 745.74671 575.53678 h -19 a 16 16 0 0 0 0 32 h 19 a 16 16 0 0 0 0 -32 Z" stroke-linecap="round" />
</g>
<g transform="matrix(0.73 0 0 0.73 472.63 354.29)"  >
<path style="stroke: none; stroke-width: 1; stroke-dasharray: none; stroke-linecap: butt; stroke-dashoffset: 0; stroke-linejoin: miter; stroke-miterlimit: 4; fill: rgb(230,230,230); fill-rule: nonzero; opacity: 1;"  transform=" translate(-797.25, -591.54)" d="M 806.74671 575.53678 h -19 a 16 16 0 0 0 0 32 h 19 a 16 16 0 0 0 0 -32 Z" stroke-linecap="round" />
</g>
<g transform="matrix(0.73 0 0 0.73 517.16 354.29)"  >
<path style="stroke: none; stroke-width: 1; stroke-dasharray: none; stroke-linecap: butt; stroke-dashoffset: 0; stroke-linejoin: miter; stroke-miterlimit: 4; fill: rgb(230,230,230); fill-rule: nonzero; opacity: 1;"  transform=" translate(-858.25, -591.54)" d="M 867.74671 575.53678 h -19 a 16 16 0 0 0 0 32 h 19 a 16 16 0 0 0 0 -32 Z" stroke-linecap="round" />
</g>
<g transform="matrix(0.73 0 0 0.73 328.63 186.01)"  >
<path style="stroke: none; stroke-width: 1; stroke-dasharray: none; stroke-linecap: butt; stroke-dashoffset: 0; stroke-linejoin: miter; stroke-miterlimit: 4; fill: rgb(255,255,255); fill-rule: nonzero; opacity: 1;"  transform=" translate(-600, -361.04)" d="M 797.37855 504.03678 H 402.61488 a 23.64479 23.64479 0 0 1 -23.61817 -23.61816 l 0.02588 -0.22559 c 13.96582 -60.42773 13.96045 -136.18164 -0.0166 -238.40234 l -0.00928 -0.13574 a 23.64512 23.64512 0 0 1 23.61817 -23.61817 H 797.37855 A 23.64511 23.64511 0 0 1 820.99671 241.655 l -0.022 0.209 a 566.87235 566.87235 0 0 0 0 238.3457 l 0.022 0.209 A 23.64478 23.64478 0 0 1 797.37855 504.03678 Z" stroke-linecap="round" />
</g>
<g transform="matrix(0.73 0 0 0.73 328.63 186.01)"  >
<path style="stroke: none; stroke-width: 1; stroke-dasharray: none; stroke-linecap: butt; stroke-dashoffset: 0; stroke-linejoin: miter; stroke-miterlimit: 4; fill: rgb(230,230,230); fill-rule: nonzero; opacity: 1;"  transform=" translate(-600, -361.04)" d="M 797.37855 504.03678 H 402.61488 a 23.64479 23.64479 0 0 1 -23.61817 -23.61816 l 0.02588 -0.22559 c 13.96582 -60.42773 13.96045 -136.18164 -0.0166 -238.40234 l -0.00928 -0.13574 a 23.64512 23.64512 0 0 1 23.61817 -23.61817 H 797.37855 A 23.64511 23.64511 0 0 1 820.99671 241.655 l -0.022 0.209 a 566.87235 566.87235 0 0 0 0 238.3457 l 0.022 0.209 A 23.64478 23.64478 0 0 1 797.37855 504.03678 Z M 380.9972 480.53092 a 21.64307 21.64307 0 0 0 21.61768 21.50586 H 797.37855 a 21.64279 21.64279 0 0 0 21.61767 -21.51367 a 568.84463 568.84463 0 0 1 0 -238.97266 a 21.64279 21.64279 0 0 0 -21.61767 -21.51367 H 402.61488 a 21.64308 21.64308 0 0 0 -21.61817 21.55078 C 394.98939 343.95622 394.99036 419.89274 380.9972 480.53092 Z" stroke-linecap="round" />
</g>
<g transform="matrix(0.73 0 0 0.73 326.08 128.35)"  >
<path style="stroke: none; stroke-width: 1; stroke-dasharray: none; stroke-linecap: butt; stroke-dashoffset: 0; stroke-linejoin: miter; stroke-miterlimit: 4; fill: rgb(230,230,230); fill-rule: nonzero; opacity: 1;"  transform=" translate(-596.5, -282.04)" d="M 755.99671 288.53678 h -319 a 6.5 6.5 0 0 1 0 -13 h 319 a 6.5 6.5 0 0 1 0 13 Z" stroke-linecap="round" />
</g>
<g transform="matrix(0.73 0 0 0.73 326.08 151.34)"  >
<path style="stroke: none; stroke-width: 1; stroke-dasharray: none; stroke-linecap: butt; stroke-dashoffset: 0; stroke-linejoin: miter; stroke-miterlimit: 4; fill: rgb(230,230,230); fill-rule: nonzero; opacity: 1;"  transform=" translate(-596.5, -313.54)" d="M 755.99671 320.03678 h -319 a 6.5 6.5 0 0 1 0 -13 h 319 a 6.5 6.5 0 0 1 0 13 Z" stroke-linecap="round" />
</g>
<g transform="matrix(0.73 0 0 0.73 326.08 174.34)"  >
<path style="stroke: none; stroke-width: 1; stroke-dasharray: none; stroke-linecap: butt; stroke-dashoffset: 0; stroke-linejoin: miter; stroke-miterlimit: 4; fill: rgb(230,230,230); fill-rule: nonzero; opacity: 1;"  transform=" translate(-596.5, -345.04)" d="M 755.99671 351.53678 h -319 a 6.5 6.5 0 0 1 0 -13 h 319 a 6.5 6.5 0 0 1 0 13 Z" stroke-linecap="round" />
</g>
<g transform="matrix(0.73 0 0 0.73 326.08 197.33)"  >
<path style="stroke: none; stroke-width: 1; stroke-dasharray: none; stroke-linecap: butt; stroke-dashoffset: 0; stroke-linejoin: miter; stroke-miterlimit: 4; fill: rgb(230,230,230); fill-rule: nonzero; opacity: 1;"  transform=" translate(-596.5, -376.54)" d="M 755.99671 383.03678 h -319 a 6.5 6.5 0 0 1 0 -13 h 319 a 6.5 6.5 0 0 1 0 13 Z" stroke-linecap="round" />
</g>
<g transform="matrix(0.73 0 0 0.73 326.08 220.33)"  >
<path style="stroke: none; stroke-width: 1; stroke-dasharray: none; stroke-linecap: butt; stroke-dashoffset: 0; stroke-linejoin: miter; stroke-miterlimit: 4; fill: rgb(230,230,230); fill-rule: nonzero; opacity: 1;"  transform=" translate(-596.5, -408.04)" d="M 755.99671 414.53678 h -319 a 6.5 6.5 0 0 1 0 -13 h 319 a 6.5 6.5 0 0 1 0 13 Z" stroke-linecap="round" />
</g>
<g transform="matrix(0.73 0 0 0.73 261.84 243.32)"  >
<path style="stroke: none; stroke-width: 1; stroke-dasharray: none; stroke-linecap: butt; stroke-dashoffset: 0; stroke-linejoin: miter; stroke-miterlimit: 4; fill: rgb(83,109,254); fill-rule: nonzero; opacity: 1;"  transform=" translate(-508.5, -439.54)" d="M 579.99671 446.03678 h -143 a 6.5 6.5 0 0 1 0 -13 h 143 a 6.5 6.5 0 0 1 0 13 Z" stroke-linecap="round" />
</g>
<g transform="matrix(0.73 0 0 0.73 317.71 261.58)"  >
<path style="stroke: none; stroke-width: 1; stroke-dasharray: none; stroke-linecap: butt; stroke-dashoffset: 0; stroke-linejoin: miter; stroke-miterlimit: 4; fill: rgb(230,230,230); fill-rule: nonzero; opacity: 1;"  transform=" translate(-585.02, -464.54)" d="M 598.17835 495.53678 H 571.85511 a 2.65765 2.65765 0 0 1 -2.06885 -1.01953 a 3.174 3.174 0 0 1 -0.60058 -2.65234 l 12.3872 -56.0459 a 2.69956 2.69956 0 0 1 5.32032 -0.08106 l 13.936 56.04493 a 3.1748 3.1748 0 0 1 -0.55762 2.7041 A 2.65706 2.65706 0 0 1 598.17835 495.53678 Z" stroke-linecap="round" />
</g>
<g transform="matrix(0.73 0 0 0.73 328.64 289.68)"  >
<path style="stroke: none; stroke-width: 1; stroke-dasharray: none; stroke-linecap: butt; stroke-dashoffset: 0; stroke-linejoin: miter; stroke-miterlimit: 4; fill: rgb(242,242,242); fill-rule: nonzero; opacity: 1;"  transform=" translate(-600, -503.04)" d="M 928.99671 516.53678 h -658 a 13.5 13.5 0 0 1 0 -27 h 658 a 13.5 13.5 0 0 1 0 27 Z" stroke-linecap="round" />
</g>
<g transform="matrix(0.73 0 0 0.73 502.81 261.33)"  >
<polygon style="stroke: none; stroke-width: 1; stroke-dasharray: none; stroke-linecap: butt; stroke-dashoffset: 0; stroke-linejoin: miter; stroke-miterlimit: 4; fill: rgb(255,182,182); fill-rule: nonzero; opacity: 1;"  points="7.08,18.52 -2.52,18.52 -7.09,-18.52 7.09,-18.52 7.08,18.52 " />
</g>
<g transform="matrix(0.73 0 0 0.73 498.47 275.54)"  >
<path style="stroke: none; stroke-width: 1; stroke-dasharray: none; stroke-linecap: butt; stroke-dashoffset: 0; stroke-linejoin: miter; stroke-miterlimit: 4; fill: rgb(47,46,65); fill-rule: nonzero; opacity: 1;"  transform=" translate(-832.64, -483.67)" d="M 848.12137 492.03678 l -30.95975 -0.00114 v -0.39159 a 12.051 12.051 0 0 1 12.0504 -12.05021 h 0.00076 l 5.65521 -4.29034 l 10.55135 4.291 l 2.7026 0.0001 Z" stroke-linecap="round" />
</g>
<g transform="matrix(0.73 0 0 0.73 560.65 255.21)"  >
<polygon style="stroke: none; stroke-width: 1; stroke-dasharray: none; stroke-linecap: butt; stroke-dashoffset: 0; stroke-linejoin: miter; stroke-miterlimit: 4; fill: rgb(255,182,182); fill-rule: nonzero; opacity: 1;"  points="14.6,14.43 6.01,18.71 -14.6,-12.39 -1.92,-18.71 14.6,14.43 " />
</g>
<g transform="matrix(0.73 0 0 0.73 565.31 272)"  >
<path style="stroke: none; stroke-width: 1; stroke-dasharray: none; stroke-linecap: butt; stroke-dashoffset: 0; stroke-linejoin: miter; stroke-miterlimit: 4; fill: rgb(47,46,65); fill-rule: nonzero; opacity: 1;"  transform=" translate(-924.2, -478.82)" d="M 938.77356 477.48361 l -27.709 13.81 l -0.17469 -0.35047 a 12.051 12.051 0 0 1 5.40937 -16.16039 l 0.00069 -0.00034 l 3.14742 -6.36255 l 11.3575 -0.86655 l 2.41883 -1.20552 Z" stroke-linecap="round" />
</g>
<g transform="matrix(0.73 0 0 0.73 530.95 208.15)"  >
<path style="stroke: none; stroke-width: 1; stroke-dasharray: none; stroke-linecap: butt; stroke-dashoffset: 0; stroke-linejoin: miter; stroke-miterlimit: 4; fill: rgb(47,46,65); fill-rule: nonzero; opacity: 1;"  transform=" translate(-877.14, -391.35)" d="M 841.41862 314.52925 l 52.94493 1.85308 l 3.95881 7.35208 s 4.14634 30.07924 2.02286 32.20272 s -3.18522 2.12348 -2.12348 5.83957 s 3.80663 39.22214 3.80663 39.22214 s 21.87145 45.36626 22.93319 48.02061 s 2.12348 1.59261 1.06174 2.65435 A 39.09813 39.09813 0 0 0 923.369 454.859 H 906.0645 s -9.31724 -23.50265 -17.846 -32.59349 a 51.63525 51.63525 0 0 1 -13.61219 -29.178 l -7.175 -33.96517 L 852.036 411.14763 s -2.65436 51.49442 -2.12349 54.14877 l 0.53087 2.65435 l -20.39562 0.22781 s -2.12348 -4.47477 -1.06174 -6.06738 s 0.998 -1.15789 -0.29729 -3.76417 s -0.76445 -7.02253 -0.76445 -7.02253 s 7.65474 -104.41215 7.65474 -106.00476 a 5.29511 5.29511 0 0 0 -0.441 -2.38825 V 340.7697 l 2.03361 -7.66 Z" stroke-linecap="round" />
</g>
<g transform="matrix(0.73 0 0 0.73 527.53 118.06)"  >
<path style="stroke: none; stroke-width: 1; stroke-dasharray: none; stroke-linecap: butt; stroke-dashoffset: 0; stroke-linejoin: miter; stroke-miterlimit: 4; fill: rgb(83,109,254); fill-rule: nonzero; opacity: 1;"  transform=" translate(-872.44, -267.94)" d="M 864.24632 218.46691 c -3.44619 2.04877 -5.50772 5.81313 -6.69112 9.64368 a 91.38867 91.38867 0 0 0 -3.9272 21.83492 l -1.24993 22.18655 a 91.3502 91.3502 0 0 1 -11.627 40.78356 a 7.12994 7.12994 0 0 0 4.45968 10.32456 c 19.18914 5.03527 55.533 -1.28668 55.533 -1.28668 s 1.548 -0.516 0 -2.064 s -5.02085 -9.28825 -5.02085 -9.28825 l 4.12808 -27.117 l 5.16009 -54.69713 c -6.19215 -7.74017 -18.64533 -12.30294 -18.64533 -12.30294 l -3.21775 -5.79194 l -16.08872 1.28709 Z" stroke-linecap="round" />
</g>
<g transform="matrix(0.73 0 0 0.73 529 62.53)"  >
<circle style="stroke: none; stroke-width: 1; stroke-dasharray: none; stroke-linecap: butt; stroke-dashoffset: 0; stroke-linejoin: miter; stroke-miterlimit: 4; fill: rgb(255,184,184); fill-rule: nonzero; opacity: 1;"  cx="0" cy="0" r="15.4554" />
</g>
<g transform="matrix(0.73 0 0 0.73 529.15 58.76)"  >
<path style="stroke: none; stroke-width: 1; stroke-dasharray: none; stroke-linecap: butt; stroke-dashoffset: 0; stroke-linejoin: miter; stroke-miterlimit: 4; fill: rgb(47,46,65); fill-rule: nonzero; opacity: 1;"  transform=" translate(-874.66, -186.71)" d="M 893.50263 190.95324 a 26.87734 26.87734 0 0 1 -3.67594 8.807 a 5.99486 5.99486 0 0 1 -2.00508 2.27656 a 2.19153 2.19153 0 0 1 -2.78481 -0.34811 l -0.376 -0.30633 a 7.97635 7.97635 0 0 0 1.9494 -1.69177 a 2.71626 2.71626 0 0 0 0.52216 -2.42975 a 1.67252 1.67252 0 0 0 -2.04685 -1.093 c -0.9051 0.35507 -1.45508 1.66393 -2.40191 1.46205 c -0.76585 -0.16712 -0.926 -1.17659 -0.926 -1.97027 c 0.02783 -4.1494 -1.97724 -10.04623 -3.52977 -9.86521 a 12.51866 12.51866 0 0 1 -4.62973 -0.61963 a 12.12965 12.12965 0 0 0 -4.63675 -0.5918 c -0.11138 0.01394 -0.22279 0.03484 -0.34114 0.05571 a 10.267 10.267 0 0 0 -1.03036 -2.24873 a 12.01386 12.01386 0 0 1 -0.12532 2.54809 a 23.83181 23.83181 0 0 1 -3.857 1.21836 c -1.43418 0.20192 -4.588 4.49053 -4.73418 4.05191 a 10.2676 10.2676 0 0 0 -1.03037 -2.24872 a 12.01386 12.01386 0 0 1 -0.12531 2.54809 c -0.007 0.0348 -0.007 0.06267 -0.01394 0.09748 c -0.69621 -0.926 -1.12088 -2.05382 -0.88419 -1.19053 c -2.33227 -5.2772 -1.42722 -9.05759 2.2418 -13.50635 a 7.05517 7.05517 0 0 1 2.75 -2.207 a 3.46792 3.46792 0 0 1 3.38359 0.33421 a 11.38389 11.38389 0 0 1 11.29242 -2.40888 c 3.82216 1.32977 6.76713 2.10952 7.35192 6.11966 a 8.50874 8.50874 0 0 1 8.15257 3.96834 A 12.84965 12.84965 0 0 1 893.50263 190.95324 Z" stroke-linecap="round" />
</g>
<g transform="matrix(0.73 0 0 0.73 539.92 138.76)"  >
<path style="stroke: none; stroke-width: 1; stroke-dasharray: none; stroke-linecap: butt; stroke-dashoffset: 0; stroke-linejoin: miter; stroke-miterlimit: 4; fill: rgb(255,182,182); fill-rule: nonzero; opacity: 1;"  transform=" translate(-889.42, -296.29)" d="M 909.99671 291.38527 l 0.02514 -31.02941 l -21.83183 1.63 l 6.43726 19.57017 l -19.77475 35.42138 a 7.71685 7.71685 0 1 0 9.33816 6.5043 Z" stroke-linecap="round" />
</g>
<g transform="matrix(0.73 0 0 0.73 546.3 109.38)"  >
<path style="stroke: none; stroke-width: 1; stroke-dasharray: none; stroke-linecap: butt; stroke-dashoffset: 0; stroke-linejoin: miter; stroke-miterlimit: 4; fill: rgb(83,109,254); fill-rule: nonzero; opacity: 1;"  transform=" translate(-898.16, -256.05)" d="M 903.45817 227.33035 c 8.54385 3.67964 10.47463 59.25452 8.55424 58.93915 c -5.458 -0.89632 -16.41325 -6.09313 -19.68811 -4.55362 c -1.87284 0.88042 -3.93214 -15.06177 -3.93214 -15.06177 s -1.98355 -8.926 -4.30831 -20.4609 a 19.721 19.721 0 0 1 5.36941 -18.25633 S 894.91432 223.65073 903.45817 227.33035 Z" stroke-linecap="round" />
</g>
<g transform="matrix(0.73 0 0 0.73 328.63 411.6)"  >
<path style="stroke: none; stroke-width: 1; stroke-dasharray: none; stroke-linecap: butt; stroke-dashoffset: 0; stroke-linejoin: miter; stroke-miterlimit: 4; fill: rgb(230,230,230); fill-rule: nonzero; opacity: 1;"  transform=" translate(-600, -670.04)" d="M 702.99671 654.04148 h -206 a 16 16 0 0 0 0 32 h 206 a 16 16 0 0 0 0 -32 Z" stroke-linecap="round" />
</g>
</svg>